<svg version="1" xmlns="http://www.w3.org/2000/svg" width="1333.333" height="1333.333" viewBox="0 0 1000.000000 1000.000000"><path d="M993.5 123.2c-2.7 2.2-5.7 4.5-6.5 5.1-.8.7-8.9 6.9-18 13.7-9 6.9-17.1 13.1-18 13.7-.8.7-7.1 5.6-14 10.8-6.9 5.2-13.2 10.1-14 10.8-.8.6-7.1 5.5-14 10.7-16.1 12.2-47.3 35.9-67 51.1-26.8 20.6-66.7 51-98 74.9-6.9 5.2-13.2 10.1-14 10.8-.8.7-13.4 10.3-28 21.4-14.6 11-27.7 21-29.1 22.2-1.5 1.2-3.8 2.9-5.2 3.9-1.4 1-7.2 5.4-12.9 9.8-19.2 14.7-23.3 17.9-40.3 30.9-9.3 7.1-17.4 13.3-18 13.8-1.1.8-26.3 20.1-44.9 34.2-10.9 8.3-85.4 65.2-141.2 108-30.6 23.4-92.2 70.4-109.9 83.9-6 4.6-32.6 24.9-59 45.1-26.4 20.2-73.4 56.1-104.5 79.9-31.1 23.7-57.2 43.7-58 44.4-.8.6-7.6 5.8-15 11.4-7.4 5.7-20.9 16-30 22.9-9.1 6.9-19.8 15.1-23.7 18.1-4 3-7.3 5.8-7.3 6.1 0 .4 224.1.7 498 .7h498l.1-2.5c.2-11.6 0-759.2-.2-759.4-.2-.2-2.6 1.4-5.4 3.6zM1.6 479c.1 197.5.3 359.3.5 359.5.3.2 3.6-2.1 7.4-5.1 3.9-2.9 9-6.8 11.5-8.6 2.5-1.7 4.7-3.4 5-3.7.3-.3 3.2-2.6 6.5-5.1 3.3-2.5 6.2-4.7 6.5-5 .5-.5 7.5-5.8 34.1-26.1 9.7-7.4 18.8-14.3 20.4-15.4 1.5-1.1 3.2-2.5 3.9-3 .6-.6 5.8-4.6 11.6-9 5.8-4.3 13-9.8 16-12.2 3-2.4 6-4.6 6.5-5.1 7.6-5.6 17.1-12.8 17.5-13.3.3-.3 4.1-3.2 8.5-6.4 4.4-3.3 8.5-6.4 9.1-7 .6-.5 2.3-1.9 3.8-3s6.7-5 11.4-8.7c12-9.2 177.6-135.7 222.1-169.6 20-15.2 36.8-28.2 37.5-28.7.6-.6 7.6-5.9 15.6-11.9s14.9-11.2 15.3-11.6c.5-.4-11.7-10.3-27-21.9-15.3-11.7-28.5-21.8-29.3-22.4-.8-.7-16.8-12.9-35.5-27.2-18.7-14.2-34.6-26.5-35.3-27.2-.7-.7-1.7-1.3-2-1.3-.4 0-1.8-1-3.2-2.3-1.4-1.2-5.9-4.7-10-7.9-11.8-8.8-34.3-26-38.1-29-4.8-3.8-29.6-22.7-40.9-31.2-5.2-3.9-9.7-7.3-10-7.6-.3-.4-6.1-4.8-13-10s-12.7-9.7-13-10c-.3-.3-6.1-4.8-13-10-12.6-9.5-19-14.4-44.3-33.9-7.7-5.8-15.1-11.5-16.7-12.6-1.5-1.1-6.6-4.9-11.2-8.5-4.6-3.6-25.2-19.3-45.7-35-20.5-15.7-47.1-36-59.2-45.3-12-9.2-22.2-16.7-22.6-16.7-.5 0-.7 161.6-.7 359z"/></svg>