<?xml version="1.0" encoding="utf-8"?>
<!-- Generator: Adobe Illustrator 22.0.1, SVG Export Plug-In . SVG Version: 6.00 Build 0)  -->
<svg version="1.1" baseProfile="tiny" id="Camada_1"
	 xmlns="http://www.w3.org/2000/svg" xmlns:xlink="http://www.w3.org/1999/xlink" x="0px" y="0px" viewBox="0 0 468.7 118"
	 xml:space="preserve">
<path fill="#FFFFFF" d="M124.5,96.1c-0.7,1.9-1.4,3.9-2.2,5.7c1.3,0.1,3.1,0.2,4.4,0.2C126.3,100.7,125.2,97.8,124.5,96.1
	L124.5,96.1z M119.5,104.9c0.5-0.5,0.9-1.2,1.4-2.4c1.2-2.9,2.6-6.3,3.6-9.3c0.2-0.1,0.9-0.3,2.6-0.3c1,0,1.2,0,1.3,0.1
	c1.3,3.4,2.9,7.5,4.2,10.7c0.4,1.1,0.6,1.4,0.8,1.6c0.2,0.2,0.5,0.3,1.4,0.3c0.1,0,0.1,0.9,0,0.9c-1.2,0-2.5,0-3.6,0
	c-1.4,0-3.3,0-4.5,0c-0.1,0-0.2-0.9-0.1-0.9c0.9-0.1,1-0.1,1.2-0.2c0.1-0.1,0.1-0.3,0-0.6c-0.2-0.5-0.3-0.9-0.7-2
	c-1.3,0-3.2-0.1-3.9-0.1c-0.4,0-0.7,0-1,0c-0.1,0-0.2,0-0.2,0.2c-0.1,0.2-0.2,0.4-0.3,0.7c-0.1,0.4-0.1,0.6-0.1,1
	c0,0.8,0.5,0.9,1.6,1.1c0.1,0,0,0.9,0,0.9c-1.2-0.1-3.4,0-4.8,0c-0.1,0-0.1-0.8,0-0.9C118.6,105.5,119.1,105.3,119.5,104.9"/>
<path fill="#FFFFFF" d="M142.9,94.1c0,0.9,0,1.4-0.1,2.3v2.4c0,0.2,0,0.2,0,0.3c0,0,0.2,0.1,1.2,0.1c0.8,0,1.2-0.1,1.5-0.5
	c0.4-0.4,0.6-1.2,0.6-2.5c0-0.9-0.1-1.4-0.4-1.7c-0.3-0.3-0.8-0.4-2.1-0.4C143,94,142.9,94,142.9,94.1 M142.8,100.6v2
	c0,2.4,0,2.8,0.1,2.8c0.1,0.1,0.3,0.2,1.2,0.2c1.2,0,1.7-0.2,1.9-0.8c0.2-0.5,0.3-1,0.3-2c0-0.9-0.1-1.5-0.3-1.8
	c-0.3-0.7-0.9-1-2.3-1c-0.7,0-0.8,0-0.9,0C142.8,100.1,142.8,100.2,142.8,100.6 M145.2,93.1c2.9,0,4.4,0.4,5.4,1.4
	c0.4,0.4,0.6,1,0.6,1.6c0,2.1-1.6,3-4.7,3.4v0.2c3.1,0.2,5,1,5,3.2c0,0.9-0.4,1.7-0.9,2.3c-0.9,0.9-2.5,1.4-5.7,1.4
	c-0.9,0-3.5-0.1-4.5-0.1c-1.7,0-3.2,0-4.2,0c-0.1,0-0.1-0.9,0-0.9c1.4-0.1,1.5-0.1,1.6-0.2c0.1-0.1,0.2-0.3,0.2-1.2
	c0-1.8-0.1-3.3-0.1-5.1c0-1.8,0-2.8,0-4.3c0-0.3,0-0.6-0.1-0.7c-0.1-0.1-0.2-0.1-1.4-0.1c-0.1-0.1-0.1-0.9,0-0.9
	C137.6,93.1,143.6,93.1,145.2,93.1"/>
<path fill="#FFFFFF" d="M161,93.2c1.7,0,3.8,0,6.1-0.1c0.1,0,0.2,0.1,0.2,0.2c-0.1,1.4-0.1,3.7-0.2,5c0,0.1-0.7,0.1-0.8,0
	c-0.7-1.2-1.6-2.6-2.2-3.2c-0.8-0.8-1.3-1-2.9-1c-1,0-1.2,0-1.5,0l0,2.3l0,2.6c0.2,0,0.5,0,0.7,0c0.8,0,1.2-0.2,1.6-0.5
	c0.3-0.3,0.6-1,0.9-1.8c0-0.1,0.7-0.1,0.7,0c-0.1,2.1,0,4.4,0.1,5.8c0,0.1-0.7,0.1-0.7,0c-0.4-1-0.8-1.9-1.1-2.2
	c-0.3-0.3-0.6-0.3-1.3-0.3c-0.2,0-0.6,0-0.8,0c0,0.6,0,1.4,0,2.1c0,2.7,0,3,0.1,3.1c0.1,0.1,1.4,0.2,2.2,0.2h0.3c1,0,1.5-0.2,2-0.6
	c0.8-0.8,1.6-2.3,2.2-4.1c0-0.1,0.9,0,0.9,0.1c0,1.6-0.1,3.7-0.1,5.4c0,0.1,0,0.1-0.2,0.1c-3.3,0-4.3,0-6.6,0c-2.7,0-5.7,0-7.7,0
	c-0.1,0-0.2-1,0-1c1.4,0,1.5-0.1,1.6-0.1c0.1-0.1,0.2-1.9,0.2-4.2c0-1.1,0-2.3,0-4.2c0-2.3,0-2.7-0.1-2.8c-0.1-0.1-0.2-0.1-1.6-0.2
	c-0.1,0-0.2-0.9,0-0.9C154,93.2,160.1,93.2,161,93.2"/>
<path fill="#FFFFFF" d="M175.8,95c0,0.2,0,2.1,0,4c0,0.6,0,0.7,0,0.7c0,0,0.2,0,1,0c1.1,0,1.6-0.2,1.9-0.7c0.2-0.4,0.3-1.1,0.3-2.2
	c0-0.9-0.1-1.5-0.3-1.9c-0.3-0.7-0.8-0.8-2.1-0.8c-0.5,0-0.8,0-0.9,0C175.8,94.2,175.8,94.4,175.8,95 M173.3,93.1h4.6
	c2.8,0,4.7,0.4,5.7,1.4c0.5,0.5,0.7,1.1,0.7,1.9c0,2.1-2.2,3.2-5.1,3.6v0.1c2.5,0.4,3.8,0.9,4.4,3.2c0.4,1.5,0.4,1.7,0.8,1.7
	c0.3,0,0.6-0.6,0.9-1.7c0-0.1,0.9,0.2,0.8,0.3c-0.5,2-1.6,3.1-3.6,3.1c-1.2,0-2.3-0.3-2.9-0.9c-0.5-0.5-1-1.5-1.4-3.2
	c-0.5-1.9-0.6-2.1-1.7-2.1h-0.7c-0.1,0-0.2,0-0.2,0.1c0,1.7,0,3.6,0,3.9c0,0.5,0,0.7,0.1,0.8c0.1,0.1,0.3,0.1,1.5,0.2
	c0.1,0,0.1,0.9,0,0.9c-0.3,0-5.7-0.1-8.4,0c-0.1,0-0.1-0.9,0-0.9c1.1-0.1,1.4-0.1,1.5-0.2c0.1-0.1,0.1-0.3,0.2-1.5
	c0-2.6,0.1-3.8,0.1-4.6c0-0.8,0-2.7,0-3.4c0-1.4-0.1-1.6-0.2-1.7c-0.1-0.1-0.2-0.1-1.4-0.1c-0.1,0-0.1-0.9,0-0.9
	C170.8,93.2,172.1,93.1,173.3,93.1"/>
<path fill="#FFFFFF" d="M194.5,93.2h4c0.1,0,0.1,0.9,0,0.9c-1.3,0-1.4,0-1.5,0.1c-0.1,0.1-0.1,0.5-0.1,1.2c0,1.2,0.1,2.8,0.1,5.4
	c0,2.1-0.4,3.1-1.3,4c-1.2,1.2-3,1.9-5.5,1.9c-2,0-3.2-0.6-3.9-1.3c-0.7-0.7-1-1.4-1-2.3c0-1.6,1.1-2.9,2.8-2.9
	c1.2,0,2.2,0.9,2.2,2.1c0,0.8-0.2,1.3-0.6,1.7c-0.5,0.5-1.3,0.8-1.6,1.1c-0.2,0.2-0.1,0.3,0,0.5c0.2,0.2,0.5,0.4,1.2,0.4
	c1.1,0,1.9-0.5,2.3-1.2c0.3-0.5,0.4-1.2,0.4-2.2c0-2.4-0.1-4.3-0.1-7.1c0-0.9,0-1.1-0.1-1.2c-0.1-0.1-0.4-0.1-1.6-0.1
	c-0.1,0-0.1-0.9,0-0.9C191,93.1,192.8,93.2,194.5,93.2"/>
<path fill="#FFFFFF" d="M208,93.2c1.7,0,3.8,0,6-0.1c0.1,0,0.2,0.1,0.2,0.2c-0.1,1.4-0.1,3.7-0.2,5c0,0.1-0.7,0.1-0.8,0
	c-0.7-1.2-1.6-2.6-2.2-3.2c-0.8-0.8-1.3-1-2.9-1c-1,0-1.2,0-1.5,0l0,2.3l0,2.6c0.2,0,0.5,0,0.7,0c0.8,0,1.2-0.2,1.6-0.5
	c0.3-0.3,0.6-1,0.9-1.8c0-0.1,0.7-0.1,0.7,0c-0.1,2.1,0,4.4,0.1,5.8c0,0.1-0.7,0.1-0.7,0c-0.4-1-0.8-1.9-1.1-2.2
	c-0.3-0.3-0.6-0.3-1.3-0.3c-0.2,0-0.6,0-0.8,0c0,0.6,0,1.4,0,2.1c0,2.7,0,3,0.1,3.1c0.1,0.1,1.4,0.2,2.2,0.2h0.3c1,0,1.5-0.2,2-0.6
	c0.8-0.8,1.6-2.3,2.2-4.1c0-0.1,0.9,0,0.9,0.1c0,1.6-0.1,3.7-0.1,5.4c0,0.1,0,0.1-0.2,0.1c-3.3,0-4.3,0-6.6,0c-2.7,0-5.7,0-7.7,0
	c-0.1,0-0.2-1,0-1c1.4,0,1.5-0.1,1.5-0.1c0.1-0.1,0.2-1.9,0.2-4.2c0-1.1,0-2.3,0-4.2c0-2.3,0-2.7-0.1-2.8c-0.1-0.1-0.2-0.1-1.6-0.2
	c-0.1,0-0.2-0.9,0-0.9C201,93.2,207.2,93.2,208,93.2"/>
<rect x="118.1" y="115.5" fill="#FFFFFF" width="96.2" height="2.4"/>
<path fill="#FFFFFF" d="M160.4,66.5H147c3.8-6.5,5-8.7,9.8-16.8c1.6-3.2,7.1-12.2,9.6-16.5c1.8,3.2,5.1,9,6.6,11.8
	C167.3,51.1,163,58.4,160.4,66.5 M214.3,26.7c-10.2,0.1-19.7,2.9-27.9,7.7c-4.6-8.1-17-29.8-19.6-34.4
	c-13.1,22.4-40.5,69.4-48.6,83.3l43.2,0c0.7-28.7,24.1-52.5,53-52.9c0,0,0,0,0-0.1L214.3,26.7C214.3,26.8,214.3,26.7,214.3,26.7"/>
<path fill="#FFFFFF" d="M214.3,32.7c-27.8,0.4-50.3,22.8-50.6,50.6h2.4c0.3-26.4,21.8-47.8,48.2-48.2c0,0,0,0,0,0L214.3,32.7
	C214.3,32.8,214.3,32.7,214.3,32.7"/>
<path fill="#FFFFFF" d="M214.3,37.5c-25.2,0.4-45.6,20.7-45.9,45.9h1.6c0.3-24.3,20-44,44.3-44.3c0,0,0,0,0,0L214.3,37.5
	C214.3,37.5,214.3,37.5,214.3,37.5"/>
<path fill="#FFFFFF" d="M214.3,42.4c-22.4,0.4-40.7,18.5-41,40.9h1.2c0.1-8.5,2.9-16.2,7.4-22.7c4.3,7.6,8.8,15.2,13,22.7h19.3
	c-2.4-4.3-16.8-29.4-19.6-34.3c5.8-3.4,12.5-5.4,19.6-5.5c0,0,0,0,0,0L214.3,42.4C214.3,42.4,214.3,42.4,214.3,42.4"/>
<path fill="#FFFFFF" d="M259.2,47.4h-3.1l-0.4-3.2h-3.3l-0.4,3.2h-2.9l2.9-20.6h4.2L259.2,47.4z M252.8,41.4h2.6L254.1,31
	L252.8,41.4z"/>
<path fill="#FFFFFF" d="M270.4,40.4v3.3c0,2.6-1.3,3.8-3.8,3.8h-1.4c-2.6,0-3.8-1.3-3.8-3.8v-4.3h3v4.2c0,0.8,0.4,1.2,1.2,1.2h0.4
	c0.8,0,1.2-0.4,1.2-1.2v-2.8c0-0.8-0.3-1.2-0.9-1.7l-3.2-2.3c-1.4-1-1.8-2-1.8-3.5v-2.8c0-2.6,1.3-3.8,3.8-3.8h1.3
	c2.5,0,3.8,1.3,3.8,3.8v3.7h-3.1v-3.6c0-0.8-0.4-1.2-1.2-1.2h-0.4c-0.8,0-1.2,0.4-1.2,1.2v2.3c0,0.8,0.3,1.3,0.9,1.7l3.2,2.3
	C270,37.9,270.4,38.8,270.4,40.4"/>
<path fill="#FFFFFF" d="M282.2,40.4v3.3c0,2.6-1.3,3.8-3.8,3.8H277c-2.6,0-3.8-1.3-3.8-3.8v-4.3h3v4.2c0,0.8,0.4,1.2,1.2,1.2h0.4
	c0.8,0,1.2-0.4,1.2-1.2v-2.8c0-0.8-0.3-1.2-0.9-1.7l-3.2-2.3c-1.4-1-1.8-2-1.8-3.5v-2.8c0-2.6,1.3-3.8,3.8-3.8h1.3
	c2.5,0,3.8,1.3,3.8,3.8v3.7h-3.1v-3.6c0-0.8-0.4-1.2-1.2-1.2h-0.4c-0.8,0-1.2,0.4-1.2,1.2v2.3c0,0.8,0.3,1.3,0.9,1.7l3.2,2.3
	C281.8,37.9,282.2,38.8,282.2,40.4"/>
<path fill="#FFFFFF" d="M290.5,47.6h-1.7c-2.6,0-3.8-1.3-3.8-3.8V30.5c0-2.6,1.3-3.8,3.8-3.8h1.7c2.5,0,3.8,1.3,3.8,3.8v13.3
	C294.3,46.3,293.1,47.6,290.5,47.6 M290,29.5h-0.6c-0.8,0-1.2,0.4-1.2,1.2v13c0,0.8,0.4,1.2,1.2,1.2h0.6c0.8,0,1.2-0.4,1.2-1.2v-13
	C291.2,29.9,290.8,29.5,290,29.5"/>
<path fill="#FFFFFF" d="M306.4,39v4.8c0,2.6-1.3,3.8-3.8,3.8h-1.6c-2.5,0-3.8-1.3-3.8-3.8V30.5c0-2.6,1.3-3.8,3.8-3.8h1.5
	c2.6,0,3.8,1.2,3.8,3.8v4.2h-3.1v-4c0-0.8-0.4-1.2-1.2-1.2h-0.5c-0.8,0-1.2,0.4-1.2,1.2v13c0,0.8,0.4,1.2,1.2,1.2h0.6
	c0.8,0,1.2-0.4,1.2-1.2V39H306.4z"/>
<rect x="309.4" y="26.9" fill="#FFFFFF" width="3.1" height="20.5"/>
<path fill="#FFFFFF" d="M325.1,47.4H322l-0.4-3.2h-3.3l-0.4,3.2H315l2.9-20.6h4.2L325.1,47.4z M318.6,41.4h2.6L319.9,31L318.6,41.4z
	"/>
<path fill="#FFFFFF" d="M336.5,39v4.8c0,2.5-1.2,3.7-3.5,3.8l-0.6,2.7h-2.6l1.2-2.7c-2.5,0-3.8-1.3-3.8-3.8V30.5
	c0-2.6,1.3-3.8,3.8-3.8h1.5c2.6,0,3.8,1.2,3.8,3.8v4.2h-3.1v-4c0-0.8-0.4-1.2-1.2-1.2h-0.5c-0.8,0-1.2,0.4-1.2,1.2v13
	c0,0.8,0.4,1.2,1.2,1.2h0.6c0.8,0,1.2-0.4,1.2-1.2V39H336.5z"/>
<path fill="#FFFFFF" d="M345.7,47.4l-0.4-3.2H342l-0.4,3.2h-2.9l2.9-20.6h4.2l3,20.6H345.7z M342.1,22.8c0.6,0,0.9,0.1,1.4,0.4
	l0.9,0.6c0.3,0.2,0.4,0.2,0.6,0.2c0.2,0,0.3-0.1,0.3-0.4v-0.8h1.7v1.4c0,1-0.5,1.5-1.4,1.5h-0.3c-0.6,0-0.9-0.1-1.3-0.4l-0.9-0.5
	c-0.3-0.2-0.4-0.2-0.6-0.2c-0.2,0-0.3,0.1-0.3,0.4v0.7h-1.7v-1.4c0-1,0.5-1.5,1.4-1.5H342.1z M342.3,41.4h2.6L343.6,31L342.3,41.4z"
	/>
<path fill="#FFFFFF" d="M356.5,47.6h-1.7c-2.6,0-3.8-1.3-3.8-3.8V30.5c0-2.6,1.3-3.8,3.8-3.8h1.7c2.6,0,3.8,1.3,3.8,3.8v13.3
	C360.3,46.3,359.1,47.6,356.5,47.6 M356,29.5h-0.6c-0.8,0-1.2,0.4-1.2,1.2v13c0,0.8,0.4,1.2,1.2,1.2h0.6c0.8,0,1.2-0.4,1.2-1.2v-13
	C357.2,29.9,356.8,29.5,356,29.5"/>
<path fill="#FFFFFF" d="M377.1,39.8v3.8c0,2.6-1.3,3.8-3.8,3.8h-5.1V26.9h5.1c2.6,0,3.8,1.3,3.8,3.8v3c0,1.8-0.6,2.7-1.7,3.1
	C376.6,37.3,377.1,38.2,377.1,39.8 M372.8,29.7h-1.5v6h1.4c0.9,0,1.3-0.4,1.3-1.3v-3.5C374,30,373.6,29.7,372.8,29.7 M371.3,44.7
	h1.6c0.8,0,1.2-0.4,1.2-1.2v-3.9c0-0.9-0.4-1.3-1.3-1.3h-1.4V44.7z"/>
<path fill="#FFFFFF" d="M389.1,40.4v7h-3.1v-6.9c0-0.9-0.4-1.3-1.3-1.3h-1.4v8.2h-3.1V26.9h5.2c2.5,0,3.8,1.3,3.8,3.8v3.9
	c0,1.8-0.6,2.7-1.8,3.2C388.5,38.1,389.1,38.9,389.1,40.4 M384.7,29.7h-1.5v6.8h1.4c0.9,0,1.3-0.4,1.3-1.3v-4.3
	C385.9,30.1,385.5,29.7,384.7,29.7"/>
<path fill="#FFFFFF" d="M401.5,47.4h-3.1l-0.4-3.2h-3.3l-0.4,3.2h-2.9l2.9-20.6h4.2L401.5,47.4z M395.1,41.4h2.6L396.4,31
	L395.1,41.4z"/>
<path fill="#FFFFFF" d="M412.7,40.4v3.3c0,2.6-1.3,3.8-3.8,3.8h-1.4c-2.6,0-3.8-1.3-3.8-3.8v-4.3h3v4.2c0,0.8,0.4,1.2,1.2,1.2h0.4
	c0.8,0,1.2-0.4,1.2-1.2v-2.8c0-0.8-0.3-1.2-0.9-1.7l-3.2-2.3c-1.4-1-1.8-2-1.8-3.5v-2.8c0-2.6,1.3-3.8,3.8-3.8h1.3
	c2.5,0,3.8,1.3,3.8,3.8v3.7h-3.1v-3.6c0-0.8-0.4-1.2-1.2-1.2H408c-0.8,0-1.2,0.4-1.2,1.2v2.3c0,0.8,0.3,1.3,0.9,1.7l3.2,2.3
	C412.3,37.9,412.7,38.8,412.7,40.4"/>
<rect x="415.6" y="26.9" fill="#FFFFFF" width="3.1" height="20.5"/>
<polygon fill="#FFFFFF" points="425,26.9 425,44.6 428.5,44.6 428.5,47.4 421.9,47.4 421.9,26.9 "/>
<polygon fill="#FFFFFF" points="438,26.9 438,29.7 434.2,29.7 434.2,35.5 437.9,35.5 437.9,38.4 434.2,38.4 434.2,44.6 438.1,44.6 
	438.1,47.4 431.1,47.4 431.1,26.9 "/>
<rect x="441" y="26.9" fill="#FFFFFF" width="3.1" height="20.5"/>
<path fill="#FFFFFF" d="M456.2,40.4v7h-3.1v-6.9c0-0.9-0.4-1.3-1.3-1.3h-1.4v8.2h-3.1V26.9h5.2c2.5,0,3.8,1.3,3.8,3.8v3.9
	c0,1.8-0.6,2.7-1.8,3.2C455.7,38.1,456.2,38.9,456.2,40.4 M451.9,29.7h-1.5v6.8h1.4c0.9,0,1.3-0.4,1.3-1.3v-4.3
	C453,30.1,452.6,29.7,451.9,29.7"/>
<path fill="#FFFFFF" d="M468.7,47.4h-3.1l-0.4-3.2h-3.3l-0.4,3.2h-2.9l2.9-20.6h4.2L468.7,47.4z M462.2,41.4h2.6L463.5,31
	L462.2,41.4z"/>
<path fill="#FFFFFF" d="M249.8,62.1h4.7c3,0,4.5,1.5,4.5,4.5v11.6c0,3-1.4,4.5-4.5,4.5h-4.7V62.1z M252.9,79.8h1.1
	c1.2,0,1.8-0.6,1.8-1.8V66.7c0-1.2-0.6-1.8-1.8-1.8h-1.1V79.8z"/>
<polygon fill="#FFFFFF" points="269,62.1 269,64.9 265.1,64.9 265.1,70.7 268.8,70.7 268.8,73.6 265.1,73.6 265.1,79.8 269,79.8 
	269,82.6 262,82.6 262,62.1 "/>
<path fill="#FFFFFF" d="M285.9,74.2V79c0,2.6-1.3,3.8-3.8,3.8h-1.6c-2.6,0-3.8-1.3-3.8-3.8V65.7c0-2.6,1.3-3.8,3.8-3.8h1.5
	c2.6,0,3.8,1.2,3.8,3.8v4.2h-3.1v-4c0-0.8-0.4-1.2-1.2-1.2H281c-0.8,0-1.2,0.4-1.2,1.2v13c0,0.8,0.4,1.2,1.2,1.2h0.6
	c0.8,0,1.2-0.4,1.2-1.2v-4.6H285.9z"/>
<path fill="#FFFFFF" d="M294.2,82.8h-1.7c-2.6,0-3.8-1.3-3.8-3.8V65.7c0-2.6,1.3-3.8,3.8-3.8h1.7c2.5,0,3.8,1.3,3.8,3.8V79
	C298,81.5,296.8,82.8,294.2,82.8 M293.7,64.7h-0.6c-0.8,0-1.2,0.4-1.2,1.2v13c0,0.8,0.4,1.2,1.2,1.2h0.6c0.8,0,1.2-0.4,1.2-1.2v-13
	C294.9,65,294.5,64.7,293.7,64.7"/>
<polygon fill="#FFFFFF" points="314.4,62.1 314.4,82.6 311.3,82.6 311.3,67 309.1,82.6 306,82.6 303.7,66.8 303.7,82.6 301,82.6 
	301,62.1 305.7,62.1 307.7,77 309.7,62.1 "/>
<path fill="#FFFFFF" d="M326.5,79c0,2.6-1.3,3.8-3.8,3.8h-1.5c-2.6,0-3.8-1.3-3.8-3.8V62.1h3.1v16.7c0,0.8,0.4,1.2,1.2,1.2h0.5
	c0.8,0,1.2-0.4,1.2-1.2V62.1h3.1V79z"/>
<polygon fill="#FFFFFF" points="335.5,82.6 332.3,68.8 332.4,72.4 332.4,82.6 329.6,82.6 329.6,62.1 333.2,62.1 336.2,74.7 
	336.1,71.3 336.1,62.1 338.9,62.1 338.9,82.6 "/>
<rect x="342" y="62.1" fill="#FFFFFF" width="3.1" height="20.5"/>
<path fill="#FFFFFF" d="M357.4,74.2V79c0,2.6-1.3,3.8-3.8,3.8H352c-2.5,0-3.8-1.3-3.8-3.8V65.7c0-2.6,1.3-3.8,3.8-3.8h1.5
	c2.6,0,3.8,1.2,3.8,3.8v4.2h-3.1v-4c0-0.8-0.4-1.2-1.2-1.2h-0.5c-0.8,0-1.2,0.4-1.2,1.2v13c0,0.8,0.4,1.2,1.2,1.2h0.6
	c0.8,0,1.2-0.4,1.2-1.2v-4.6H357.4z"/>
<path fill="#FFFFFF" d="M369.6,82.6h-3.1l-0.4-3.2h-3.3l-0.4,3.2h-2.9l2.9-20.6h4.2L369.6,82.6z M363.2,76.6h2.6l-1.3-10.4
	L363.2,76.6z"/>
<path fill="#FFFFFF" d="M381,74.2V79c0,2.5-1.2,3.7-3.5,3.8l-0.6,2.7h-2.6l1.2-2.7c-2.5,0-3.8-1.3-3.8-3.8V65.7
	c0-2.6,1.3-3.8,3.8-3.8h1.5c2.6,0,3.8,1.2,3.8,3.8v4.2h-3.1v-4c0-0.8-0.4-1.2-1.2-1.2h-0.5c-0.8,0-1.2,0.4-1.2,1.2v13
	c0,0.8,0.4,1.2,1.2,1.2h0.6c0.8,0,1.2-0.4,1.2-1.2v-4.6H381z"/>
<path fill="#FFFFFF" d="M390.2,82.6l-0.4-3.2h-3.3l-0.4,3.2h-2.9l2.9-20.6h4.2l3,20.6H390.2z M386.6,58c0.6,0,0.9,0.1,1.4,0.4
	l0.9,0.6c0.3,0.2,0.4,0.2,0.6,0.2c0.2,0,0.3-0.1,0.3-0.4V58h1.7v1.4c0,1-0.5,1.5-1.4,1.5h-0.3c-0.6,0-0.9-0.1-1.3-0.4l-0.9-0.5
	c-0.3-0.2-0.4-0.2-0.6-0.2c-0.2,0-0.3,0.1-0.3,0.4v0.7H385v-1.4c0-1,0.5-1.5,1.4-1.5H386.6z M386.9,76.6h2.6l-1.3-10.4L386.9,76.6z"
	/>
<path fill="#FFFFFF" d="M401,82.8h-1.7c-2.6,0-3.8-1.3-3.8-3.8V65.7c0-2.6,1.3-3.8,3.8-3.8h1.7c2.5,0,3.8,1.3,3.8,3.8V79
	C404.9,81.5,403.6,82.8,401,82.8 M400.5,64.7h-0.6c-0.8,0-1.2,0.4-1.2,1.2v13c0,0.8,0.4,1.2,1.2,1.2h0.6c0.8,0,1.2-0.4,1.2-1.2v-13
	C401.7,65,401.3,64.7,400.5,64.7"/>
<polygon fill="#FFFFFF" points="256.8,97.3 256.8,100.1 252.9,100.1 252.9,105.9 256.6,105.9 256.6,108.8 252.9,108.8 252.9,114.9 
	256.8,114.9 256.8,117.8 249.8,117.8 249.8,97.3 "/>
<polygon fill="#FFFFFF" points="273,97.3 273,117.8 269.9,117.8 269.9,102.2 267.7,117.8 264.6,117.8 262.4,102 262.4,117.8 
	259.7,117.8 259.7,97.3 264.3,97.3 266.3,112.2 268.3,97.3 "/>
<path fill="#FFFFFF" d="M279.2,117.8H276V97.3h4.9c2.6,0,3.8,1.3,3.8,3.8v5.5c0,2.6-1.3,3.8-3.8,3.8h-1.8V117.8z M280.5,100h-1.3
	v7.6h1.3c0.8,0,1.2-0.4,1.2-1.2v-5.2C281.6,100.4,281.3,100,280.5,100"/>
<path fill="#FFFFFF" d="M296.5,110.8v7h-3.1v-6.9c0-0.9-0.4-1.3-1.3-1.3h-1.4v8.2h-3.1V97.3h5.2c2.6,0,3.8,1.3,3.8,3.8v3.9
	c0,1.8-0.6,2.7-1.8,3.2C296,108.5,296.5,109.3,296.5,110.8 M292.2,100.1h-1.5v6.8h1.4c0.9,0,1.3-0.4,1.3-1.3v-4.3
	C293.3,100.4,293,100.1,292.2,100.1"/>
<polygon fill="#FFFFFF" points="306.5,97.3 306.5,100.1 302.6,100.1 302.6,105.9 306.3,105.9 306.3,108.8 302.6,108.8 302.6,114.9 
	306.5,114.9 306.5,117.8 299.5,117.8 299.5,97.3 "/>
<path fill="#FFFFFF" d="M318.2,110.8v3.3c0,2.6-1.3,3.8-3.8,3.8h-1.4c-2.6,0-3.8-1.3-3.8-3.8v-4.3h3v4.2c0,0.8,0.4,1.2,1.2,1.2h0.4
	c0.8,0,1.2-0.4,1.2-1.2v-2.8c0-0.9-0.3-1.2-0.9-1.7l-3.2-2.3c-1.4-1-1.8-2-1.8-3.5v-2.8c0-2.6,1.3-3.8,3.8-3.8h1.3
	c2.5,0,3.8,1.3,3.8,3.8v3.7h-3.1V101c0-0.8-0.4-1.2-1.2-1.2h-0.4c-0.8,0-1.2,0.4-1.2,1.2v2.3c0,0.8,0.3,1.3,0.9,1.7l3.2,2.3
	C317.8,108.3,318.2,109.1,318.2,110.8"/>
<path fill="#FFFFFF" d="M330.4,117.8h-3.1l-0.4-3.2h-3.3l-0.4,3.2h-2.9l2.9-20.6h4.2L330.4,117.8z M324,111.8h2.6l-1.3-10.4
	L324,111.8z"/>
<path fill="#FFFFFF" d="M341.9,110.8v7h-3.1v-6.9c0-0.9-0.4-1.3-1.3-1.3H336v8.2h-3.1V97.3h5.2c2.6,0,3.8,1.3,3.8,3.8v3.9
	c0,1.8-0.6,2.7-1.8,3.2C341.4,108.5,341.9,109.3,341.9,110.8 M337.6,100.1H336v6.8h1.4c0.9,0,1.3-0.4,1.3-1.3v-4.3
	C338.7,100.4,338.4,100.1,337.6,100.1"/>
<rect x="344.9" y="97.3" fill="#FFFFFF" width="3.1" height="20.5"/>
<path fill="#FFFFFF" d="M360.6,117.8h-3.1l-0.4-3.2h-3.3l-0.4,3.2h-2.9l2.9-20.6h4.2L360.6,117.8z M354.2,111.8h2.6l-1.3-10.4
	L354.2,111.8z"/>
<polygon fill="#FFFFFF" points="366.2,97.3 366.2,114.9 369.7,114.9 369.7,117.8 363.1,117.8 363.1,97.3 "/>
<g>
	<path fill="#FFFFFF" d="M1.1,26.3h9.4v4.3H6.7v4.1h3.5v4.1H6.7v4.8h4.1v4.3H1.1V26.3z"/>
	<path fill="#FFFFFF" d="M29.8,26.3v21.6h-4.9l0-14.6l-2,14.6h-3.5l-2.1-14.3l0,14.3h-4.9V26.3h7.3c0.2,1.3,0.4,2.8,0.7,4.6l0.8,5.5
		l1.3-10.1H29.8z"/>
	<path fill="#FFFFFF" d="M32.1,26.3h5.7c1.5,0,2.7,0.1,3.5,0.4c0.8,0.2,1.4,0.6,1.9,1c0.4,0.5,0.7,1,0.8,1.6c0.1,0.6,0.2,1.6,0.2,3
		v1.9c0,1.4-0.1,2.4-0.4,3c-0.3,0.6-0.8,1.1-1.6,1.5c-0.8,0.3-1.8,0.5-3,0.5h-1.5v8.7h-5.6V26.3z M37.7,30v5.5c0.2,0,0.3,0,0.4,0
		c0.5,0,0.9-0.1,1.1-0.4s0.3-0.8,0.3-1.6v-1.8c0-0.7-0.1-1.2-0.3-1.4C38.9,30.1,38.4,30,37.7,30z"/>
	<path fill="#FFFFFF" d="M45.8,26.3h4c2.7,0,4.4,0.1,5.4,0.3c0.9,0.2,1.7,0.7,2.3,1.6c0.6,0.8,0.9,2.2,0.9,4c0,1.7-0.2,2.8-0.6,3.4
		c-0.4,0.6-1.2,0.9-2.5,1c1.1,0.3,1.9,0.6,2.2,1.1c0.4,0.5,0.6,0.9,0.7,1.3c0.1,0.4,0.1,1.5,0.1,3.2v5.7h-5.2v-7.2
		c0-1.2-0.1-1.9-0.3-2.1c-0.2-0.3-0.7-0.4-1.4-0.4v9.7h-5.6V26.3z M51.4,30v4.8c0.6,0,1.1-0.1,1.3-0.3c0.3-0.2,0.4-0.7,0.4-1.7v-1.2
		c0-0.7-0.1-1.1-0.4-1.3C52.5,30.1,52.1,30,51.4,30z"/>
	<path fill="#FFFFFF" d="M60.5,26.3h9.4v4.3h-3.8v4.1h3.5v4.1h-3.5v4.8h4.1v4.3h-9.7V26.3z"/>
	<path fill="#FFFFFF" d="M83.8,32.9h-5.2v-1.6c0-0.7-0.1-1.2-0.2-1.4c-0.1-0.2-0.4-0.3-0.7-0.3c-0.3,0-0.6,0.1-0.8,0.4
		s-0.3,0.7-0.3,1.3c0,0.7,0.1,1.3,0.3,1.6c0.2,0.4,0.7,0.8,1.6,1.3c2.5,1.5,4.1,2.7,4.7,3.7c0.6,1,1,2.5,1,4.6
		c0,1.5-0.2,2.7-0.5,3.4c-0.4,0.7-1.1,1.3-2.1,1.8c-1,0.5-2.2,0.7-3.6,0.7c-1.5,0-2.8-0.3-3.9-0.9s-1.8-1.3-2.1-2.2
		c-0.3-0.9-0.5-2.1-0.5-3.8v-1.4h5.2v2.6c0,0.8,0.1,1.3,0.2,1.6c0.1,0.2,0.4,0.3,0.8,0.3c0.4,0,0.7-0.1,0.8-0.4
		c0.2-0.3,0.3-0.7,0.3-1.3c0-1.3-0.2-2.1-0.5-2.5c-0.4-0.4-1.2-1-2.6-2c-1.4-0.9-2.3-1.6-2.8-2c-0.5-0.4-0.8-1-1.1-1.7
		c-0.3-0.7-0.4-1.7-0.4-2.8c0-1.7,0.2-2.9,0.6-3.6c0.4-0.8,1.1-1.4,2-1.8c0.9-0.4,2.1-0.6,3.4-0.6c1.5,0,2.7,0.2,3.7,0.7
		c1,0.5,1.7,1.1,2,1.8c0.3,0.7,0.5,1.9,0.5,3.7V32.9z"/>
	<path fill="#FFFFFF" d="M95.6,26.3l3.2,21.6h-5.7l-0.3-3.9h-2l-0.3,3.9h-5.8l2.9-21.6H95.6z M92.6,40.2c-0.3-2.4-0.6-5.5-0.9-9.1
		c-0.6,4.1-0.9,7.2-1.1,9.1H92.6z"/>
</g>
<g>
	<path fill="#FFFFFF" d="M9.4,52l2.7,18.1H7.3l-0.3-3.3H5.4l-0.3,3.3H0.2L2.6,52H9.4z M6.9,63.6c-0.2-2.1-0.5-4.6-0.7-7.6
		c-0.5,3.5-0.8,6-0.9,7.6H6.9z"/>
	<path fill="#FFFFFF" d="M22.8,57.5h-4.4v-1.3c0-0.6-0.1-1-0.2-1.2s-0.3-0.3-0.6-0.3c-0.3,0-0.5,0.1-0.6,0.3
		c-0.1,0.2-0.2,0.6-0.2,1.1c0,0.6,0.1,1.1,0.2,1.4c0.2,0.3,0.6,0.7,1.3,1.1c2.1,1.2,3.4,2.3,4,3.1s0.8,2.1,0.8,3.9
		c0,1.3-0.2,2.2-0.5,2.9c-0.3,0.6-0.9,1.1-1.8,1.5c-0.9,0.4-1.9,0.6-3,0.6c-1.3,0-2.3-0.2-3.2-0.7c-0.9-0.5-1.5-1.1-1.8-1.8
		c-0.3-0.7-0.4-1.8-0.4-3.1v-1.2H17v2.2c0,0.7,0.1,1.1,0.2,1.3c0.1,0.2,0.3,0.3,0.7,0.3s0.5-0.1,0.7-0.4c0.2-0.2,0.2-0.6,0.2-1.1
		c0-1.1-0.1-1.8-0.4-2.1c-0.3-0.3-1-0.9-2.2-1.6c-1.2-0.8-1.9-1.3-2.3-1.7c-0.4-0.3-0.7-0.8-0.9-1.5c-0.3-0.6-0.4-1.4-0.4-2.4
		c0-1.4,0.2-2.4,0.5-3c0.4-0.6,0.9-1.1,1.7-1.5c0.8-0.4,1.7-0.5,2.9-0.5c1.2,0,2.3,0.2,3.1,0.6c0.9,0.4,1.4,0.9,1.7,1.5
		c0.3,0.6,0.4,1.6,0.4,3.1V57.5z"/>
	<path fill="#FFFFFF" d="M34.6,57.5h-4.4v-1.3c0-0.6-0.1-1-0.2-1.2s-0.3-0.3-0.6-0.3c-0.3,0-0.5,0.1-0.6,0.3
		c-0.1,0.2-0.2,0.6-0.2,1.1c0,0.6,0.1,1.1,0.2,1.4c0.2,0.3,0.6,0.7,1.3,1.1c2.1,1.2,3.4,2.3,4,3.1s0.8,2.1,0.8,3.9
		c0,1.3-0.2,2.2-0.5,2.9c-0.3,0.6-0.9,1.1-1.8,1.5c-0.9,0.4-1.9,0.6-3,0.6c-1.3,0-2.3-0.2-3.2-0.7c-0.9-0.5-1.5-1.1-1.8-1.8
		c-0.3-0.7-0.4-1.8-0.4-3.1v-1.2h4.4v2.2c0,0.7,0.1,1.1,0.2,1.3c0.1,0.2,0.3,0.3,0.7,0.3s0.5-0.1,0.7-0.4c0.2-0.2,0.2-0.6,0.2-1.1
		c0-1.1-0.1-1.8-0.4-2.1c-0.3-0.3-1-0.9-2.2-1.6c-1.2-0.8-1.9-1.3-2.3-1.7c-0.4-0.3-0.7-0.8-0.9-1.5c-0.3-0.6-0.4-1.4-0.4-2.4
		c0-1.4,0.2-2.4,0.5-3c0.4-0.6,0.9-1.1,1.7-1.5c0.8-0.4,1.7-0.5,2.9-0.5c1.2,0,2.3,0.2,3.1,0.6c0.9,0.4,1.4,0.9,1.7,1.5
		c0.3,0.6,0.4,1.6,0.4,3.1V57.5z"/>
	<path fill="#FFFFFF" d="M47.3,62.6c0,1.8,0,3.1-0.1,3.9c-0.1,0.8-0.4,1.4-0.8,2.1c-0.5,0.6-1.1,1.1-1.8,1.4s-1.7,0.5-2.7,0.5
		c-1,0-1.8-0.2-2.6-0.5c-0.8-0.3-1.4-0.8-1.9-1.4c-0.5-0.6-0.7-1.3-0.8-2.1c-0.1-0.7-0.1-2.1-0.1-3.9v-3.1c0-1.8,0-3.1,0.1-3.9
		c0.1-0.8,0.4-1.4,0.8-2.1c0.5-0.6,1.1-1.1,1.8-1.4c0.8-0.3,1.7-0.5,2.7-0.5c1,0,1.8,0.2,2.6,0.5c0.8,0.3,1.4,0.8,1.9,1.4
		s0.7,1.3,0.8,2.1c0.1,0.7,0.1,2.1,0.1,3.9V62.6z M42.6,56.6c0-0.8,0-1.4-0.1-1.6c-0.1-0.2-0.3-0.4-0.6-0.4c-0.2,0-0.4,0.1-0.6,0.3
		c-0.1,0.2-0.2,0.8-0.2,1.7v8.5c0,1.1,0,1.7,0.1,1.9c0.1,0.2,0.3,0.4,0.6,0.4c0.3,0,0.5-0.1,0.6-0.4s0.1-1,0.1-2V56.6z"/>
	<path fill="#FFFFFF" d="M60,59.9h-4.7v-3.1c0-0.9-0.1-1.5-0.2-1.7c-0.1-0.2-0.3-0.3-0.7-0.3c-0.4,0-0.6,0.1-0.7,0.4
		c-0.1,0.3-0.2,0.9-0.2,1.8v8.4c0,0.9,0.1,1.5,0.2,1.7s0.3,0.4,0.7,0.4c0.4,0,0.6-0.1,0.7-0.4c0.1-0.3,0.2-0.9,0.2-1.9v-2.3H60v0.7
		c0,1.9-0.1,3.2-0.4,4s-0.9,1.5-1.8,2.1c-0.9,0.6-2,0.9-3.3,0.9c-1.4,0-2.5-0.3-3.4-0.7c-0.9-0.5-1.5-1.2-1.8-2.1
		c-0.3-0.9-0.4-2.2-0.4-4v-5.3c0-1.3,0-2.3,0.1-2.9s0.4-1.3,0.8-1.9c0.4-0.6,1.1-1.1,1.8-1.4s1.7-0.5,2.7-0.5c1.4,0,2.5,0.3,3.4,0.8
		c0.9,0.5,1.5,1.2,1.8,2c0.3,0.8,0.4,2,0.4,3.7V59.9z"/>
	<path fill="#FFFFFF" d="M66.4,52v18.1h-4.7V52H66.4z"/>
	<path fill="#FFFFFF" d="M76.5,52l2.7,18.1h-4.8l-0.3-3.3h-1.7l-0.3,3.3h-4.9L69.6,52H76.5z M74,63.6c-0.2-2.1-0.5-4.6-0.7-7.6
		c-0.5,3.5-0.8,6-0.9,7.6H74z"/>
	<path fill="#FFFFFF" d="M79.9,52h3.5c2.3,0,3.8,0.1,4.6,0.3c0.8,0.2,1.4,0.6,1.8,1c0.4,0.5,0.7,1,0.8,1.6c0.1,0.6,0.2,1.7,0.2,3.5
		v6.3c0,1.6-0.1,2.7-0.2,3.3s-0.4,1-0.8,1.3c-0.4,0.3-0.8,0.5-1.4,0.6c-0.6,0.1-1.4,0.2-2.5,0.2h-5.9V52z M84.7,55.1V67
		c0.7,0,1.1-0.1,1.3-0.4c0.2-0.3,0.2-1,0.2-2.2v-7c0-0.8,0-1.3-0.1-1.6c-0.1-0.2-0.2-0.4-0.4-0.5C85.5,55.1,85.2,55.1,84.7,55.1z"/>
	<path fill="#FFFFFF" d="M100.6,52l2.7,18.1h-4.8l-0.3-3.3h-1.7l-0.3,3.3h-4.9L93.8,52H100.6z M98.1,63.6c-0.2-2.1-0.5-4.6-0.7-7.6
		c-0.5,3.5-0.8,6-0.9,7.6H98.1z"/>
</g>
</svg>
