
<svg xmlns="http://www.w3.org/2000/svg" xmlns:xlink="http://www.w3.org/1999/xlink" x="0px" y="0px" viewBox="0 0 1920 1080" xml:space="preserve">


<g id="bg">
	<g>
		<path d="M-11.5,177.4c0,9.7-2.9,16.8-8.6,21.4c-5.8,4.5-14.7,6.8-27,6.8h-41v-95h41c11,0,18.9,1.9,23.6,5.8
			c4.7,3.8,7.1,10.2,7.1,19.1c0,5.6-0.8,9.9-2.4,13c-1.6,3.1-4.3,5.3-8.2,6.7c5.4,1.2,9.3,3.6,11.7,7.3
			C-12.7,166-11.5,171-11.5,177.4z M-41.2,140.3c0-2.4-0.5-4.2-1.4-5.3c-1-1.1-2.6-1.7-4.8-1.7h-13.2v14.8h13.2
			c2.2,0,3.8-0.6,4.8-1.8C-41.7,145.1-41.2,143.1-41.2,140.3z M-38.9,174.7c0-2.7-0.6-4.7-1.9-5.8c-1.3-1.2-3.4-1.7-6.3-1.7h-13.5
			v14.8h13.5c2.9,0,5-0.6,6.3-1.7C-39.5,179.2-38.9,177.3-38.9,174.7z"/>
		<path d="M58.2,179.2v26.4H-3.3v-95h28v68.6H58.2z"/>
		<path d="M88.2,205.6H59.2l34.1-95h29.2l33,95h-28.8l-3.9-13.2H92L88.2,205.6z M104,151c-1.2,4.2-2.2,8-3.3,11.3l-2.4,8.3h18.2
			l-2.4-8.3l-6.8-23.5C106.3,142.7,105.2,146.8,104,151z"/>
		<path d="M200.3,180.9c4,0,8.4-0.4,13.1-1.2c4.7-0.8,8.9-1.9,12.5-3.2v24.8c-5.6,2.2-10.6,3.8-15.1,4.6c-4.5,0.9-9.2,1.3-14.2,1.3
			c-9.1,0-16.3-1-21.6-3c-5.3-2-9.5-5.1-12.6-9.5c-2.6-3.8-4.6-8.8-5.9-14.8c-1.3-6.1-2-13.4-2-22c0-16.9,3.7-29.2,11.2-37.1
			c7.5-7.9,19.4-11.8,35.7-11.8c4.6,0,8.8,0.1,12.4,0.3c3.6,0.2,6.9,0.6,9.8,1.1v24.7c-3.2-0.2-6.6-0.4-10.1-0.5
			c-3.5-0.1-7.5-0.2-11.8-0.2c-7.4,0-12.2,1.6-14.5,4.9c-2.3,3.3-3.5,9.5-3.5,18.6c0,8.6,1.1,14.5,3.3,17.9
			C189.2,179.2,193.6,180.9,200.3,180.9z"/>
		<path d="M291.4,156.5l32.1,49.1h-35l-21.5-37.1h-5v37.1h-28v-95h28v35.7h5l22.1-35.7h33.3L291.4,156.5z"/>
		<path d="M-3.9,236.2v95h-26.5l-31.5-47.1v47.1h-26.2v-95h26.2l31.8,49.7v-49.7H-3.9z"/>
		<path d="M96.5,283.7c0,17.4-3.6,29.9-10.8,37.6c-7.2,7.7-18.9,11.6-34.9,11.6c-16.7,0-28.4-3.7-35.3-11.1
			c-6.9-7.4-10.3-20.1-10.3-38.2c0-17.2,3.6-29.6,10.8-37.3c7.2-7.7,18.8-11.6,34.8-11.6c16.7,0,28.4,3.7,35.4,11
			C93,253,96.5,265.7,96.5,283.7z M33.6,283.7c0,9,1.1,15,3.3,18.2c2.2,3.1,6.8,4.7,13.9,4.7c7.2,0,11.8-1.5,14-4.6
			c2.2-3.1,3.3-9.2,3.3-18.3c0-9.3-1.1-15.5-3.3-18.7c-2.2-3.2-6.9-4.8-13.9-4.8c-7.1,0-11.7,1.6-13.9,4.8
			C34.7,268.1,33.6,274.4,33.6,283.7z"/>
		<path d="M127,331.2l-31.8-95H126l12.6,45.9c0.6,2.3,1.4,5.8,2.5,10.4c1.1,4.6,2.2,9.9,3.4,16c1.3-6.7,2.4-12.1,3.3-16.4
			c0.9-4.3,1.7-7.5,2.3-9.6l12.3-46.2h29.8l-31.5,95H127z"/>
		<path d="M263.9,305.9v25.3h-66.3v-95h65v24.7h-37v10.8h31.4v23h-31.4v11.2H263.9z"/>
		<path d="M372,236.2v95h-26.4v-50.4l-12.4,32.6h-22l-12-32.4v50.3h-26.2v-95h34.1l15.6,42.4l16.4-42.4H372z"/>
		<path d="M460.3,303c0,9.7-2.9,16.8-8.6,21.4c-5.8,4.5-14.7,6.8-27,6.8h-41v-95h41c11,0,18.9,1.9,23.6,5.8
			c4.7,3.8,7.1,10.2,7.1,19.1c0,5.6-0.8,9.9-2.4,13c-1.6,3.1-4.3,5.3-8.2,6.7c5.4,1.2,9.3,3.6,11.7,7.3
			C459.1,291.7,460.3,296.7,460.3,303z M430.6,265.9c0-2.4-0.5-4.2-1.4-5.3c-1-1.1-2.6-1.7-4.8-1.7h-13.2v14.8h13.2
			c2.2,0,3.8-0.6,4.8-1.8C430.2,270.8,430.6,268.8,430.6,265.9z M432.9,300.3c0-2.7-0.6-4.7-1.9-5.8c-1.3-1.2-3.4-1.7-6.3-1.7h-13.5
			v14.8h13.5c2.9,0,5-0.6,6.3-1.7C432.3,304.8,432.9,302.9,432.9,300.3z"/>
		<path d="M534.8,305.9v25.3h-66.3v-95h65v24.7h-37v10.8h31.4v23h-31.4v11.2H534.8z"/>
		<path d="M572.1,301.5v29.7h-28v-95h35.6c15.2,0,26,2.6,32.3,7.6c6.3,5.1,9.5,13.7,9.5,25.7c0,7.2-1.4,13.1-4.2,17.7
			c-2.8,4.6-7,8.1-12.6,10.5l20.8,33.5h-32.1l-15.9-29.7H572.1z M592.9,270c0-3.1-0.9-5.4-2.6-6.7c-1.7-1.3-4.8-2-9.2-2h-8.9V280
			h8.9c4.4,0,7.5-0.8,9.2-2.3C592,276.2,592.9,273.7,592.9,270z"/>
		<path d="M-332.5-73.6c0,9.7-2.9,16.8-8.6,21.4c-5.8,4.5-14.7,6.8-27,6.8h-41v-95h41c11,0,18.9,1.9,23.6,5.8
			c4.7,3.8,7.1,10.2,7.1,19.1c0,5.6-0.8,9.9-2.4,13c-1.6,3.1-4.3,5.3-8.2,6.7c5.4,1.2,9.3,3.6,11.7,7.3
			C-333.7-85-332.5-80-332.5-73.6z M-362.2-110.7c0-2.4-0.5-4.2-1.4-5.3c-1-1.1-2.6-1.7-4.8-1.7h-13.2v14.8h13.2
			c2.2,0,3.8-0.6,4.8-1.8C-362.7-105.9-362.2-107.9-362.2-110.7z M-359.9-76.3c0-2.7-0.6-4.7-1.9-5.8c-1.3-1.2-3.4-1.7-6.3-1.7
			h-13.5v14.8h13.5c2.9,0,5-0.6,6.3-1.7C-360.5-71.8-359.9-73.7-359.9-76.3z"/>
		<path d="M-262.8-71.8v26.4h-61.5v-95h28v68.6H-262.8z"/>
		<path d="M-232.8-45.4h-28.9l34.1-95h29.2l33,95h-28.8l-3.9-13.2H-229L-232.8-45.4z M-217-100c-1.2,4.2-2.2,8-3.3,11.3l-2.4,8.3
			h18.2l-2.4-8.3l-6.8-23.5C-214.7-108.3-215.8-104.2-217-100z"/>
		<path d="M-120.7-70.1c4,0,8.4-0.4,13.1-1.2c4.7-0.8,8.9-1.9,12.5-3.2v24.8c-5.6,2.2-10.6,3.8-15.1,4.6c-4.5,0.9-9.2,1.3-14.2,1.3
			c-9.1,0-16.3-1-21.6-3c-5.3-2-9.5-5.1-12.6-9.5c-2.6-3.8-4.6-8.8-5.9-14.8c-1.3-6.1-2-13.4-2-22c0-16.9,3.7-29.2,11.2-37.1
			c7.5-7.9,19.4-11.8,35.7-11.8c4.6,0,8.8,0.1,12.4,0.3c3.6,0.2,6.9,0.6,9.8,1.1v24.7c-3.2-0.2-6.6-0.4-10.1-0.5
			c-3.5-0.1-7.5-0.2-11.8-0.2c-7.4,0-12.2,1.6-14.5,4.9c-2.3,3.3-3.5,9.5-3.5,18.6c0,8.6,1.1,14.5,3.3,17.9
			C-131.8-71.8-127.4-70.1-120.7-70.1z"/>
		<path d="M-29.6-94.5L2.6-45.4h-35l-21.5-37.1h-5v37.1h-28v-95h28v35.7h5l22.1-35.7H1.5L-29.6-94.5z"/>
		<path d="M-324.9-14.8v95h-26.5l-31.5-47.1v47.1h-26.2v-95h26.2l31.8,49.7v-49.7H-324.9z"/>
		<path d="M-224.5,32.7c0,17.4-3.6,29.9-10.8,37.6c-7.2,7.7-18.9,11.6-34.9,11.6c-16.7,0-28.4-3.7-35.3-11.1
			c-6.9-7.4-10.3-20.1-10.3-38.2c0-17.2,3.6-29.6,10.8-37.3c7.2-7.7,18.8-11.6,34.8-11.6c16.7,0,28.4,3.7,35.4,11
			C-228,2-224.5,14.7-224.5,32.7z M-287.4,32.7c0,9,1.1,15,3.3,18.2c2.2,3.1,6.8,4.7,13.9,4.7c7.2,0,11.8-1.5,14-4.6
			c2.2-3.1,3.3-9.2,3.3-18.3c0-9.3-1.1-15.5-3.3-18.7c-2.2-3.2-6.9-4.8-13.9-4.8c-7.1,0-11.7,1.6-13.9,4.8
			C-286.3,17.1-287.4,23.4-287.4,32.7z"/>
		<path d="M-194,80.2l-31.8-95h30.9l12.6,45.9c0.6,2.3,1.4,5.8,2.5,10.4c1.1,4.6,2.2,9.9,3.4,16c1.3-6.7,2.4-12.1,3.3-16.4
			c0.9-4.3,1.7-7.5,2.3-9.6l12.3-46.2h29.8l-31.5,95H-194z"/>
		<path d="M-57.1,54.9v25.3h-66.3v-95h65V9.9h-37v10.8h31.4v23h-31.4v11.2H-57.1z"/>
		<path d="M51-14.8v95H24.7V29.8L12.2,62.3h-22l-12-32.4v50.3h-26.2v-95h34.1L1.8,27.7l16.4-42.4H51z"/>
		<path d="M139.3,52c0,9.7-2.9,16.8-8.6,21.4c-5.8,4.5-14.7,6.8-27,6.8h-41v-95h41c11,0,18.9,1.9,23.6,5.8
			c4.7,3.8,7.1,10.2,7.1,19.1c0,5.6-0.8,9.9-2.4,13c-1.6,3.1-4.3,5.3-8.2,6.7c5.4,1.2,9.3,3.6,11.7,7.3
			C138.1,40.7,139.3,45.7,139.3,52z M109.6,14.9c0-2.4-0.5-4.2-1.4-5.3c-1-1.1-2.6-1.7-4.8-1.7H90.2v14.8h13.2
			c2.2,0,3.8-0.6,4.8-1.8C109.2,19.8,109.6,17.8,109.6,14.9z M111.9,49.3c0-2.7-0.6-4.7-1.9-5.8c-1.3-1.2-3.4-1.7-6.3-1.7H90.2v14.8
			h13.5c2.9,0,5-0.6,6.3-1.7C111.3,53.8,111.9,51.9,111.9,49.3z"/>
		<path d="M213.8,54.9v25.3h-66.3v-95h65V9.9h-37v10.8h31.4v23h-31.4v11.2H213.8z"/>
		<path d="M251.1,50.5v29.7h-28v-95h35.6c15.2,0,26,2.6,32.3,7.6c6.3,5.1,9.5,13.7,9.5,25.7c0,7.2-1.4,13.1-4.2,17.7
			c-2.8,4.6-7,8.1-12.6,10.5l20.8,33.5h-32.1l-15.9-29.7H251.1z M271.9,19c0-3.1-0.9-5.4-2.6-6.7c-1.7-1.3-4.8-2-9.2-2h-8.9V29h8.9
			c4.4,0,7.5-0.8,9.2-2.3C271,25.2,271.9,22.7,271.9,19z"/>
		<path d="M1183.5,175.4c0,9.7-2.9,16.8-8.6,21.4c-5.8,4.5-14.7,6.8-27,6.8h-41v-95h41c11,0,18.9,1.9,23.6,5.8
			c4.7,3.8,7.1,10.2,7.1,19.1c0,5.6-0.8,9.9-2.4,13c-1.6,3.1-4.3,5.3-8.2,6.7c5.4,1.2,9.3,3.6,11.7,7.3
			C1182.3,164,1183.5,169,1183.5,175.4z M1153.8,138.3c0-2.4-0.5-4.2-1.4-5.3c-1-1.1-2.6-1.7-4.8-1.7h-13.2v14.8h13.2
			c2.2,0,3.8-0.6,4.8-1.8C1153.3,143.1,1153.8,141.1,1153.8,138.3z M1156.1,172.7c0-2.7-0.6-4.7-1.9-5.8c-1.3-1.2-3.4-1.7-6.3-1.7
			h-13.5v14.8h13.5c2.9,0,5-0.6,6.3-1.7C1155.5,177.2,1156.1,175.3,1156.1,172.7z"/>
		<path d="M1253.2,177.2v26.4h-61.5v-95h28v68.6H1253.2z"/>
		<path d="M1283.2,203.6h-28.9l34.1-95h29.2l33,95h-28.8l-3.9-13.2H1287L1283.2,203.6z M1299,149c-1.2,4.2-2.2,8-3.3,11.3l-2.4,8.3
			h18.2l-2.4-8.3l-6.8-23.5C1301.3,140.7,1300.2,144.8,1299,149z"/>
		<path d="M1395.3,178.9c4,0,8.4-0.4,13.1-1.2c4.7-0.8,8.9-1.9,12.5-3.2v24.8c-5.6,2.2-10.6,3.8-15.1,4.6c-4.5,0.9-9.2,1.3-14.2,1.3
			c-9.1,0-16.3-1-21.6-3c-5.3-2-9.5-5.1-12.6-9.5c-2.6-3.8-4.6-8.8-5.9-14.8c-1.3-6.1-2-13.4-2-22c0-16.9,3.7-29.2,11.2-37.1
			c7.5-7.9,19.4-11.8,35.7-11.8c4.6,0,8.8,0.1,12.4,0.3c3.6,0.2,6.9,0.6,9.8,1.1v24.7c-3.2-0.2-6.6-0.4-10.1-0.5
			c-3.5-0.1-7.5-0.2-11.8-0.2c-7.4,0-12.2,1.6-14.5,4.9c-2.3,3.3-3.5,9.5-3.5,18.6c0,8.6,1.1,14.5,3.3,17.9
			C1384.2,177.2,1388.6,178.9,1395.3,178.9z"/>
		<path d="M1486.4,154.5l32.1,49.1h-35l-21.5-37.1h-5v37.1h-28v-95h28v35.7h5l22.1-35.7h33.3L1486.4,154.5z"/>
		<path d="M1941.5,429.4c0,9.7-2.9,16.8-8.6,21.4c-5.8,4.5-14.7,6.8-27,6.8h-41v-95h41c11,0,18.9,1.9,23.6,5.8
			c4.7,3.8,7.1,10.2,7.1,19.1c0,5.6-0.8,9.9-2.4,13c-1.6,3.1-4.3,5.3-8.2,6.7c5.4,1.2,9.3,3.6,11.7,7.3
			C1940.3,418,1941.5,423,1941.5,429.4z M1911.8,392.3c0-2.4-0.5-4.2-1.4-5.3c-1-1.1-2.6-1.7-4.8-1.7h-13.2v14.8h13.2
			c2.2,0,3.8-0.6,4.8-1.8C1911.3,397.1,1911.8,395.1,1911.8,392.3z M1914.1,426.7c0-2.7-0.6-4.7-1.9-5.8c-1.3-1.2-3.4-1.7-6.3-1.7
			h-13.5v14.8h13.5c2.9,0,5-0.6,6.3-1.7C1913.5,431.2,1914.1,429.3,1914.1,426.7z"/>
		<path d="M2011.2,431.2v26.4h-61.5v-95h28v68.6H2011.2z"/>
		<path d="M2041.2,457.6h-28.9l34.1-95h29.2l33,95h-28.8l-3.9-13.2H2045L2041.2,457.6z M2057,403c-1.2,4.2-2.2,8-3.3,11.3l-2.4,8.3
			h18.2l-2.4-8.3l-6.8-23.5C2059.3,394.7,2058.2,398.8,2057,403z"/>
		<path d="M2153.3,432.9c4,0,8.4-0.4,13.1-1.2c4.7-0.8,8.9-1.9,12.5-3.2v24.8c-5.6,2.2-10.6,3.8-15.1,4.6c-4.5,0.9-9.2,1.3-14.2,1.3
			c-9.1,0-16.3-1-21.6-3c-5.3-2-9.5-5.1-12.6-9.5c-2.6-3.8-4.6-8.8-5.9-14.8c-1.3-6.1-2-13.4-2-22c0-16.9,3.7-29.2,11.2-37.1
			c7.5-7.9,19.4-11.8,35.7-11.8c4.6,0,8.8,0.1,12.4,0.3c3.6,0.2,6.9,0.6,9.8,1.1v24.7c-3.2-0.2-6.6-0.4-10.1-0.5
			c-3.5-0.1-7.5-0.2-11.8-0.2c-7.4,0-12.2,1.6-14.5,4.9c-2.3,3.3-3.5,9.5-3.5,18.6c0,8.6,1.1,14.5,3.3,17.9
			C2142.2,431.2,2146.6,432.9,2153.3,432.9z"/>
		<path d="M2244.4,408.5l32.1,49.1h-35l-21.5-37.1h-5v37.1h-28v-95h28v35.7h5l22.1-35.7h33.3L2244.4,408.5z"/>
		<path d="M1634.5,51.4c0,9.7-2.9,16.8-8.6,21.4c-5.8,4.5-14.7,6.8-27,6.8h-41v-95h41c11,0,18.9,1.9,23.6,5.8
			c4.7,3.8,7.1,10.2,7.1,19.1c0,5.6-0.8,9.9-2.4,13c-1.6,3.1-4.3,5.3-8.2,6.7c5.4,1.2,9.3,3.6,11.7,7.3
			C1633.3,40,1634.5,45,1634.5,51.4z M1604.8,14.3c0-2.4-0.5-4.2-1.4-5.3c-1-1.1-2.6-1.7-4.8-1.7h-13.2v14.8h13.2
			c2.2,0,3.8-0.6,4.8-1.8C1604.3,19.1,1604.8,17.1,1604.8,14.3z M1607.1,48.7c0-2.7-0.6-4.7-1.9-5.8c-1.3-1.2-3.4-1.7-6.3-1.7h-13.5
			v14.8h13.5c2.9,0,5-0.6,6.3-1.7C1606.5,53.2,1607.1,51.3,1607.1,48.7z"/>
		<path d="M1704.2,53.2v26.4h-61.5v-95h28v68.6H1704.2z"/>
		<path d="M1734.2,79.6h-28.9l34.1-95h29.2l33,95h-28.8l-3.9-13.2H1738L1734.2,79.6z M1750,25c-1.2,4.2-2.2,8-3.3,11.3l-2.4,8.3
			h18.2l-2.4-8.3l-6.8-23.5C1752.3,16.7,1751.2,20.8,1750,25z"/>
		<path d="M1846.3,54.9c4,0,8.4-0.4,13.1-1.2c4.7-0.8,8.9-1.9,12.5-3.2v24.8c-5.6,2.2-10.6,3.8-15.1,4.6c-4.5,0.9-9.2,1.3-14.2,1.3
			c-9.1,0-16.3-1-21.6-3c-5.3-2-9.5-5.1-12.6-9.5c-2.6-3.8-4.6-8.8-5.9-14.8c-1.3-6.1-2-13.4-2-22c0-16.9,3.7-29.2,11.2-37.1
			c7.5-7.9,19.4-11.8,35.7-11.8c4.6,0,8.8,0.1,12.4,0.3c3.6,0.2,6.9,0.6,9.8,1.1V9.1c-3.2-0.2-6.6-0.4-10.1-0.5
			c-3.5-0.1-7.5-0.2-11.8-0.2c-7.4,0-12.2,1.6-14.5,4.9c-2.3,3.3-3.5,9.5-3.5,18.6c0,8.6,1.1,14.5,3.3,17.9
			C1835.2,53.2,1839.6,54.9,1846.3,54.9z"/>
		<path d="M1937.4,30.5l32.1,49.1h-35l-21.5-37.1h-5v37.1h-28v-95h28v35.7h5l22.1-35.7h33.3L1937.4,30.5z"/>
		<path d="M1642.1,110.2v95h-26.5l-31.5-47.1v47.1h-26.2v-95h26.2l31.8,49.7v-49.7H1642.1z"/>
		<path d="M1742.5,157.7c0,17.4-3.6,29.9-10.8,37.6c-7.2,7.7-18.9,11.6-34.9,11.6c-16.7,0-28.4-3.7-35.3-11.1
			c-6.9-7.4-10.3-20.1-10.3-38.2c0-17.2,3.6-29.6,10.8-37.3c7.2-7.7,18.8-11.6,34.8-11.6c16.7,0,28.4,3.7,35.4,11
			C1739,127,1742.5,139.7,1742.5,157.7z M1679.6,157.7c0,9,1.1,15,3.3,18.2c2.2,3.1,6.8,4.7,13.9,4.7c7.2,0,11.8-1.5,14-4.6
			c2.2-3.1,3.3-9.2,3.3-18.3c0-9.3-1.1-15.5-3.3-18.7c-2.2-3.2-6.9-4.8-13.9-4.8c-7.1,0-11.7,1.6-13.9,4.8
			C1680.7,142.1,1679.6,148.4,1679.6,157.7z"/>
		<path d="M1773,205.2l-31.8-95h30.9l12.6,45.9c0.6,2.3,1.4,5.8,2.5,10.4c1.1,4.6,2.2,9.9,3.4,16c1.3-6.7,2.4-12.1,3.3-16.4
			c0.9-4.3,1.7-7.5,2.3-9.6l12.3-46.2h29.8l-31.5,95H1773z"/>
		<path d="M1909.9,179.9v25.3h-66.3v-95h65v24.7h-37v10.8h31.4v23h-31.4v11.2H1909.9z"/>
		<path d="M2018,110.2v95h-26.4v-50.4l-12.4,32.6h-22l-12-32.4v50.3h-26.2v-95h34.1l15.6,42.4l16.4-42.4H2018z"/>
		<path d="M2106.3,177c0,9.7-2.9,16.8-8.6,21.4c-5.8,4.5-14.7,6.8-27,6.8h-41v-95h41c11,0,18.9,1.9,23.6,5.8
			c4.7,3.8,7.1,10.2,7.1,19.1c0,5.6-0.8,9.9-2.4,13c-1.6,3.1-4.3,5.3-8.2,6.7c5.4,1.2,9.3,3.6,11.7,7.3
			C2105.1,165.7,2106.3,170.7,2106.3,177z M2076.6,139.9c0-2.4-0.5-4.2-1.4-5.3c-1-1.1-2.6-1.7-4.8-1.7h-13.2v14.8h13.2
			c2.2,0,3.8-0.6,4.8-1.8C2076.2,144.8,2076.6,142.8,2076.6,139.9z M2078.9,174.3c0-2.7-0.6-4.7-1.9-5.8c-1.3-1.2-3.4-1.7-6.3-1.7
			h-13.5v14.8h13.5c2.9,0,5-0.6,6.3-1.7C2078.3,178.8,2078.9,176.9,2078.9,174.3z"/>
		<path d="M2180.8,179.9v25.3h-66.3v-95h65v24.7h-37v10.8h31.4v23h-31.4v11.2H2180.8z"/>
		<path d="M2218.1,175.5v29.7h-28v-95h35.6c15.2,0,26,2.6,32.3,7.6c6.3,5.1,9.5,13.7,9.5,25.7c0,7.2-1.4,13.1-4.2,17.7
			c-2.8,4.6-7,8.1-12.6,10.5l20.8,33.5h-32.1l-15.9-29.7H2218.1z M2238.9,144c0-3.1-0.9-5.4-2.6-6.7c-1.7-1.3-4.8-2-9.2-2h-8.9V154
			h8.9c4.4,0,7.5-0.8,9.2-2.3C2238,150.2,2238.9,147.7,2238.9,144z"/>
		<path d="M419.3,51.5c0,9.7-2.9,16.8-8.6,21.4c-5.8,4.5-14.7,6.8-27,6.8h-41v-95h41c11,0,18.9,1.9,23.6,5.8
			c4.7,3.8,7.1,10.2,7.1,19.1c0,5.6-0.8,9.9-2.4,13c-1.6,3.1-4.3,5.3-8.2,6.7c5.4,1.2,9.3,3.6,11.7,7.3
			C418.1,40.1,419.3,45.1,419.3,51.5z M389.6,14.4c0-2.4-0.5-4.2-1.4-5.3c-1-1.1-2.6-1.7-4.8-1.7h-13.2v14.8h13.2
			c2.2,0,3.8-0.6,4.8-1.8C389.1,19.2,389.6,17.2,389.6,14.4z M391.9,48.8c0-2.7-0.6-4.7-1.9-5.8c-1.3-1.2-3.4-1.7-6.3-1.7h-13.5V56
			h13.5c2.9,0,5-0.6,6.3-1.7C391.3,53.3,391.9,51.4,391.9,48.8z"/>
		<path d="M489,53.3v26.4h-61.5v-95h28v68.6H489z"/>
		<path d="M519,79.7H490l34.1-95h29.2l33,95h-28.8l-3.9-13.2h-30.9L519,79.7z M534.8,25.1c-1.2,4.2-2.2,8-3.3,11.3l-2.4,8.3h18.2
			l-2.4-8.3L538,12.9C537,16.8,536,20.9,534.8,25.1z"/>
		<path d="M631,55c4,0,8.4-0.4,13.1-1.2c4.7-0.8,8.9-1.9,12.5-3.2v24.8c-5.6,2.2-10.6,3.8-15.1,4.6c-4.5,0.9-9.2,1.3-14.2,1.3
			c-9.1,0-16.3-1-21.6-3c-5.3-2-9.5-5.1-12.6-9.5c-2.6-3.8-4.6-8.8-5.9-14.8c-1.3-6.1-2-13.4-2-22c0-16.9,3.7-29.2,11.2-37.1
			c7.5-7.9,19.4-11.8,35.7-11.8c4.6,0,8.8,0.1,12.4,0.3c3.6,0.2,6.9,0.6,9.8,1.1V9.2c-3.2-0.2-6.6-0.4-10.1-0.5
			c-3.5-0.1-7.5-0.2-11.8-0.2c-7.4,0-12.2,1.6-14.5,4.9c-2.3,3.3-3.5,9.5-3.5,18.6c0,8.6,1.1,14.5,3.3,17.9
			C620,53.3,624.4,55,631,55z"/>
		<path d="M722.2,30.6l32.1,49.1h-35l-21.5-37.1h-5v37.1h-28v-95h28v35.7h5L720-15.3h33.3L722.2,30.6z"/>
		<path d="M426.9,110.3v95h-26.5l-31.5-47.1v47.1h-26.2v-95h26.2l31.8,49.7v-49.7H426.9z"/>
		<path d="M527.3,157.7c0,17.4-3.6,29.9-10.8,37.6c-7.2,7.7-18.9,11.6-34.9,11.6c-16.7,0-28.4-3.7-35.3-11.1
			c-6.9-7.4-10.3-20.1-10.3-38.2c0-17.2,3.6-29.6,10.8-37.3c7.2-7.7,18.8-11.6,34.8-11.6c16.7,0,28.4,3.7,35.4,11
			C523.8,127.1,527.3,139.8,527.3,157.7z M464.4,157.7c0,9,1.1,15,3.3,18.2c2.2,3.1,6.8,4.7,13.9,4.7c7.2,0,11.8-1.5,14-4.6
			c2.2-3.1,3.3-9.2,3.3-18.3c0-9.3-1.1-15.5-3.3-18.7c-2.2-3.2-6.9-4.8-13.9-4.8c-7.1,0-11.7,1.6-13.9,4.8
			C465.5,142.2,464.4,148.5,464.4,157.7z"/>
		<path d="M557.7,205.3l-31.8-95h30.9l12.6,45.9c0.6,2.3,1.4,5.8,2.5,10.4c1.1,4.6,2.2,9.9,3.4,16c1.3-6.7,2.4-12.1,3.3-16.4
			c0.9-4.3,1.7-7.5,2.3-9.6l12.3-46.2H623l-31.5,95H557.7z"/>
		<path d="M694.7,180v25.3h-66.3v-95h65V135h-37v10.8h31.4v23h-31.4V180H694.7z"/>
		<path d="M802.8,110.3v95h-26.4v-50.4L764,187.4h-22l-12-32.4v50.3h-26.2v-95H738l15.6,42.4l16.4-42.4H802.8z"/>
		<path d="M891.1,177.1c0,9.7-2.9,16.8-8.6,21.4c-5.8,4.5-14.7,6.8-27,6.8h-41v-95h41c11,0,18.9,1.9,23.6,5.8
			c4.7,3.8,7.1,10.2,7.1,19.1c0,5.6-0.8,9.9-2.4,13c-1.6,3.1-4.3,5.3-8.2,6.7c5.4,1.2,9.3,3.6,11.7,7.3
			C889.9,165.8,891.1,170.8,891.1,177.1z M861.4,140c0-2.4-0.5-4.2-1.4-5.3c-1-1.1-2.6-1.7-4.8-1.7H842v14.8h13.2
			c2.2,0,3.8-0.6,4.8-1.8C860.9,144.9,861.4,142.8,861.4,140z M863.7,174.4c0-2.7-0.6-4.7-1.9-5.8c-1.3-1.2-3.4-1.7-6.3-1.7H842
			v14.8h13.5c2.9,0,5-0.6,6.3-1.7C863.1,178.9,863.7,177,863.7,174.4z"/>
		<path d="M965.6,180v25.3h-66.3v-95h65V135h-37v10.8h31.4v23h-31.4V180H965.6z"/>
		<path d="M1002.9,175.6v29.7h-28v-95h35.6c15.2,0,26,2.6,32.3,7.6c6.3,5.1,9.5,13.7,9.5,25.7c0,7.2-1.4,13.1-4.2,17.7
			c-2.8,4.6-7,8.1-12.6,10.5l20.8,33.5h-32.1l-15.9-29.7H1002.9z M1023.6,144.1c0-3.1-0.9-5.4-2.6-6.7c-1.7-1.3-4.8-2-9.2-2h-8.9
			v18.6h8.9c4.4,0,7.5-0.8,9.2-2.3C1022.8,150.3,1023.6,147.7,1023.6,144.1z"/>
		<path d="M1040.5,560.1c0,9.8-2.9,17-8.7,21.6c-5.8,4.6-14.9,6.9-27.3,6.9H963v-96h41.5c11.1,0,19.1,1.9,23.9,5.8
			c4.8,3.9,7.2,10.3,7.2,19.3c0,5.6-0.8,10-2.5,13.1c-1.6,3.1-4.4,5.4-8.3,6.8c5.4,1.2,9.4,3.7,11.9,7.4
			C1039.2,548.7,1040.5,553.7,1040.5,560.1z M1010.5,522.6c0-2.5-0.5-4.2-1.5-5.4c-1-1.1-2.6-1.7-4.8-1.7h-13.3v15h13.3
			c2.2,0,3.9-0.6,4.8-1.8C1010,527.5,1010.5,525.5,1010.5,522.6z M1012.7,557.4c0-2.8-0.6-4.7-1.9-5.9c-1.3-1.2-3.4-1.8-6.4-1.8
			h-13.6v15h13.6c3,0,5.1-0.6,6.4-1.7C1012.1,561.9,1012.7,560,1012.7,557.4z"/>
		<path d="M1110.9,562v26.7h-62.2v-96h28.3V562H1110.9z"/>
		<path d="M1141.3,588.6H1112l34.5-96h29.6l33.4,96h-29.1l-4-13.3h-31.2L1141.3,588.6z M1157.3,533.4c-1.2,4.2-2.3,8-3.3,11.4
			l-2.5,8.4h18.4l-2.5-8.4l-6.9-23.7C1159.5,525.1,1158.4,529.2,1157.3,533.4z"/>
		<path d="M1254.6,563.7c4.1,0,8.5-0.4,13.3-1.2c4.7-0.8,9-1.9,12.6-3.2v25.1c-5.6,2.2-10.7,3.8-15.2,4.7c-4.5,0.9-9.3,1.3-14.3,1.3
			c-9.2,0-16.5-1-21.8-3c-5.4-2-9.6-5.2-12.8-9.6c-2.7-3.9-4.6-8.9-6-15c-1.3-6.1-2-13.5-2-22.2c0-17.1,3.8-29.6,11.3-37.5
			c7.6-8,19.6-11.9,36.2-11.9c4.7,0,8.9,0.1,12.6,0.3c3.7,0.2,7,0.6,10,1.1v25c-3.3-0.2-6.7-0.4-10.3-0.5c-3.6-0.1-7.6-0.2-11.9-0.2
			c-7.5,0-12.4,1.7-14.7,5c-2.4,3.3-3.5,9.6-3.5,18.8c0,8.7,1.1,14.7,3.3,18.1C1243.4,562,1247.9,563.7,1254.6,563.7z"/>
		<path d="M1346.8,539l32.5,49.6h-35.4l-21.8-37.5h-5.1v37.5h-28.3v-96h28.3v36.2h5.1l22.4-36.2h33.7L1346.8,539z"/>
		<path d="M1048.1,619.7v96h-26.8l-31.9-47.6v47.6H963v-96h26.5l32.2,50.2v-50.2H1048.1z"/>
		<path d="M1149.7,667.6c0,17.6-3.7,30.3-11,38.1c-7.3,7.8-19.1,11.7-35.3,11.7c-16.9,0-28.7-3.7-35.7-11.2
			c-6.9-7.5-10.4-20.3-10.4-38.6c0-17.4,3.6-29.9,11-37.8c7.3-7.8,19-11.7,35.2-11.7c16.8,0,28.8,3.7,35.8,11.1
			C1146.2,636.6,1149.7,649.4,1149.7,667.6z M1086.1,667.6c0,9.1,1.1,15.2,3.3,18.4c2.2,3.2,6.9,4.7,14,4.7c7.2,0,12-1.6,14.2-4.7
			c2.2-3.1,3.3-9.3,3.3-18.5c0-9.4-1.1-15.7-3.4-18.9c-2.2-3.2-6.9-4.8-14.1-4.8c-7.1,0-11.8,1.6-14,4.8
			C1087.2,651.9,1086.1,658.2,1086.1,667.6z"/>
		<path d="M1180.5,715.7l-32.2-96h31.2l12.7,46.4c0.6,2.4,1.5,5.8,2.5,10.5c1.1,4.6,2.2,10,3.4,16.2c1.3-6.7,2.5-12.3,3.4-16.6
			c0.9-4.3,1.7-7.6,2.3-9.7l12.4-46.7h30.2l-31.9,96H1180.5z"/>
		<path d="M1319,690.1v25.6h-67.1v-96h65.7v25h-37.4v10.9h31.7v23.3h-31.7v11.3H1319z"/>
		<path d="M1428.3,619.7v96h-26.7v-51l-12.6,32.9h-22.2l-12.1-32.8v50.9h-26.5v-96h34.5l15.8,42.9l16.5-42.9H1428.3z"/>
		<path d="M1517.6,687.2c0,9.8-2.9,17-8.7,21.6c-5.8,4.6-14.9,6.9-27.3,6.9h-41.5v-96h41.5c11.1,0,19.1,1.9,23.9,5.8
			c4.8,3.9,7.2,10.3,7.2,19.3c0,5.6-0.8,10-2.5,13.1c-1.6,3.1-4.4,5.4-8.3,6.8c5.4,1.2,9.4,3.7,11.9,7.4
			C1516.4,675.7,1517.6,680.8,1517.6,687.2z M1487.6,649.7c0-2.5-0.5-4.2-1.5-5.4c-1-1.1-2.6-1.7-4.8-1.7H1468v15h13.3
			c2.2,0,3.9-0.6,4.8-1.8C1487.1,654.6,1487.6,652.5,1487.6,649.7z M1489.9,684.4c0-2.8-0.6-4.7-1.9-5.9c-1.3-1.2-3.4-1.8-6.4-1.8
			H1468v15h13.6c3,0,5.1-0.6,6.4-1.7C1489.3,689,1489.9,687.1,1489.9,684.4z"/>
		<path d="M1593,690.1v25.6h-67.1v-96h65.7v25h-37.4v10.9h31.7v23.3h-31.7v11.3H1593z"/>
		<path d="M1630.7,685.7v30h-28.3v-96h36c15.4,0,26.3,2.6,32.7,7.7c6.4,5.2,9.6,13.8,9.6,26c0,7.3-1.4,13.2-4.2,17.9
			c-2.8,4.7-7.1,8.2-12.8,10.6l21,33.9h-32.5l-16.1-30H1630.7z M1651.7,653.8c0-3.2-0.9-5.4-2.6-6.7c-1.7-1.3-4.9-2-9.3-2h-9v18.8h9
			c4.5,0,7.6-0.8,9.3-2.3C1650.8,660.1,1651.7,657.5,1651.7,653.8z"/>
		<path d="M1343.7,815.7c0,9.8-2.9,17-8.7,21.6c-5.8,4.6-14.9,6.9-27.3,6.9h-41.5v-96h41.5c11.1,0,19.1,1.9,23.9,5.8
			c4.8,3.9,7.2,10.3,7.2,19.3c0,5.6-0.8,10-2.5,13.1c-1.6,3.1-4.4,5.4-8.3,6.8c5.4,1.2,9.4,3.7,11.9,7.4
			C1342.5,804.2,1343.7,809.2,1343.7,815.7z M1313.7,778.1c0-2.5-0.5-4.2-1.5-5.4c-1-1.1-2.6-1.7-4.8-1.7h-13.3v15h13.3
			c2.2,0,3.9-0.6,4.8-1.8C1313.2,783,1313.7,781,1313.7,778.1z M1316,812.9c0-2.8-0.6-4.7-1.9-5.9c-1.3-1.2-3.4-1.8-6.4-1.8h-13.6
			v15h13.6c3,0,5.1-0.6,6.4-1.7C1315.4,817.5,1316,815.6,1316,812.9z"/>
		<path d="M1414.2,817.5v26.7H1352v-96h28.3v69.4H1414.2z"/>
		<path d="M1444.5,844.2h-29.3l34.5-96h29.6l33.4,96h-29.1l-4-13.3h-31.2L1444.5,844.2z M1460.5,788.9c-1.2,4.2-2.3,8-3.3,11.4
			l-2.5,8.4h18.4l-2.5-8.4l-6.9-23.7C1462.8,780.6,1461.7,784.7,1460.5,788.9z"/>
		<path d="M1557.9,819.2c4.1,0,8.5-0.4,13.3-1.2c4.7-0.8,9-1.9,12.6-3.2v25.1c-5.6,2.2-10.7,3.8-15.2,4.7c-4.5,0.9-9.3,1.3-14.3,1.3
			c-9.2,0-16.5-1-21.8-3c-5.4-2-9.6-5.2-12.8-9.6c-2.7-3.9-4.6-8.9-6-15c-1.3-6.1-2-13.5-2-22.2c0-17.1,3.8-29.6,11.3-37.5
			c7.6-8,19.6-11.9,36.2-11.9c4.7,0,8.9,0.1,12.6,0.3c3.7,0.2,7,0.6,10,1.1v25c-3.3-0.2-6.7-0.4-10.3-0.5c-3.6-0.1-7.6-0.2-11.9-0.2
			c-7.5,0-12.4,1.7-14.7,5c-2.4,3.3-3.5,9.6-3.5,18.8c0,8.7,1.1,14.7,3.3,18.1C1546.7,817.5,1551.1,819.2,1557.9,819.2z"/>
		<path d="M1650.1,794.5l32.5,49.6h-35.4l-21.8-37.5h-5.1v37.5H1592v-96h28.3v36.2h5.1l22.4-36.2h33.7L1650.1,794.5z"/>
		<path d="M1351.4,875.2v96h-26.8l-31.9-47.6v47.6h-26.5v-96h26.5l32.2,50.2v-50.2H1351.4z"/>
		<path d="M1452.9,923.1c0,17.6-3.7,30.3-11,38.1c-7.3,7.8-19.1,11.7-35.3,11.7c-16.9,0-28.7-3.7-35.7-11.2
			c-6.9-7.5-10.4-20.3-10.4-38.6c0-17.4,3.7-29.9,11-37.8c7.3-7.8,19-11.7,35.2-11.7c16.8,0,28.8,3.7,35.8,11.1
			C1449.4,892.2,1452.9,904.9,1452.9,923.1z M1389.4,923.1c0,9.1,1.1,15.2,3.3,18.4c2.2,3.2,6.9,4.7,14,4.7c7.2,0,12-1.6,14.2-4.7
			c2.2-3.1,3.3-9.3,3.3-18.5c0-9.4-1.1-15.7-3.4-18.9c-2.2-3.2-6.9-4.8-14.1-4.8c-7.1,0-11.8,1.6-14,4.8
			C1390.5,907.4,1389.4,913.7,1389.4,923.1z"/>
		<path d="M1483.7,971.2l-32.2-96h31.2l12.7,46.4c0.6,2.4,1.5,5.8,2.5,10.5c1.1,4.6,2.2,10,3.4,16.2c1.3-6.7,2.5-12.3,3.4-16.6
			c0.9-4.3,1.7-7.6,2.3-9.7l12.4-46.7h30.2l-31.9,96H1483.7z"/>
		<path d="M1622.2,945.6v25.6h-67.1v-96h65.7v25h-37.4V911h31.7v23.3h-31.7v11.3H1622.2z"/>
		<path d="M1731.6,875.2v96h-26.7v-51l-12.6,32.9h-22.2l-12.1-32.8v50.9h-26.5v-96h34.5l15.8,42.9l16.5-42.9H1731.6z"/>
		<path d="M1820.9,942.7c0,9.8-2.9,17-8.7,21.6c-5.8,4.6-14.9,6.9-27.3,6.9h-41.5v-96h41.5c11.1,0,19.1,1.9,23.9,5.8
			c4.8,3.9,7.2,10.3,7.2,19.3c0,5.6-0.8,10-2.5,13.1c-1.6,3.1-4.4,5.4-8.3,6.8c5.4,1.2,9.4,3.7,11.9,7.4
			C1819.6,931.2,1820.9,936.3,1820.9,942.7z M1790.9,905.2c0-2.5-0.5-4.2-1.5-5.4c-1-1.1-2.6-1.7-4.8-1.7h-13.3v15h13.3
			c2.2,0,3.9-0.6,4.8-1.8C1790.4,910.1,1790.9,908.1,1790.9,905.2z M1793.2,940c0-2.8-0.6-4.7-1.9-5.9c-1.3-1.2-3.4-1.8-6.4-1.8
			h-13.6v15h13.6c3,0,5.1-0.6,6.4-1.7C1792.5,944.5,1793.2,942.6,1793.2,940z"/>
		<path d="M1896.3,945.6v25.6h-67.1v-96h65.7v25h-37.4V911h31.7v23.3h-31.7v11.3H1896.3z"/>
		<path d="M1933.9,941.2v30h-28.3v-96h36c15.4,0,26.3,2.6,32.7,7.7c6.4,5.2,9.6,13.8,9.6,26c0,7.3-1.4,13.2-4.2,17.9
			c-2.8,4.7-7.1,8.2-12.8,10.6l21,33.9h-32.5l-16.1-30H1933.9z M1954.9,909.3c0-3.2-0.9-5.4-2.6-6.7c-1.7-1.3-4.9-2-9.3-2h-9v18.8h9
			c4.5,0,7.6-0.8,9.3-2.3C1954,915.6,1954.9,913,1954.9,909.3z"/>
		<path d="M904.8,942c0,9.8-2.9,17-8.7,21.6c-5.8,4.6-14.9,6.9-27.3,6.9h-41.5v-96h41.5c11.1,0,19.1,1.9,23.9,5.8
			c4.8,3.9,7.2,10.3,7.2,19.3c0,5.6-0.8,10-2.5,13.1c-1.6,3.1-4.4,5.4-8.3,6.8c5.4,1.2,9.4,3.7,11.9,7.4
			C903.5,930.5,904.8,935.6,904.8,942z M874.7,904.5c0-2.5-0.5-4.2-1.5-5.4c-1-1.1-2.6-1.7-4.8-1.7h-13.3v15h13.3
			c2.2,0,3.9-0.6,4.8-1.8C874.3,909.4,874.7,907.3,874.7,904.5z M877,939.3c0-2.8-0.6-4.7-1.9-5.9c-1.3-1.2-3.4-1.8-6.4-1.8h-13.6
			v15h13.6c3,0,5.1-0.6,6.4-1.7C876.4,943.8,877,941.9,877,939.3z"/>
		<path d="M975.2,943.9v26.7H913v-96h28.3v69.4H975.2z"/>
		<path d="M1005.6,970.5h-29.3l34.5-96h29.6l33.4,96h-29.1l-4-13.3h-31.2L1005.6,970.5z M1021.6,915.3c-1.2,4.2-2.3,8-3.3,11.4
			l-2.5,8.4h18.4l-2.5-8.4l-6.9-23.7C1023.8,906.9,1022.7,911.1,1021.6,915.3z"/>
		<path d="M1118.9,945.5c4.1,0,8.5-0.4,13.3-1.2c4.7-0.8,9-1.9,12.6-3.2v25.1c-5.6,2.2-10.7,3.8-15.2,4.7c-4.5,0.9-9.3,1.3-14.3,1.3
			c-9.2,0-16.5-1-21.8-3c-5.4-2-9.6-5.2-12.8-9.6c-2.7-3.9-4.6-8.9-6-15c-1.3-6.1-2-13.5-2-22.2c0-17.1,3.8-29.6,11.3-37.5
			c7.6-8,19.6-11.9,36.2-11.9c4.7,0,8.9,0.1,12.6,0.3c3.7,0.2,7,0.6,10,1.1v25c-3.3-0.2-6.7-0.4-10.3-0.5c-3.6-0.1-7.6-0.2-11.9-0.2
			c-7.5,0-12.4,1.7-14.7,5c-2.4,3.3-3.5,9.6-3.5,18.8c0,8.7,1.1,14.7,3.3,18.1C1107.7,943.9,1112.2,945.5,1118.9,945.5z"/>
		<path d="M1211.1,920.9l32.5,49.6h-35.4l-21.8-37.5h-5.1v37.5h-28.3v-96h28.3v36.2h5.1l22.4-36.2h33.7L1211.1,920.9z"/>
		<path d="M912.4,1001.5v96h-26.8l-31.9-47.6v47.6h-26.5v-96h26.5l32.2,50.2v-50.2H912.4z"/>
		<path d="M1014,1049.5c0,17.6-3.7,30.3-11,38.1c-7.3,7.8-19.1,11.7-35.3,11.7c-16.9,0-28.7-3.7-35.7-11.2
			c-6.9-7.5-10.4-20.3-10.4-38.6c0-17.4,3.6-29.9,11-37.8c7.3-7.8,19-11.7,35.2-11.7c16.8,0,28.8,3.7,35.8,11.1
			C1010.5,1018.5,1014,1031.3,1014,1049.5z M950.4,1049.5c0,9.1,1.1,15.2,3.3,18.4c2.2,3.2,6.9,4.7,14,4.7c7.2,0,12-1.6,14.2-4.7
			c2.2-3.1,3.3-9.3,3.3-18.5c0-9.4-1.1-15.7-3.4-18.9c-2.2-3.2-6.9-4.8-14.1-4.8c-7.1,0-11.8,1.6-14,4.8
			C951.5,1033.8,950.4,1040.1,950.4,1049.5z"/>
		<path d="M1044.8,1097.6l-32.2-96h31.2l12.7,46.4c0.6,2.4,1.5,5.8,2.5,10.5c1.1,4.6,2.2,10,3.4,16.2c1.3-6.7,2.5-12.3,3.4-16.6
			c0.9-4.3,1.7-7.6,2.3-9.7l12.4-46.7h30.2l-31.9,96H1044.8z"/>
		<path d="M1183.2,1072v25.6h-67.1v-96h65.7v25h-37.4v10.9h31.7v23.3h-31.7v11.3H1183.2z"/>
		<path d="M1292.6,1001.5v96H1266v-51l-12.6,32.9h-22.2l-12.1-32.8v50.9h-26.5v-96h34.5l15.8,42.9l16.5-42.9H1292.6z"/>
		<path d="M1381.9,1069.1c0,9.8-2.9,17-8.7,21.6c-5.8,4.6-14.9,6.9-27.3,6.9h-41.5v-96h41.5c11.1,0,19.1,1.9,23.9,5.8
			c4.8,3.9,7.2,10.3,7.2,19.3c0,5.6-0.8,10-2.5,13.1c-1.6,3.1-4.4,5.4-8.3,6.8c5.4,1.2,9.4,3.7,11.9,7.4
			C1380.7,1057.6,1381.9,1062.6,1381.9,1069.1z M1351.9,1031.6c0-2.5-0.5-4.2-1.5-5.4c-1-1.1-2.6-1.7-4.8-1.7h-13.3v15h13.3
			c2.2,0,3.9-0.6,4.8-1.8C1351.4,1036.5,1351.9,1034.4,1351.9,1031.6z M1354.2,1066.3c0-2.8-0.6-4.7-1.9-5.9
			c-1.3-1.2-3.4-1.8-6.4-1.8h-13.6v15h13.6c3,0,5.1-0.6,6.4-1.7C1353.6,1070.9,1354.2,1069,1354.2,1066.3z"/>
		<path d="M1457.3,1072v25.6h-67.1v-96h65.7v25h-37.4v10.9h31.7v23.3h-31.7v11.3H1457.3z"/>
		<path d="M1495,1067.5v30h-28.3v-96h36c15.4,0,26.3,2.6,32.7,7.7c6.4,5.2,9.6,13.8,9.6,26c0,7.3-1.4,13.2-4.2,17.9
			c-2.8,4.7-7.1,8.2-12.8,10.6l21,33.9h-32.5l-16.1-30H1495z M1515.9,1035.7c0-3.2-0.9-5.4-2.6-6.7c-1.7-1.3-4.9-2-9.3-2h-9v18.8h9
			c4.5,0,7.6-0.8,9.3-2.3C1515.1,1042,1515.9,1039.4,1515.9,1035.7z"/>
		<path d="M1784.5,692.3c0,10.1-3,17.6-9,22.4c-6,4.8-15.4,7.1-28.2,7.1h-43v-99.4h43c11.5,0,19.8,2,24.7,6c5,4,7.5,10.7,7.5,20
			c0,5.8-0.8,10.3-2.5,13.6c-1.7,3.2-4.5,5.6-8.6,7.1c5.6,1.3,9.7,3.8,12.3,7.6C1783.2,680.4,1784.5,685.6,1784.5,692.3z
			 M1753.4,653.4c0-2.5-0.5-4.4-1.5-5.5c-1-1.2-2.7-1.7-5-1.7h-13.8v15.5h13.8c2.3,0,4-0.6,5-1.9
			C1752.9,658.5,1753.4,656.4,1753.4,653.4z M1755.8,689.4c0-2.9-0.7-4.9-2-6.1c-1.3-1.2-3.5-1.8-6.6-1.8h-14.1V697h14.1
			c3.1,0,5.3-0.6,6.6-1.7C1755.1,694.1,1755.8,692.2,1755.8,689.4z"/>
		<path d="M1857.4,694.2v27.6H1793v-99.4h29.3v71.8H1857.4z"/>
		<path d="M1888.8,721.7h-30.3l35.7-99.4h30.6l34.6,99.4h-30.1l-4.1-13.8h-32.3L1888.8,721.7z M1905.3,664.6
			c-1.2,4.4-2.4,8.3-3.4,11.8l-2.5,8.7h19l-2.5-8.7l-7.1-24.6C1907.7,656,1906.5,660.2,1905.3,664.6z"/>
		<path d="M2006.1,695.9c4.2,0,8.8-0.4,13.7-1.3c4.9-0.8,9.3-2,13.1-3.3v26c-5.8,2.3-11.1,3.9-15.8,4.8c-4.7,0.9-9.6,1.3-14.8,1.3
			c-9.5,0-17-1-22.6-3.1c-5.5-2.1-10-5.4-13.2-9.9c-2.7-4-4.8-9.2-6.2-15.5c-1.4-6.3-2.1-14-2.1-23c0-17.6,3.9-30.6,11.7-38.8
			c7.8-8.2,20.3-12.4,37.4-12.4c4.9,0,9.2,0.1,13,0.3c3.8,0.2,7.2,0.6,10.3,1.1V648c-3.4-0.2-6.9-0.4-10.6-0.5
			c-3.7-0.1-7.8-0.2-12.4-0.2c-7.7,0-12.8,1.7-15.2,5.2c-2.4,3.4-3.6,9.9-3.6,19.4c0,9,1.1,15.2,3.4,18.7
			C1994.5,694.2,1999.1,695.9,2006.1,695.9z"/>
		<path d="M2101.5,670.4l33.6,51.4h-36.6l-22.5-38.8h-5.2v38.8h-29.3v-99.4h29.3v37.4h5.2l23.1-37.4h34.9L2101.5,670.4z"/>
		<path d="M1792.4,753.8v99.4h-27.7l-33-49.3v49.3h-27.4v-99.4h27.4l33.3,52v-52H1792.4z"/>
		<path d="M1897.5,803.5c0,18.2-3.8,31.3-11.3,39.4c-7.6,8.1-19.7,12.1-36.5,12.1c-17.4,0-29.7-3.9-36.9-11.6
			c-7.2-7.7-10.8-21-10.8-39.9c0-18,3.8-31,11.3-39.1c7.6-8.1,19.7-12.1,36.4-12.1c17.4,0,29.8,3.8,37,11.5
			C1893.9,771.4,1897.5,784.6,1897.5,803.5z M1831.7,803.5c0,9.4,1.1,15.7,3.4,19c2.3,3.3,7.1,4.9,14.5,4.9c7.5,0,12.4-1.6,14.7-4.8
			c2.3-3.2,3.4-9.6,3.4-19.1c0-9.7-1.2-16.2-3.5-19.6c-2.3-3.3-7.2-5-14.6-5c-7.4,0-12.2,1.7-14.5,5
			C1832.8,787.2,1831.7,793.7,1831.7,803.5z"/>
		<path d="M1929.3,853.2l-33.3-99.4h32.3l13.2,48c0.6,2.4,1.5,6.1,2.6,10.9c1.1,4.8,2.3,10.4,3.6,16.7c1.4-7,2.5-12.7,3.5-17.2
			c1-4.5,1.7-7.8,2.4-10.1l12.8-48.3h31.2l-33,99.4H1929.3z"/>
		<path d="M2072.6,826.8v26.5h-69.4v-99.4h68v25.8h-38.7v11.3h32.8V815h-32.8v11.7H2072.6z"/>
		<path d="M2185.8,753.8v99.4h-27.6v-52.8l-13,34.1h-23l-12.5-33.9v52.6h-27.4v-99.4h35.7l16.3,44.4l17.1-44.4H2185.8z"/>
		<path d="M2278.2,823.7c0,10.1-3,17.6-9,22.4c-6,4.8-15.4,7.1-28.2,7.1h-43v-99.4h43c11.5,0,19.8,2,24.7,6c5,4,7.5,10.7,7.5,20
			c0,5.8-0.8,10.3-2.5,13.6c-1.7,3.2-4.5,5.6-8.6,7.1c5.6,1.3,9.7,3.8,12.3,7.6C2276.9,811.9,2278.2,817.1,2278.2,823.7z
			 M2247.2,784.9c0-2.5-0.5-4.4-1.5-5.5c-1-1.2-2.7-1.7-5-1.7h-13.8v15.5h13.8c2.3,0,4-0.6,5-1.9
			C2246.7,790,2247.2,787.9,2247.2,784.9z M2249.5,820.9c0-2.9-0.7-4.9-2-6.1c-1.3-1.2-3.5-1.8-6.6-1.8h-14.1v15.5h14.1
			c3.1,0,5.3-0.6,6.6-1.7C2248.9,825.6,2249.5,823.6,2249.5,820.9z"/>
		<path d="M2356.2,826.8v26.5h-69.4v-99.4h68v25.8h-38.7v11.3h32.8V815h-32.8v11.7H2356.2z"/>
		<path d="M2395.2,822.2v31.1h-29.3v-99.4h37.3c16,0,27.2,2.7,33.8,8c6.6,5.3,9.9,14.3,9.9,26.9c0,7.5-1.5,13.7-4.4,18.5
			c-2.9,4.9-7.3,8.5-13.2,10.9l21.7,35h-33.6l-16.6-31.1H2395.2z M2416.9,789.2c0-3.3-0.9-5.6-2.7-7c-1.8-1.4-5-2.1-9.7-2.1h-9.4
			v19.5h9.4c4.6,0,7.9-0.8,9.7-2.4C2416,795.7,2416.9,793,2416.9,789.2z"/>
		<path d="M1139.6,297.3c0,10.4-3.1,18-9.3,22.9c-6.2,4.9-15.8,7.3-28.9,7.3h-44.1V225.6h44.1c11.8,0,20.3,2.1,25.4,6.2
			c5.1,4.1,7.6,10.9,7.6,20.5c0,6-0.9,10.6-2.6,13.9c-1.7,3.3-4.7,5.7-8.8,7.2c5.7,1.3,9.9,3.9,12.6,7.8
			C1138.3,285.1,1139.6,290.5,1139.6,297.3z M1107.7,257.5c0-2.6-0.5-4.5-1.5-5.7c-1-1.2-2.7-1.8-5.1-1.8h-14.1V266h14.1
			c2.4,0,4.1-0.7,5.1-2C1107.2,262.7,1107.7,260.5,1107.7,257.5z M1110.2,294.4c0-2.9-0.7-5-2-6.3c-1.4-1.2-3.6-1.9-6.7-1.9h-14.5
			v15.9h14.5c3.1,0,5.4-0.6,6.7-1.8C1109.5,299.2,1110.2,297.2,1110.2,294.4z"/>
		<path d="M1214.4,299.3v28.3h-66V225.6h30.1v73.7H1214.4z"/>
		<path d="M1246.6,327.6h-31.1l36.6-101.9h31.4l35.4,101.9H1288l-4.2-14.1h-33.2L1246.6,327.6z M1263.6,269
			c-1.2,4.5-2.4,8.5-3.5,12.1l-2.6,8.9h19.5l-2.6-8.9l-7.3-25.2C1266,260.1,1264.8,264.5,1263.6,269z"/>
		<path d="M1366.9,301.1c4.3,0,9-0.4,14.1-1.3c5-0.9,9.5-2,13.4-3.4V323c-6,2.4-11.4,4-16.2,5c-4.8,0.9-9.9,1.4-15.2,1.4
			c-9.8,0-17.5-1.1-23.2-3.2c-5.7-2.1-10.2-5.5-13.6-10.2c-2.8-4.1-4.9-9.4-6.3-15.9c-1.4-6.5-2.1-14.4-2.1-23.6
			c0-18.1,4-31.4,12-39.8c8-8.5,20.8-12.7,38.4-12.7c5,0,9.4,0.1,13.3,0.3c3.9,0.2,7.4,0.6,10.6,1.1V252c-3.5-0.2-7.1-0.4-10.9-0.5
			c-3.8-0.1-8-0.2-12.7-0.2c-7.9,0-13.1,1.8-15.6,5.3c-2.5,3.5-3.7,10.2-3.7,19.9c0,9.2,1.2,15.6,3.5,19.2
			C1355,299.3,1359.7,301.1,1366.9,301.1z"/>
		<path d="M1464.7,274.9l34.5,52.7h-37.6l-23.1-39.8h-5.4v39.8h-30.1V225.6h30.1V264h5.4l23.7-38.4h35.8L1464.7,274.9z"/>
		<path d="M1147.7,360.5v101.9h-28.5l-33.8-50.6v50.6h-28.1V360.5h28.1l34.1,53.3v-53.3H1147.7z"/>
		<path d="M1255.5,411.4c0,18.6-3.9,32.1-11.6,40.4c-7.8,8.3-20.2,12.4-37.5,12.4c-17.9,0-30.5-4-37.9-11.9
			c-7.4-7.9-11.1-21.6-11.1-41c0-18.4,3.9-31.8,11.6-40.1c7.7-8.3,20.2-12.4,37.3-12.4c17.9,0,30.5,3.9,38,11.8
			C1251.8,378.5,1255.5,392.1,1255.5,411.4z M1188,411.4c0,9.6,1.2,16.2,3.5,19.5c2.3,3.4,7.3,5,14.9,5c7.7,0,12.7-1.7,15-5
			c2.3-3.3,3.5-9.8,3.5-19.6c0-10-1.2-16.7-3.6-20.1c-2.4-3.4-7.4-5.1-15-5.1c-7.6,0-12.5,1.7-14.9,5.1
			C1189.2,394.7,1188,401.4,1188,411.4z"/>
		<path d="M1288.2,462.4L1254,360.5h33.2l13.5,49.3c0.7,2.5,1.5,6.2,2.7,11.1c1.1,4.9,2.4,10.6,3.7,17.2c1.4-7.2,2.6-13,3.6-17.6
			c1-4.6,1.8-8,2.4-10.3l13.2-49.6h32l-33.8,101.9H1288.2z"/>
		<path d="M1435.2,435.3v27.2h-71.2V360.5h69.7V387H1394v11.5h33.7v24.7H1394v12H1435.2z"/>
		<path d="M1551.2,360.5v101.9h-28.3v-54.1l-13.3,35H1486l-12.8-34.8v54h-28.1V360.5h36.6l16.7,45.5l17.6-45.5H1551.2z"/>
		<path d="M1646,432.2c0,10.4-3.1,18-9.3,22.9c-6.2,4.9-15.8,7.3-28.9,7.3h-44.1V360.5h44.1c11.8,0,20.3,2.1,25.4,6.2
			c5.1,4.1,7.6,10.9,7.6,20.5c0,6-0.9,10.6-2.6,13.9c-1.7,3.3-4.7,5.7-8.8,7.2c5.7,1.3,9.9,3.9,12.6,7.8
			C1644.7,420,1646,425.4,1646,432.2z M1614.2,392.4c0-2.6-0.5-4.5-1.5-5.7c-1-1.2-2.7-1.8-5.1-1.8h-14.1v15.9h14.1
			c2.4,0,4.1-0.7,5.1-2C1613.6,397.6,1614.2,395.4,1614.2,392.4z M1616.6,429.3c0-2.9-0.7-5-2-6.3c-1.4-1.2-3.6-1.9-6.7-1.9h-14.5
			v15.9h14.5c3.1,0,5.4-0.6,6.7-1.8C1615.9,434.1,1616.6,432.1,1616.6,429.3z"/>
		<path d="M1726,435.3v27.2h-71.2V360.5h69.7V387h-39.7v11.5h33.7v24.7h-33.7v12H1726z"/>
		<path d="M1766,430.6v31.9h-30.1V360.5h38.2c16.4,0,27.9,2.7,34.7,8.2c6.8,5.5,10.2,14.7,10.2,27.6c0,7.7-1.5,14-4.5,19
			c-3,5-7.5,8.7-13.6,11.2l22.3,35.9h-34.5l-17.1-31.9H1766z M1788.3,396.7c0-3.4-0.9-5.7-2.8-7.2c-1.8-1.4-5.1-2.1-9.9-2.1h-9.6v20
			h9.6c4.8,0,8.1-0.8,9.9-2.4C1787.4,403.4,1788.3,400.7,1788.3,396.7z"/>
		<path d="M597.6,685c0,9.8-2.9,17-8.7,21.6c-5.8,4.6-14.9,6.9-27.3,6.9h-41.5v-96h41.5c11.1,0,19.1,1.9,23.9,5.8
			c4.8,3.9,7.2,10.3,7.2,19.3c0,5.6-0.8,10-2.5,13.1c-1.6,3.1-4.4,5.4-8.3,6.8c5.4,1.2,9.4,3.7,11.9,7.4
			C596.3,673.5,597.6,678.6,597.6,685z M567.6,647.5c0-2.5-0.5-4.2-1.5-5.4c-1-1.1-2.6-1.7-4.8-1.7H548v15h13.3
			c2.2,0,3.9-0.6,4.8-1.8C567.1,652.4,567.6,650.3,567.6,647.5z M569.9,682.2c0-2.8-0.6-4.7-1.9-5.9c-1.3-1.2-3.4-1.8-6.4-1.8H548
			v15h13.6c3,0,5.1-0.6,6.4-1.7C569.2,686.8,569.9,684.9,569.9,682.2z"/>
		<path d="M668.1,686.8v26.7h-62.2v-96h28.3v69.4H668.1z"/>
		<path d="M698.4,713.5h-29.3l34.5-96h29.6l33.4,96h-29.1l-4-13.3h-31.2L698.4,713.5z M714.4,658.3c-1.2,4.2-2.3,8-3.3,11.4
			l-2.5,8.4H727l-2.5-8.4l-6.9-23.7C716.7,649.9,715.6,654,714.4,658.3z"/>
		<path d="M811.7,688.5c4.1,0,8.5-0.4,13.3-1.2c4.7-0.8,9-1.9,12.6-3.2v25.1c-5.6,2.2-10.7,3.8-15.2,4.7c-4.5,0.9-9.3,1.3-14.3,1.3
			c-9.2,0-16.5-1-21.8-3c-5.4-2-9.6-5.2-12.8-9.6c-2.7-3.9-4.6-8.9-6-15c-1.3-6.1-2-13.5-2-22.2c0-17.1,3.8-29.6,11.3-37.5
			c7.6-8,19.6-11.9,36.2-11.9c4.7,0,8.9,0.1,12.6,0.3c3.7,0.2,7,0.6,10,1.1v25c-3.3-0.2-6.7-0.4-10.3-0.5c-3.6-0.1-7.6-0.2-11.9-0.2
			c-7.5,0-12.4,1.7-14.7,5c-2.4,3.3-3.5,9.6-3.5,18.8c0,8.7,1.1,14.7,3.3,18.1C800.5,686.8,805,688.5,811.7,688.5z"/>
		<path d="M904,663.9l32.5,49.6H901L879.3,676h-5.1v37.5h-28.3v-96h28.3v36.2h5.1l22.4-36.2h33.7L904,663.9z"/>
		<path d="M605.2,744.5v96h-26.8l-31.9-47.6v47.6h-26.5v-96h26.5l32.2,50.2v-50.2H605.2z"/>
		<path d="M706.8,792.5c0,17.6-3.7,30.3-11,38.1c-7.3,7.8-19.1,11.7-35.3,11.7c-16.9,0-28.7-3.7-35.7-11.2
			c-6.9-7.5-10.4-20.3-10.4-38.6c0-17.4,3.6-29.9,11-37.8c7.3-7.8,19-11.7,35.2-11.7c16.8,0,28.8,3.7,35.8,11.1
			C703.3,761.5,706.8,774.3,706.8,792.5z M643.2,792.5c0,9.1,1.1,15.2,3.3,18.4c2.2,3.2,6.9,4.7,14,4.7c7.2,0,12-1.6,14.2-4.7
			c2.2-3.1,3.3-9.3,3.3-18.5c0-9.4-1.1-15.7-3.4-18.9c-2.2-3.2-6.9-4.8-14.1-4.8c-7.1,0-11.8,1.6-14,4.8
			C644.3,776.8,643.2,783.1,643.2,792.5z"/>
		<path d="M737.6,840.6l-32.2-96h31.2l12.7,46.4c0.6,2.4,1.5,5.8,2.5,10.5c1.1,4.6,2.2,10,3.4,16.2c1.3-6.7,2.5-12.3,3.4-16.6
			c0.9-4.3,1.7-7.6,2.3-9.7l12.4-46.7h30.2l-31.9,96H737.6z"/>
		<path d="M876.1,815v25.6H809v-96h65.7v25h-37.4v10.9H869v23.3h-31.7V815H876.1z"/>
		<path d="M985.4,744.5v96h-26.7v-51l-12.6,32.9H924l-12.1-32.8v50.9h-26.5v-96h34.5l15.8,42.9l16.5-42.9H985.4z"/>
		<path d="M1074.7,812.1c0,9.8-2.9,17-8.7,21.6c-5.8,4.6-14.9,6.9-27.3,6.9h-41.5v-96h41.5c11.1,0,19.1,1.9,23.9,5.8
			c4.8,3.9,7.2,10.3,7.2,19.3c0,5.6-0.8,10-2.5,13.1c-1.6,3.1-4.4,5.4-8.3,6.8c5.4,1.2,9.4,3.7,11.9,7.4
			C1073.5,800.6,1074.7,805.6,1074.7,812.1z M1044.7,774.5c0-2.5-0.5-4.2-1.5-5.4c-1-1.1-2.6-1.7-4.8-1.7h-13.3v15h13.3
			c2.2,0,3.9-0.6,4.8-1.8C1044.2,779.4,1044.7,777.4,1044.7,774.5z M1047,809.3c0-2.8-0.6-4.7-1.9-5.9c-1.3-1.2-3.4-1.8-6.4-1.8
			h-13.6v15h13.6c3,0,5.1-0.6,6.4-1.7C1046.4,813.9,1047,812,1047,809.3z"/>
		<path d="M1150.1,815v25.6H1083v-96h65.7v25h-37.4v10.9h31.7v23.3h-31.7V815H1150.1z"/>
		<path d="M1187.8,810.5v30h-28.3v-96h36c15.4,0,26.3,2.6,32.7,7.7c6.4,5.2,9.6,13.8,9.6,26c0,7.3-1.4,13.2-4.2,17.9
			c-2.8,4.7-7.1,8.2-12.8,10.6l21,33.9h-32.5l-16.1-30H1187.8z M1208.8,778.7c0-3.2-0.9-5.4-2.6-6.7c-1.7-1.3-4.9-2-9.3-2h-9v18.8h9
			c4.5,0,7.6-0.8,9.3-2.3C1207.9,785,1208.8,782.3,1208.8,778.7z"/>
		<path d="M1495.2,490.5v96h-26.8l-31.9-47.6v47.6h-26.5v-96h26.5l32.2,50.2v-50.2H1495.2z"/>
		<path d="M1596.8,538.5c0,17.6-3.7,30.3-11,38.1c-7.3,7.8-19.1,11.7-35.3,11.7c-16.9,0-28.7-3.7-35.7-11.2
			c-6.9-7.5-10.4-20.3-10.4-38.6c0-17.4,3.6-29.9,11-37.8c7.3-7.8,19-11.7,35.2-11.7c16.8,0,28.8,3.7,35.8,11.1
			C1593.3,507.5,1596.8,520.3,1596.8,538.5z M1533.2,538.5c0,9.1,1.1,15.2,3.3,18.4c2.2,3.2,6.9,4.7,14,4.7c7.2,0,12-1.6,14.2-4.7
			c2.2-3.1,3.3-9.3,3.3-18.5c0-9.4-1.1-15.7-3.4-18.9c-2.2-3.2-6.9-4.8-14.1-4.8c-7.1,0-11.8,1.6-14,4.8
			C1534.3,522.8,1533.2,529.1,1533.2,538.5z"/>
		<path d="M1627.6,586.6l-32.2-96h31.2l12.7,46.4c0.6,2.4,1.5,5.8,2.5,10.5c1.1,4.6,2.2,10,3.4,16.2c1.3-6.7,2.5-12.3,3.4-16.6
			c0.9-4.3,1.7-7.6,2.3-9.7l12.4-46.7h30.2l-31.9,96H1627.6z"/>
		<path d="M1766.1,561v25.6H1699v-96h65.7v25h-37.4v10.9h31.7v23.3h-31.7V561H1766.1z"/>
		<path d="M1875.4,490.5v96h-26.7v-51l-12.6,32.9H1814l-12.1-32.8v50.9h-26.5v-96h34.5l15.8,42.9l16.5-42.9H1875.4z"/>
		<path d="M1964.7,558.1c0,9.8-2.9,17-8.7,21.6c-5.8,4.6-14.9,6.9-27.3,6.9h-41.5v-96h41.5c11.1,0,19.1,1.9,23.9,5.8
			c4.8,3.9,7.2,10.3,7.2,19.3c0,5.6-0.8,10-2.5,13.1c-1.6,3.1-4.4,5.4-8.3,6.8c5.4,1.2,9.4,3.7,11.9,7.4
			C1963.5,546.6,1964.7,551.6,1964.7,558.1z M1934.7,520.5c0-2.5-0.5-4.2-1.5-5.4c-1-1.1-2.6-1.7-4.8-1.7h-13.3v15h13.3
			c2.2,0,3.9-0.6,4.8-1.8C1934.2,525.4,1934.7,523.4,1934.7,520.5z M1937,555.3c0-2.8-0.6-4.7-1.9-5.9c-1.3-1.2-3.4-1.8-6.4-1.8
			h-13.6v15h13.6c3,0,5.1-0.6,6.4-1.7C1936.4,559.9,1937,558,1937,555.3z"/>
		<path d="M2040.1,561v25.6H1973v-96h65.7v25h-37.4v10.9h31.7v23.3h-31.7V561H2040.1z"/>
		<path d="M2077.8,556.5v30h-28.3v-96h36c15.4,0,26.3,2.6,32.7,7.7c6.4,5.2,9.6,13.8,9.6,26c0,7.3-1.4,13.2-4.2,17.9
			c-2.8,4.7-7.1,8.2-12.8,10.6l21,33.9h-32.5l-16.1-30H2077.8z M2098.8,524.7c0-3.2-0.9-5.4-2.6-6.7c-1.7-1.3-4.9-2-9.3-2h-9v18.8h9
			c4.5,0,7.6-0.8,9.3-2.3C2097.9,531,2098.8,528.3,2098.8,524.7z"/>
		<path d="M1611.2,232.5v96h-26.8l-31.9-47.6v47.6h-26.5v-96h26.5l32.2,50.2v-50.2H1611.2z"/>
		<path d="M1712.8,280.5c0,17.6-3.7,30.3-11,38.1c-7.3,7.8-19.1,11.7-35.3,11.7c-16.9,0-28.7-3.7-35.7-11.2
			c-6.9-7.5-10.4-20.3-10.4-38.6c0-17.4,3.6-29.9,11-37.8c7.3-7.8,19-11.7,35.2-11.7c16.8,0,28.8,3.7,35.8,11.1
			C1709.3,249.5,1712.8,262.3,1712.8,280.5z M1649.2,280.5c0,9.1,1.1,15.2,3.3,18.4c2.2,3.2,6.9,4.7,14,4.7c7.2,0,12-1.6,14.2-4.7
			c2.2-3.1,3.3-9.3,3.3-18.5c0-9.4-1.1-15.7-3.4-18.9c-2.2-3.2-6.9-4.8-14.1-4.8c-7.1,0-11.8,1.6-14,4.8
			C1650.3,264.8,1649.2,271.1,1649.2,280.5z"/>
		<path d="M1743.6,328.6l-32.2-96h31.2l12.7,46.4c0.6,2.4,1.5,5.8,2.5,10.5c1.1,4.6,2.2,10,3.4,16.2c1.3-6.7,2.5-12.3,3.4-16.6
			c0.9-4.3,1.7-7.6,2.3-9.7l12.4-46.7h30.2l-31.9,96H1743.6z"/>
		<path d="M1882.1,303v25.6H1815v-96h65.7v25h-37.4v10.9h31.7v23.3h-31.7V303H1882.1z"/>
		<path d="M1991.4,232.5v96h-26.7v-51l-12.6,32.9H1930l-12.1-32.8v50.9h-26.5v-96h34.5l15.8,42.9l16.5-42.9H1991.4z"/>
		<path d="M2080.7,300.1c0,9.8-2.9,17-8.7,21.6c-5.8,4.6-14.9,6.9-27.3,6.9h-41.5v-96h41.5c11.1,0,19.1,1.9,23.9,5.8
			c4.8,3.9,7.2,10.3,7.2,19.3c0,5.6-0.8,10-2.5,13.1c-1.6,3.1-4.4,5.4-8.3,6.8c5.4,1.2,9.4,3.7,11.9,7.4
			C2079.5,288.6,2080.7,293.6,2080.7,300.1z M2050.7,262.5c0-2.5-0.5-4.2-1.5-5.4c-1-1.1-2.6-1.7-4.8-1.7h-13.3v15h13.3
			c2.2,0,3.9-0.6,4.8-1.8C2050.2,267.4,2050.7,265.4,2050.7,262.5z M2053,297.3c0-2.8-0.6-4.7-1.9-5.9c-1.3-1.2-3.4-1.8-6.4-1.8
			h-13.6v15h13.6c3,0,5.1-0.6,6.4-1.7C2052.4,301.9,2053,300,2053,297.3z"/>
		<path d="M2156.1,303v25.6H2089v-96h65.7v25h-37.4v10.9h31.7v23.3h-31.7V303H2156.1z"/>
		<path d="M2193.8,298.5v30h-28.3v-96h36c15.4,0,26.3,2.6,32.7,7.7c6.4,5.2,9.6,13.8,9.6,26c0,7.3-1.4,13.2-4.2,17.9
			c-2.8,4.7-7.1,8.2-12.8,10.6l21,33.9h-32.5l-16.1-30H2193.8z M2214.8,266.7c0-3.2-0.9-5.4-2.6-6.7c-1.7-1.3-4.9-2-9.3-2h-9v18.8h9
			c4.5,0,7.6-0.8,9.3-2.3C2213.9,273,2214.8,270.3,2214.8,266.7z"/>
		<path d="M869.2-19.5v96h-26.8l-31.9-47.6v47.6h-26.5v-96h26.5l32.2,50.2v-50.2H869.2z"/>
		<path d="M970.8,28.5c0,17.6-3.7,30.3-11,38.1c-7.3,7.8-19.1,11.7-35.3,11.7c-16.9,0-28.7-3.7-35.7-11.2
			c-6.9-7.5-10.4-20.3-10.4-38.6c0-17.4,3.6-29.9,11-37.8c7.3-7.8,19-11.7,35.2-11.7c16.8,0,28.8,3.7,35.8,11.1
			C967.3-2.5,970.8,10.3,970.8,28.5z M907.2,28.5c0,9.1,1.1,15.2,3.3,18.4c2.2,3.2,6.9,4.7,14,4.7c7.2,0,12-1.6,14.2-4.7
			c2.2-3.1,3.3-9.3,3.3-18.5c0-9.4-1.1-15.7-3.4-18.9c-2.2-3.2-6.9-4.8-14.1-4.8c-7.1,0-11.8,1.6-14,4.8
			C908.3,12.8,907.2,19.1,907.2,28.5z"/>
		<path d="M1001.6,76.6l-32.2-96h31.2l12.7,46.4c0.6,2.4,1.5,5.8,2.5,10.5c1.1,4.6,2.2,10,3.4,16.2c1.3-6.7,2.5-12.3,3.4-16.6
			c0.9-4.3,1.7-7.6,2.3-9.7l12.4-46.7h30.2l-31.9,96H1001.6z"/>
		<path d="M1140.1,51v25.6H1073v-96h65.7v25h-37.4v10.9h31.7v23.3h-31.7V51H1140.1z"/>
		<path d="M1249.4-19.5v96h-26.7v-51l-12.6,32.9H1188l-12.1-32.8v50.9h-26.5v-96h34.5l15.8,42.9l16.5-42.9H1249.4z"/>
		<path d="M1338.7,48.1c0,9.8-2.9,17-8.7,21.6s-14.9,6.9-27.3,6.9h-41.5v-96h41.5c11.1,0,19.1,1.9,23.9,5.8
			c4.8,3.9,7.2,10.3,7.2,19.3c0,5.6-0.8,10-2.5,13.1c-1.6,3.1-4.4,5.4-8.3,6.8c5.4,1.2,9.4,3.7,11.9,7.4
			C1337.5,36.6,1338.7,41.6,1338.7,48.1z M1308.7,10.5c0-2.5-0.5-4.2-1.5-5.4c-1-1.1-2.6-1.7-4.8-1.7h-13.3v15h13.3
			c2.2,0,3.9-0.6,4.8-1.8C1308.2,15.4,1308.7,13.4,1308.7,10.5z M1311,45.3c0-2.8-0.6-4.7-1.9-5.9c-1.3-1.2-3.4-1.8-6.4-1.8h-13.6
			v15h13.6c3,0,5.1-0.6,6.4-1.7C1310.4,49.9,1311,48,1311,45.3z"/>
		<path d="M1414.1,51v25.6H1347v-96h65.7v25h-37.4v10.9h31.7v23.3h-31.7V51H1414.1z"/>
		<path d="M1451.8,46.5v30h-28.3v-96h36c15.4,0,26.3,2.6,32.7,7.7c6.4,5.2,9.6,13.8,9.6,26c0,7.3-1.4,13.2-4.2,17.9
			c-2.8,4.7-7.1,8.2-12.8,10.6l21,33.9h-32.5l-16.1-30H1451.8z M1472.8,14.7c0-3.2-0.9-5.4-2.6-6.7c-1.7-1.3-4.9-2-9.3-2h-9v18.8h9
			c4.5,0,7.6-0.8,9.3-2.3C1471.9,21,1472.8,18.3,1472.8,14.7z"/>
		<path d="M154.2,808c0,9.8-2.9,17-8.7,21.6c-5.8,4.6-14.9,6.9-27.3,6.9H76.7v-96h41.5c11.1,0,19.1,1.9,23.9,5.8
			c4.8,3.9,7.2,10.3,7.2,19.3c0,5.6-0.8,10-2.5,13.1c-1.6,3.1-4.4,5.4-8.3,6.8c5.4,1.2,9.4,3.7,11.9,7.4
			C152.9,796.5,154.2,801.6,154.2,808z M124.1,770.5c0-2.5-0.5-4.2-1.5-5.4c-1-1.1-2.6-1.7-4.8-1.7h-13.3v15h13.3
			c2.2,0,3.9-0.6,4.8-1.8C123.7,775.4,124.1,773.3,124.1,770.5z M126.4,805.3c0-2.8-0.6-4.7-1.9-5.9c-1.3-1.2-3.4-1.8-6.4-1.8h-13.6
			v15h13.6c3,0,5.1-0.6,6.4-1.7C125.8,809.8,126.4,807.9,126.4,805.3z"/>
		<path d="M224.6,809.8v26.7h-62.2v-96h28.3v69.4H224.6z"/>
		<path d="M255,836.5h-29.3l34.5-96h29.6l33.4,96H294l-4-13.3h-31.2L255,836.5z M271,781.3c-1.2,4.2-2.3,8-3.3,11.4l-2.5,8.4h18.4
			l-2.5-8.4l-6.9-23.7C273.2,772.9,272.1,777,271,781.3z"/>
		<path d="M368.3,811.5c4.1,0,8.5-0.4,13.3-1.2c4.7-0.8,9-1.9,12.6-3.2v25.1c-5.6,2.2-10.7,3.8-15.2,4.7c-4.5,0.9-9.3,1.3-14.3,1.3
			c-9.2,0-16.5-1-21.8-3c-5.4-2-9.6-5.2-12.8-9.6c-2.7-3.9-4.6-8.9-6-15c-1.3-6.1-2-13.5-2-22.2c0-17.1,3.8-29.6,11.3-37.5
			c7.6-8,19.6-11.9,36.2-11.9c4.7,0,8.9,0.1,12.6,0.3c3.7,0.2,7,0.6,10,1.1v25c-3.3-0.2-6.7-0.4-10.3-0.5c-3.6-0.1-7.6-0.2-11.9-0.2
			c-7.5,0-12.4,1.7-14.7,5c-2.4,3.3-3.5,9.6-3.5,18.8c0,8.7,1.1,14.7,3.3,18.1C357.1,809.8,361.6,811.5,368.3,811.5z"/>
		<path d="M460.5,786.9l32.5,49.6h-35.4L435.9,799h-5.1v37.5h-28.3v-96h28.3v36.2h5.1l22.4-36.2h33.7L460.5,786.9z"/>
		<path d="M161.8,867.5v96H135l-31.9-47.6v47.6H76.7v-96h26.5l32.2,50.2v-50.2H161.8z"/>
		<path d="M263.4,915.5c0,17.6-3.7,30.3-11,38.1c-7.3,7.8-19.1,11.7-35.3,11.7c-16.9,0-28.7-3.7-35.7-11.2
			c-6.9-7.5-10.4-20.3-10.4-38.6c0-17.4,3.6-29.9,11-37.8c7.3-7.8,19-11.7,35.2-11.7c16.8,0,28.8,3.7,35.8,11.1
			C259.9,884.5,263.4,897.3,263.4,915.5z M199.8,915.5c0,9.1,1.1,15.2,3.3,18.4c2.2,3.2,6.9,4.7,14,4.7c7.2,0,12-1.6,14.2-4.7
			c2.2-3.1,3.3-9.3,3.3-18.5c0-9.4-1.1-15.7-3.4-18.9c-2.2-3.2-6.9-4.8-14.1-4.8c-7.1,0-11.8,1.6-14,4.8
			C200.9,899.8,199.8,906.1,199.8,915.5z"/>
		<path d="M294.2,963.6l-32.2-96h31.2l12.7,46.4c0.6,2.4,1.5,5.8,2.5,10.5c1.1,4.6,2.2,10,3.4,16.2c1.3-6.7,2.5-12.3,3.4-16.6
			c0.9-4.3,1.7-7.6,2.3-9.7l12.4-46.7h30.2l-31.9,96H294.2z"/>
		<path d="M432.6,938v25.6h-67.1v-96h65.7v25h-37.4v10.9h31.7v23.3h-31.7V938H432.6z"/>
		<path d="M542,867.5v96h-26.7v-51l-12.6,32.9h-22.2l-12.1-32.8v50.9H442v-96h34.5l15.8,42.9l16.5-42.9H542z"/>
		<path d="M631.3,935.1c0,9.8-2.9,17-8.7,21.6c-5.8,4.6-14.9,6.9-27.3,6.9h-41.5v-96h41.5c11.1,0,19.1,1.9,23.9,5.8
			c4.8,3.9,7.2,10.3,7.2,19.3c0,5.6-0.8,10-2.5,13.1c-1.6,3.1-4.4,5.4-8.3,6.8c5.4,1.2,9.4,3.7,11.9,7.4
			C630.1,923.6,631.3,928.6,631.3,935.1z M601.3,897.5c0-2.5-0.5-4.2-1.5-5.4c-1-1.1-2.6-1.7-4.8-1.7h-13.3v15H595
			c2.2,0,3.9-0.6,4.8-1.8C600.8,902.4,601.3,900.4,601.3,897.5z M603.6,932.3c0-2.8-0.6-4.7-1.9-5.9c-1.3-1.2-3.4-1.8-6.4-1.8h-13.6
			v15h13.6c3,0,5.1-0.6,6.4-1.7C603,936.9,603.6,935,603.6,932.3z"/>
		<path d="M706.7,938v25.6h-67.1v-96h65.7v25h-37.4v10.9h31.7v23.3h-31.7V938H706.7z"/>
		<path d="M744.4,933.5v30H716v-96h36c15.4,0,26.3,2.6,32.7,7.7c6.4,5.2,9.6,13.8,9.6,26c0,7.3-1.4,13.2-4.2,17.9
			c-2.8,4.7-7.1,8.2-12.8,10.6l21,33.9h-32.5l-16.1-30H744.4z M765.3,901.7c0-3.2-0.9-5.4-2.6-6.7c-1.7-1.3-4.9-2-9.3-2h-9v18.8h9
			c4.5,0,7.6-0.8,9.3-2.3C764.5,908,765.3,905.4,765.3,901.7z"/>
		<path d="M461.2,1071c0,9.8-2.9,17-8.7,21.6c-5.8,4.6-14.9,6.9-27.3,6.9h-41.5v-96h41.5c11.1,0,19.1,1.9,23.9,5.8
			c4.8,3.9,7.2,10.3,7.2,19.3c0,5.6-0.8,10-2.5,13.1c-1.6,3.1-4.4,5.4-8.3,6.8c5.4,1.2,9.4,3.7,11.9,7.4
			C459.9,1059.5,461.2,1064.6,461.2,1071z M431.1,1033.5c0-2.5-0.5-4.2-1.5-5.4c-1-1.1-2.6-1.7-4.8-1.7h-13.3v15h13.3
			c2.2,0,3.9-0.6,4.8-1.8C430.7,1038.4,431.1,1036.3,431.1,1033.5z M433.4,1068.3c0-2.8-0.6-4.7-1.9-5.9c-1.3-1.2-3.4-1.8-6.4-1.8
			h-13.6v15h13.6c3,0,5.1-0.6,6.4-1.7C432.8,1072.8,433.4,1070.9,433.4,1068.3z"/>
		<path d="M531.6,1072.8v26.7h-62.2v-96h28.3v69.4H531.6z"/>
		<path d="M562,1099.5h-29.3l34.5-96h29.6l33.4,96H601l-4-13.3h-31.2L562,1099.5z M578,1044.3c-1.2,4.2-2.3,8-3.3,11.4l-2.5,8.4
			h18.4l-2.5-8.4l-6.9-23.7C580.2,1035.9,579.1,1040,578,1044.3z"/>
		<path d="M675.3,1074.5c4.1,0,8.5-0.4,13.3-1.2c4.7-0.8,9-1.9,12.6-3.2v25.1c-5.6,2.2-10.7,3.8-15.2,4.7c-4.5,0.9-9.3,1.3-14.3,1.3
			c-9.2,0-16.5-1-21.8-3c-5.4-2-9.6-5.2-12.8-9.6c-2.7-3.9-4.6-8.9-6-15c-1.3-6.1-2-13.5-2-22.2c0-17.1,3.8-29.6,11.3-37.5
			c7.6-8,19.6-11.9,36.2-11.9c4.7,0,8.9,0.1,12.6,0.3c3.7,0.2,7,0.6,10,1.1v25c-3.3-0.2-6.7-0.4-10.3-0.5c-3.6-0.1-7.6-0.2-11.9-0.2
			c-7.5,0-12.4,1.7-14.7,5c-2.4,3.3-3.5,9.6-3.5,18.8c0,8.7,1.1,14.7,3.3,18.1C664.1,1072.8,668.6,1074.5,675.3,1074.5z"/>
		<path d="M767.5,1049.9l32.5,49.6h-35.4l-21.8-37.5h-5.1v37.5h-28.3v-96h28.3v36.2h5.1l22.4-36.2h33.7L767.5,1049.9z"/>
		<path d="M468.8,1130.5v96H442l-31.9-47.6v47.6h-26.5v-96h26.5l32.2,50.2v-50.2H468.8z"/>
		<path d="M570.4,1178.5c0,17.6-3.7,30.3-11,38.1c-7.3,7.8-19.1,11.7-35.3,11.7c-16.9,0-28.7-3.7-35.7-11.2
			c-6.9-7.5-10.4-20.3-10.4-38.6c0-17.4,3.6-29.9,11-37.8c7.3-7.8,19-11.7,35.2-11.7c16.8,0,28.8,3.7,35.8,11.1
			C566.9,1147.5,570.4,1160.3,570.4,1178.5z M506.8,1178.5c0,9.1,1.1,15.2,3.3,18.4c2.2,3.2,6.9,4.7,14,4.7c7.2,0,12-1.6,14.2-4.7
			c2.2-3.1,3.3-9.3,3.3-18.5c0-9.4-1.1-15.7-3.4-18.9c-2.2-3.2-6.9-4.8-14.1-4.8c-7.1,0-11.8,1.6-14,4.8
			C507.9,1162.8,506.8,1169.1,506.8,1178.5z"/>
		<path d="M601.2,1226.6l-32.2-96h31.2l12.7,46.4c0.6,2.4,1.5,5.8,2.5,10.5c1.1,4.6,2.2,10,3.4,16.2c1.3-6.7,2.5-12.3,3.4-16.6
			c0.9-4.3,1.7-7.6,2.3-9.7l12.4-46.7h30.2l-31.9,96H601.2z"/>
		<path d="M739.6,1201v25.6h-67.1v-96h65.7v25h-37.4v10.9h31.7v23.3h-31.7v11.3H739.6z"/>
		<path d="M849,1130.5v96h-26.7v-51l-12.6,32.9h-22.2l-12.1-32.8v50.9H749v-96h34.5l15.8,42.9l16.5-42.9H849z"/>
		<path d="M938.3,1198.1c0,9.8-2.9,17-8.7,21.6c-5.8,4.6-14.9,6.9-27.3,6.9h-41.5v-96h41.5c11.1,0,19.1,1.9,23.9,5.8
			c4.8,3.9,7.2,10.3,7.2,19.3c0,5.6-0.8,10-2.5,13.1c-1.6,3.1-4.4,5.4-8.3,6.8c5.4,1.2,9.4,3.7,11.9,7.4
			C937.1,1186.6,938.3,1191.6,938.3,1198.1z M908.3,1160.5c0-2.5-0.5-4.2-1.5-5.4c-1-1.1-2.6-1.7-4.8-1.7h-13.3v15H902
			c2.2,0,3.9-0.6,4.8-1.8C907.8,1165.4,908.3,1163.4,908.3,1160.5z M910.6,1195.3c0-2.8-0.6-4.7-1.9-5.9c-1.3-1.2-3.4-1.8-6.4-1.8
			h-13.6v15h13.6c3,0,5.1-0.6,6.4-1.7C910,1199.9,910.6,1198,910.6,1195.3z"/>
		<path d="M1013.7,1201v25.6h-67.1v-96h65.7v25h-37.4v10.9h31.7v23.3h-31.7v11.3H1013.7z"/>
		<path d="M1051.4,1196.5v30H1023v-96h36c15.4,0,26.3,2.6,32.7,7.7c6.4,5.2,9.6,13.8,9.6,26c0,7.3-1.4,13.2-4.2,17.9
			c-2.8,4.7-7.1,8.2-12.8,10.6l21,33.9h-32.5l-16.1-30H1051.4z M1072.3,1164.7c0-3.2-0.9-5.4-2.6-6.7c-1.7-1.3-4.9-2-9.3-2h-9v18.8
			h9c4.5,0,7.6-0.8,9.3-2.3C1071.5,1171,1072.3,1168.4,1072.3,1164.7z"/>
		<path d="M-294.8,937c0,9.8-2.9,17-8.7,21.6c-5.8,4.6-14.9,6.9-27.3,6.9h-41.5v-96h41.5c11.1,0,19.1,1.9,23.9,5.8
			c4.8,3.9,7.2,10.3,7.2,19.3c0,5.6-0.8,10-2.5,13.1c-1.6,3.1-4.4,5.4-8.3,6.8c5.4,1.2,9.4,3.7,11.9,7.4
			C-296.1,925.5-294.8,930.6-294.8,937z M-324.9,899.5c0-2.5-0.5-4.2-1.5-5.4c-1-1.1-2.6-1.7-4.8-1.7h-13.3v15h13.3
			c2.2,0,3.9-0.6,4.8-1.8C-325.3,904.4-324.9,902.3-324.9,899.5z M-322.6,934.3c0-2.8-0.6-4.7-1.9-5.9c-1.3-1.2-3.4-1.8-6.4-1.8
			h-13.6v15h13.6c3,0,5.1-0.6,6.4-1.7C-323.2,938.8-322.6,936.9-322.6,934.3z"/>
		<path d="M-224.4,938.8v26.7h-62.2v-96h28.3v69.4H-224.4z"/>
		<path d="M-194,965.5h-29.3l34.5-96h29.6l33.4,96H-155l-4-13.3h-31.2L-194,965.5z M-178,910.3c-1.2,4.2-2.3,8-3.3,11.4l-2.5,8.4
			h18.4l-2.5-8.4l-6.9-23.7C-175.8,901.9-176.9,906-178,910.3z"/>
		<path d="M-80.7,940.5c4.1,0,8.5-0.4,13.3-1.2c4.7-0.8,9-1.9,12.6-3.2v25.1c-5.6,2.2-10.7,3.8-15.2,4.7c-4.5,0.9-9.3,1.3-14.3,1.3
			c-9.2,0-16.5-1-21.8-3c-5.4-2-9.6-5.2-12.8-9.6c-2.7-3.9-4.6-8.9-6-15c-1.3-6.1-2-13.5-2-22.2c0-17.1,3.8-29.6,11.3-37.5
			c7.6-8,19.6-11.9,36.2-11.9c4.7,0,8.9,0.1,12.6,0.3c3.7,0.2,7,0.6,10,1.1v25c-3.3-0.2-6.7-0.4-10.3-0.5c-3.6-0.1-7.6-0.2-11.9-0.2
			c-7.5,0-12.4,1.7-14.7,5c-2.4,3.3-3.5,9.6-3.5,18.8c0,8.7,1.1,14.7,3.3,18.1C-91.9,938.8-87.4,940.5-80.7,940.5z"/>
		<path d="M11.5,915.9L44,965.5H8.6L-13.1,928h-5.1v37.5h-28.3v-96h28.3v36.2h5.1l22.4-36.2h33.7L11.5,915.9z"/>
		<path d="M-287.2,996.5v96H-314l-31.9-47.6v47.6h-26.5v-96h26.5l32.2,50.2v-50.2H-287.2z"/>
		<path d="M-185.6,1044.5c0,17.6-3.7,30.3-11,38.1c-7.3,7.8-19.1,11.7-35.3,11.7c-16.9,0-28.7-3.7-35.7-11.2
			c-6.9-7.5-10.4-20.3-10.4-38.6c0-17.4,3.6-29.9,11-37.8c7.3-7.8,19-11.7,35.2-11.7c16.8,0,28.8,3.7,35.8,11.1
			C-189.1,1013.5-185.6,1026.3-185.6,1044.5z M-249.2,1044.5c0,9.1,1.1,15.2,3.3,18.4c2.2,3.2,6.9,4.7,14,4.7c7.2,0,12-1.6,14.2-4.7
			c2.2-3.1,3.3-9.3,3.3-18.5c0-9.4-1.1-15.7-3.4-18.9c-2.2-3.2-6.9-4.8-14.1-4.8c-7.1,0-11.8,1.6-14,4.8
			C-248.1,1028.8-249.2,1035.1-249.2,1044.5z"/>
		<path d="M-154.8,1092.6l-32.2-96h31.2l12.7,46.4c0.6,2.4,1.5,5.8,2.5,10.5c1.1,4.6,2.2,10,3.4,16.2c1.3-6.7,2.5-12.3,3.4-16.6
			c0.9-4.3,1.7-7.6,2.3-9.7l12.4-46.7h30.2l-31.9,96H-154.8z"/>
		<path d="M-16.4,1067v25.6h-67.1v-96h65.7v25h-37.4v10.9h31.7v23.3h-31.7v11.3H-16.4z"/>
		<path d="M93,996.5v96H66.4v-51l-12.6,32.9H31.6l-12.1-32.8v50.9H-7v-96h34.5l15.8,42.9l16.5-42.9H93z"/>
		<path d="M182.3,1064.1c0,9.8-2.9,17-8.7,21.6s-14.9,6.9-27.3,6.9h-41.5v-96h41.5c11.1,0,19.1,1.9,23.9,5.8
			c4.8,3.9,7.2,10.3,7.2,19.3c0,5.6-0.8,10-2.5,13.1c-1.6,3.1-4.4,5.4-8.3,6.8c5.4,1.2,9.4,3.7,11.9,7.4
			C181.1,1052.6,182.3,1057.6,182.3,1064.1z M152.3,1026.5c0-2.5-0.5-4.2-1.5-5.4c-1-1.1-2.6-1.7-4.8-1.7h-13.3v15H146
			c2.2,0,3.9-0.6,4.8-1.8C151.8,1031.4,152.3,1029.4,152.3,1026.5z M154.6,1061.3c0-2.8-0.6-4.7-1.9-5.9c-1.3-1.2-3.4-1.8-6.4-1.8
			h-13.6v15h13.6c3,0,5.1-0.6,6.4-1.7C154,1065.9,154.6,1064,154.6,1061.3z"/>
		<path d="M257.7,1067v25.6h-67.1v-96h65.7v25h-37.4v10.9h31.7v23.3h-31.7v11.3H257.7z"/>
		<path d="M295.4,1062.5v30H267v-96h36c15.4,0,26.3,2.6,32.7,7.7c6.4,5.2,9.6,13.8,9.6,26c0,7.3-1.4,13.2-4.2,17.9
			c-2.8,4.7-7.1,8.2-12.8,10.6l21,33.9h-32.5l-16.1-30H295.4z M316.3,1030.7c0-3.2-0.9-5.4-2.6-6.7c-1.7-1.3-4.9-2-9.3-2h-9v18.8h9
			c4.5,0,7.6-0.8,9.3-2.3C315.5,1037,316.3,1034.4,316.3,1030.7z"/>
		<path d="M1671.2,1071c0,9.8-2.9,17-8.7,21.6c-5.8,4.6-14.9,6.9-27.3,6.9h-41.5v-96h41.5c11.1,0,19.1,1.9,23.9,5.8
			c4.8,3.9,7.2,10.3,7.2,19.3c0,5.6-0.8,10-2.5,13.1c-1.6,3.1-4.4,5.4-8.3,6.8c5.4,1.2,9.4,3.7,11.9,7.4
			C1669.9,1059.5,1671.2,1064.6,1671.2,1071z M1641.1,1033.5c0-2.5-0.5-4.2-1.5-5.4c-1-1.1-2.6-1.7-4.8-1.7h-13.3v15h13.3
			c2.2,0,3.9-0.6,4.8-1.8C1640.7,1038.4,1641.1,1036.3,1641.1,1033.5z M1643.4,1068.3c0-2.8-0.6-4.7-1.9-5.9
			c-1.3-1.2-3.4-1.8-6.4-1.8h-13.6v15h13.6c3,0,5.1-0.6,6.4-1.7C1642.8,1072.8,1643.4,1070.9,1643.4,1068.3z"/>
		<path d="M1741.6,1072.8v26.7h-62.2v-96h28.3v69.4H1741.6z"/>
		<path d="M1772,1099.5h-29.3l34.5-96h29.6l33.4,96H1811l-4-13.3h-31.2L1772,1099.5z M1788,1044.3c-1.2,4.2-2.3,8-3.3,11.4l-2.5,8.4
			h18.4l-2.5-8.4l-6.9-23.7C1790.2,1035.9,1789.1,1040,1788,1044.3z"/>
		<path d="M1885.3,1074.5c4.1,0,8.5-0.4,13.3-1.2c4.7-0.8,9-1.9,12.6-3.2v25.1c-5.6,2.2-10.7,3.8-15.2,4.7
			c-4.5,0.9-9.3,1.3-14.3,1.3c-9.2,0-16.5-1-21.8-3c-5.4-2-9.6-5.2-12.8-9.6c-2.7-3.9-4.6-8.9-6-15c-1.3-6.1-2-13.5-2-22.2
			c0-17.1,3.8-29.6,11.3-37.5c7.6-8,19.6-11.9,36.2-11.9c4.7,0,8.9,0.1,12.6,0.3c3.7,0.2,7,0.6,10,1.1v25c-3.3-0.2-6.7-0.4-10.3-0.5
			c-3.6-0.1-7.6-0.2-11.9-0.2c-7.5,0-12.4,1.7-14.7,5c-2.4,3.3-3.5,9.6-3.5,18.8c0,8.7,1.1,14.7,3.3,18.1
			C1874.1,1072.8,1878.6,1074.5,1885.3,1074.5z"/>
		<path d="M1977.5,1049.9l32.5,49.6h-35.4l-21.8-37.5h-5.1v37.5h-28.3v-96h28.3v36.2h5.1l22.4-36.2h33.7L1977.5,1049.9z"/>
		<path d="M1678.8,1130.5v96H1652l-31.9-47.6v47.6h-26.5v-96h26.5l32.2,50.2v-50.2H1678.8z"/>
		<path d="M1780.4,1178.5c0,17.6-3.7,30.3-11,38.1c-7.3,7.8-19.1,11.7-35.3,11.7c-16.9,0-28.7-3.7-35.7-11.2
			c-6.9-7.5-10.4-20.3-10.4-38.6c0-17.4,3.6-29.9,11-37.8c7.3-7.8,19-11.7,35.2-11.7c16.8,0,28.8,3.7,35.8,11.1
			C1776.9,1147.5,1780.4,1160.3,1780.4,1178.5z M1716.8,1178.5c0,9.1,1.1,15.2,3.3,18.4c2.2,3.2,6.9,4.7,14,4.7
			c7.2,0,12-1.6,14.2-4.7c2.2-3.1,3.3-9.3,3.3-18.5c0-9.4-1.1-15.7-3.4-18.9c-2.2-3.2-6.9-4.8-14.1-4.8c-7.1,0-11.8,1.6-14,4.8
			C1717.9,1162.8,1716.8,1169.1,1716.8,1178.5z"/>
		<path d="M1811.2,1226.6l-32.2-96h31.2l12.7,46.4c0.6,2.4,1.5,5.8,2.5,10.5c1.1,4.6,2.2,10,3.4,16.2c1.3-6.7,2.5-12.3,3.4-16.6
			c0.9-4.3,1.7-7.6,2.3-9.7l12.4-46.7h30.2l-31.9,96H1811.2z"/>
		<path d="M1949.6,1201v25.6h-67.1v-96h65.7v25h-37.4v10.9h31.7v23.3h-31.7v11.3H1949.6z"/>
		<path d="M2059,1130.5v96h-26.7v-51l-12.6,32.9h-22.2l-12.1-32.8v50.9H1959v-96h34.5l15.8,42.9l16.5-42.9H2059z"/>
		<path d="M2148.3,1198.1c0,9.8-2.9,17-8.7,21.6c-5.8,4.6-14.9,6.9-27.3,6.9h-41.5v-96h41.5c11.1,0,19.1,1.9,23.9,5.8
			c4.8,3.9,7.2,10.3,7.2,19.3c0,5.6-0.8,10-2.5,13.1c-1.6,3.1-4.4,5.4-8.3,6.8c5.4,1.2,9.4,3.7,11.9,7.4
			C2147.1,1186.6,2148.3,1191.6,2148.3,1198.1z M2118.3,1160.5c0-2.5-0.5-4.2-1.5-5.4c-1-1.1-2.6-1.7-4.8-1.7h-13.3v15h13.3
			c2.2,0,3.9-0.6,4.8-1.8C2117.8,1165.4,2118.3,1163.4,2118.3,1160.5z M2120.6,1195.3c0-2.8-0.6-4.7-1.9-5.9
			c-1.3-1.2-3.4-1.8-6.4-1.8h-13.6v15h13.6c3,0,5.1-0.6,6.4-1.7C2120,1199.9,2120.6,1198,2120.6,1195.3z"/>
		<path d="M2223.7,1201v25.6h-67.1v-96h65.7v25h-37.4v10.9h31.7v23.3h-31.7v11.3H2223.7z"/>
		<path d="M2261.4,1196.5v30H2233v-96h36c15.4,0,26.3,2.6,32.7,7.7c6.4,5.2,9.6,13.8,9.6,26c0,7.3-1.4,13.2-4.2,17.9
			c-2.8,4.7-7.1,8.2-12.8,10.6l21,33.9h-32.5l-16.1-30H2261.4z M2282.3,1164.7c0-3.2-0.9-5.4-2.6-6.7c-1.7-1.3-4.9-2-9.3-2h-9v18.8
			h9c4.5,0,7.6-0.8,9.3-2.3C2281.5,1171,2282.3,1168.4,2282.3,1164.7z"/>
		<path d="M-453.4,301.6c0,9.8-2.9,17-8.7,21.6c-5.8,4.6-14.9,6.9-27.3,6.9h-41.5v-96h41.5c11.1,0,19.1,1.9,23.9,5.8
			c4.8,3.9,7.2,10.3,7.2,19.3c0,5.6-0.8,10-2.5,13.1c-1.6,3.1-4.4,5.4-8.3,6.8c5.4,1.2,9.4,3.7,11.9,7.4
			C-454.7,290.1-453.4,295.2-453.4,301.6z M-483.5,264.1c0-2.5-0.5-4.2-1.5-5.4c-1-1.1-2.6-1.7-4.8-1.7h-13.3v15h13.3
			c2.2,0,3.9-0.6,4.8-1.8C-483.9,269-483.5,266.9-483.5,264.1z M-481.2,298.9c0-2.8-0.6-4.7-1.9-5.9c-1.3-1.2-3.4-1.8-6.4-1.8h-13.6
			v15h13.6c3,0,5.1-0.6,6.4-1.7C-481.8,303.4-481.2,301.5-481.2,298.9z"/>
		<path d="M-383,303.4v26.7h-62.2v-96h28.3v69.4H-383z"/>
		<path d="M-352.6,330.1h-29.3l34.5-96h29.6l33.4,96h-29.1l-4-13.3h-31.2L-352.6,330.1z M-336.6,274.9c-1.2,4.2-2.3,8-3.3,11.4
			l-2.5,8.4h18.4l-2.5-8.4l-6.9-23.7C-334.4,266.5-335.5,270.6-336.6,274.9z"/>
		<path d="M-239.3,305.1c4.1,0,8.5-0.4,13.3-1.2c4.7-0.8,9-1.9,12.6-3.2v25.1c-5.6,2.2-10.7,3.8-15.2,4.7c-4.5,0.9-9.3,1.3-14.3,1.3
			c-9.2,0-16.5-1-21.8-3c-5.4-2-9.6-5.2-12.8-9.6c-2.7-3.9-4.6-8.9-6-15c-1.3-6.1-2-13.5-2-22.2c0-17.1,3.8-29.6,11.3-37.5
			c7.6-8,19.6-11.9,36.2-11.9c4.7,0,8.9,0.1,12.6,0.3c3.7,0.2,7,0.6,10,1.1v25c-3.3-0.2-6.7-0.4-10.3-0.5c-3.6-0.1-7.6-0.2-11.9-0.2
			c-7.5,0-12.4,1.7-14.7,5c-2.4,3.3-3.5,9.6-3.5,18.8c0,8.7,1.1,14.7,3.3,18.1C-250.5,303.4-246,305.1-239.3,305.1z"/>
		<path d="M-147.1,280.5l32.5,49.6H-150l-21.8-37.5h-5.1v37.5h-28.3v-96h28.3v36.2h5.1l22.4-36.2h33.7L-147.1,280.5z"/>
		<path d="M-445.8,361.1v96h-26.8l-31.9-47.6v47.6h-26.5v-96h26.5l32.2,50.2v-50.2H-445.8z"/>
		<path d="M-344.2,409.1c0,17.6-3.7,30.3-11,38.1c-7.3,7.8-19.1,11.7-35.3,11.7c-16.8,0-28.7-3.7-35.7-11.2
			c-6.9-7.5-10.4-20.3-10.4-38.6c0-17.4,3.7-29.9,11-37.8c7.3-7.8,19-11.7,35.2-11.7c16.8,0,28.8,3.7,35.8,11.1
			C-347.7,378.1-344.2,390.9-344.2,409.1z M-407.8,409.1c0,9.1,1.1,15.2,3.3,18.4c2.2,3.2,6.9,4.7,14,4.7c7.2,0,12-1.6,14.2-4.7
			c2.2-3.1,3.3-9.3,3.3-18.5c0-9.4-1.1-15.7-3.4-18.9c-2.2-3.2-6.9-4.8-14.1-4.8c-7.1,0-11.8,1.6-14,4.8
			C-406.7,393.4-407.8,399.7-407.8,409.1z"/>
		<path d="M-313.4,457.2l-32.2-96h31.2l12.7,46.4c0.6,2.4,1.5,5.8,2.5,10.5c1.1,4.6,2.2,10,3.4,16.2c1.3-6.7,2.5-12.3,3.4-16.6
			c0.9-4.3,1.7-7.6,2.3-9.7l12.4-46.7h30.2l-31.9,96H-313.4z"/>
		<path d="M-175,431.6v25.6H-242v-96h65.7v25h-37.4V397h31.7v23.3h-31.7v11.3H-175z"/>
		<path d="M-65.6,361.1v96h-26.7v-51l-12.6,32.9H-127l-12.1-32.8v50.9h-26.5v-96h34.5l15.8,42.9l16.5-42.9H-65.6z"/>
		<path d="M23.7,428.7c0,9.8-2.9,17-8.7,21.6c-5.8,4.6-14.9,6.9-27.3,6.9h-41.5v-96h41.5c11.1,0,19.1,1.9,23.9,5.8
			c4.8,3.9,7.2,10.3,7.2,19.3c0,5.6-0.8,10-2.5,13.1c-1.6,3.1-4.4,5.4-8.3,6.8c5.4,1.2,9.4,3.7,11.9,7.4
			C22.5,417.2,23.7,422.2,23.7,428.7z M-6.3,391.1c0-2.5-0.5-4.2-1.5-5.4c-1-1.1-2.6-1.7-4.8-1.7h-13.3v15h13.3
			c2.2,0,3.9-0.6,4.8-1.8C-6.8,396-6.3,394-6.3,391.1z M-4,425.9c0-2.8-0.6-4.7-1.9-5.9c-1.3-1.2-3.4-1.8-6.4-1.8h-13.6v15h13.6
			c3,0,5.1-0.6,6.4-1.7C-4.6,430.5-4,428.6-4,425.9z"/>
		<path d="M99.1,431.6v25.6H32v-96h65.7v25H60.3V397H92v23.3H60.3v11.3H99.1z"/>
		<path d="M136.8,427.1v30h-28.3v-96h36c15.4,0,26.3,2.6,32.7,7.7c6.4,5.2,9.6,13.8,9.6,26c0,7.3-1.4,13.2-4.2,17.9
			c-2.8,4.7-7.1,8.2-12.8,10.6l21,33.9h-32.5l-16.1-30H136.8z M157.8,395.3c0-3.2-0.9-5.4-2.6-6.7c-1.7-1.3-4.9-2-9.3-2h-9v18.8h9
			c4.5,0,7.6-0.8,9.3-2.3C156.9,401.6,157.8,399,157.8,395.3z"/>
		<path d="M-149.4,556.5c0,9.8-2.9,17-8.7,21.6c-5.8,4.6-14.9,6.9-27.3,6.9h-41.5v-96h41.5c11.1,0,19.1,1.9,23.9,5.8
			c4.8,3.9,7.2,10.3,7.2,19.3c0,5.6-0.8,10-2.5,13.1c-1.6,3.1-4.4,5.4-8.3,6.8c5.4,1.2,9.4,3.7,11.9,7.4
			C-150.6,545-149.4,550-149.4,556.5z M-179.4,518.9c0-2.5-0.5-4.2-1.5-5.4c-1-1.1-2.6-1.7-4.8-1.7H-199v15h13.3
			c2.2,0,3.9-0.6,4.8-1.8C-179.9,523.8-179.4,521.8-179.4,518.9z M-177.1,553.7c0-2.8-0.6-4.7-1.9-5.9c-1.3-1.2-3.4-1.8-6.4-1.8
			H-199v15h13.6c3,0,5.1-0.6,6.4-1.7C-177.7,558.3-177.1,556.4-177.1,553.7z"/>
		<path d="M-78.9,558.3V585h-62.2v-96h28.3v69.4H-78.9z"/>
		<path d="M-48.6,585h-29.3l34.5-96h29.6l33.4,96H-9.5l-4-13.3h-31.2L-48.6,585z M-32.6,529.7c-1.2,4.2-2.3,8-3.3,11.4l-2.5,8.4
			h18.4l-2.5-8.4l-6.9-23.7C-30.3,521.4-31.4,525.5-32.6,529.7z"/>
		<path d="M64.8,560c4.1,0,8.5-0.4,13.2-1.2c4.7-0.8,9-1.9,12.6-3.2v25.1c-5.6,2.2-10.7,3.8-15.2,4.7c-4.5,0.9-9.3,1.3-14.3,1.3
			c-9.2,0-16.5-1-21.8-3c-5.4-2-9.6-5.2-12.8-9.6c-2.7-3.9-4.6-8.9-6-15c-1.3-6.1-2-13.5-2-22.2c0-17.1,3.8-29.6,11.3-37.5
			c7.6-8,19.6-11.9,36.2-11.9c4.7,0,8.9,0.1,12.6,0.3c3.7,0.2,7,0.6,10,1.1v25c-3.3-0.2-6.7-0.4-10.3-0.5c-3.6-0.1-7.6-0.2-11.9-0.2
			c-7.5,0-12.4,1.7-14.7,5c-2.4,3.3-3.5,9.6-3.5,18.8c0,8.7,1.1,14.7,3.3,18.1C53.6,558.3,58,560,64.8,560z"/>
		<path d="M157,535.3l32.5,49.6h-35.4l-21.8-37.5h-5.1V585H98.9v-96h28.3v36.2h5.1l22.4-36.2h33.7L157,535.3z"/>
		<path d="M-141.7,616v96h-26.8l-31.9-47.6V712h-26.5v-96h26.5l32.2,50.2V616H-141.7z"/>
		<path d="M-40.1,663.9c0,17.6-3.7,30.3-11,38.1c-7.3,7.8-19.1,11.7-35.3,11.7c-16.8,0-28.7-3.7-35.7-11.2
			c-6.9-7.5-10.4-20.3-10.4-38.6c0-17.4,3.7-29.9,11-37.8c7.3-7.8,19-11.7,35.2-11.7c16.8,0,28.8,3.7,35.8,11.1
			C-43.6,633-40.1,645.8-40.1,663.9z M-103.7,663.9c0,9.1,1.1,15.2,3.3,18.4c2.2,3.2,6.9,4.7,14,4.7c7.2,0,12-1.6,14.2-4.7
			c2.2-3.1,3.3-9.3,3.3-18.5c0-9.4-1.1-15.7-3.4-18.9c-2.2-3.2-6.9-4.8-14.1-4.8c-7.1,0-11.8,1.6-14,4.8
			C-102.6,648.2-103.7,654.5-103.7,663.9z"/>
		<path d="M-9.4,712l-32.2-96h31.2l12.7,46.4c0.6,2.4,1.5,5.8,2.5,10.5c1.1,4.6,2.2,10,3.4,16.2c1.3-6.7,2.5-12.3,3.4-16.6
			c0.9-4.3,1.7-7.6,2.3-9.7L26.5,616h30.2l-31.9,96H-9.4z"/>
		<path d="M129.1,686.4V712H62v-96h65.7v25H90.4v10.9h31.7v23.3H90.4v11.3H129.1z"/>
		<path d="M238.5,616v96h-26.7v-51L199.3,694h-22.2L165,661.2V712h-26.5v-96h34.5l15.8,42.9l16.5-42.9H238.5z"/>
		<path d="M327.8,683.5c0,9.8-2.9,17-8.7,21.6c-5.8,4.6-14.9,6.9-27.3,6.9h-41.5v-96h41.5c11.1,0,19.1,1.9,23.9,5.8
			c4.8,3.9,7.2,10.3,7.2,19.3c0,5.6-0.8,10-2.5,13.1c-1.6,3.1-4.4,5.4-8.3,6.8c5.4,1.2,9.4,3.7,11.9,7.4
			C326.5,672,327.8,677.1,327.8,683.5z M297.8,646c0-2.5-0.5-4.2-1.5-5.4c-1-1.1-2.6-1.7-4.8-1.7h-13.3v15h13.3
			c2.2,0,3.9-0.6,4.8-1.8C297.3,650.9,297.8,648.9,297.8,646z M300.1,680.8c0-2.8-0.6-4.7-1.9-5.9c-1.3-1.2-3.4-1.8-6.4-1.8h-13.6
			v15h13.6c3,0,5.1-0.6,6.4-1.7C299.4,685.3,300.1,683.4,300.1,680.8z"/>
		<path d="M403.2,686.4V712h-67.1v-96h65.7v25h-37.4v10.9h31.7v23.3h-31.7v11.3H403.2z"/>
		<path d="M440.8,682v30h-28.3v-96h36c15.4,0,26.3,2.6,32.7,7.7c6.4,5.2,9.6,13.8,9.6,26c0,7.3-1.4,13.2-4.2,17.9
			c-2.8,4.7-7.1,8.2-12.8,10.6l21,33.9h-32.5l-16.1-30H440.8z M461.8,650.1c0-3.2-0.9-5.4-2.6-6.7c-1.7-1.3-4.9-2-9.3-2h-9v18.8h9
			c4.5,0,7.6-0.8,9.3-2.3C461,656.4,461.8,653.8,461.8,650.1z"/>
		<path d="M-605.4,680.5c0,9.8-2.9,17-8.7,21.6c-5.8,4.6-14.9,6.9-27.3,6.9h-41.5v-96h41.5c11.1,0,19.1,1.9,23.9,5.8
			c4.8,3.9,7.2,10.3,7.2,19.3c0,5.6-0.8,10-2.5,13.1c-1.6,3.1-4.4,5.4-8.3,6.8c5.4,1.2,9.4,3.7,11.9,7.4
			C-606.6,669-605.4,674-605.4,680.5z M-635.4,642.9c0-2.5-0.5-4.2-1.5-5.4c-1-1.1-2.6-1.7-4.8-1.7H-655v15h13.3
			c2.2,0,3.9-0.6,4.8-1.8C-635.9,647.8-635.4,645.8-635.4,642.9z M-633.1,677.7c0-2.8-0.6-4.7-1.9-5.9c-1.3-1.2-3.4-1.8-6.4-1.8
			H-655v15h13.6c3,0,5.1-0.6,6.4-1.7C-633.7,682.3-633.1,680.4-633.1,677.7z"/>
		<path d="M-534.9,682.3V709h-62.2v-96h28.3v69.4H-534.9z"/>
		<path d="M-504.6,709h-29.3l34.5-96h29.6l33.4,96h-29.1l-4-13.3h-31.2L-504.6,709z M-488.6,653.7c-1.2,4.2-2.3,8-3.3,11.4l-2.5,8.4
			h18.4l-2.5-8.4l-6.9-23.7C-486.3,645.4-487.4,649.5-488.6,653.7z"/>
		<path d="M-391.2,684c4.1,0,8.5-0.4,13.3-1.2c4.7-0.8,9-1.9,12.6-3.2v25.1c-5.6,2.2-10.7,3.8-15.2,4.7c-4.5,0.9-9.3,1.3-14.3,1.3
			c-9.2,0-16.5-1-21.8-3c-5.4-2-9.6-5.2-12.8-9.6c-2.7-3.9-4.6-8.9-6-15c-1.3-6.1-2-13.5-2-22.2c0-17.1,3.8-29.6,11.3-37.5
			c7.6-8,19.6-11.9,36.2-11.9c4.7,0,8.9,0.1,12.6,0.3c3.7,0.2,7,0.6,10,1.1v25c-3.3-0.2-6.7-0.4-10.3-0.5c-3.6-0.1-7.6-0.2-11.9-0.2
			c-7.5,0-12.4,1.7-14.7,5c-2.4,3.3-3.5,9.6-3.5,18.8c0,8.7,1.1,14.7,3.3,18.1C-402.4,682.3-398,684-391.2,684z"/>
		<path d="M-299,659.3l32.5,49.6h-35.4l-21.8-37.5h-5.1V709h-28.3v-96h28.3v36.2h5.1l22.4-36.2h33.7L-299,659.3z"/>
		<path d="M-597.7,740v96h-26.8l-31.9-47.6V836h-26.5v-96h26.5l32.2,50.2V740H-597.7z"/>
		<path d="M-496.1,787.9c0,17.6-3.7,30.3-11,38.1c-7.3,7.8-19.1,11.7-35.3,11.7c-16.8,0-28.7-3.7-35.7-11.2
			c-6.9-7.5-10.4-20.3-10.4-38.6c0-17.4,3.7-29.9,11-37.8c7.3-7.8,19-11.7,35.2-11.7c16.8,0,28.8,3.7,35.8,11.1
			C-499.6,757-496.1,769.8-496.1,787.9z M-559.7,787.9c0,9.1,1.1,15.2,3.3,18.4c2.2,3.2,6.9,4.7,14,4.7c7.2,0,12-1.6,14.2-4.7
			c2.2-3.1,3.3-9.3,3.3-18.5c0-9.4-1.1-15.7-3.4-18.9c-2.2-3.2-6.9-4.8-14.1-4.8c-7.1,0-11.8,1.6-14,4.8
			C-558.6,772.2-559.7,778.5-559.7,787.9z"/>
		<path d="M-465.4,836l-32.2-96h31.2l12.7,46.4c0.6,2.4,1.5,5.8,2.5,10.5c1.1,4.6,2.2,10,3.4,16.2c1.3-6.7,2.5-12.3,3.4-16.6
			c0.9-4.3,1.7-7.6,2.3-9.7l12.4-46.7h30.2l-31.9,96H-465.4z"/>
		<path d="M-326.9,810.4V836H-394v-96h65.7v25h-37.4v10.9h31.7v23.3h-31.7v11.3H-326.9z"/>
		<path d="M-217.5,740v96h-26.7v-51l-12.6,32.9h-22.2l-12.1-32.8V836h-26.5v-96h34.5l15.8,42.9l16.5-42.9H-217.5z"/>
		<path d="M-128.2,807.5c0,9.8-2.9,17-8.7,21.6c-5.8,4.6-14.9,6.9-27.3,6.9h-41.5v-96h41.5c11.1,0,19.1,1.9,23.9,5.8
			c4.8,3.9,7.2,10.3,7.2,19.3c0,5.6-0.8,10-2.5,13.1c-1.6,3.1-4.4,5.4-8.3,6.8c5.4,1.2,9.4,3.7,11.9,7.4
			C-129.5,796-128.2,801.1-128.2,807.5z M-158.2,770c0-2.5-0.5-4.2-1.5-5.4c-1-1.1-2.6-1.7-4.8-1.7h-13.3v15h13.3
			c2.2,0,3.9-0.6,4.8-1.8C-158.7,774.9-158.2,772.9-158.2,770z M-155.9,804.8c0-2.8-0.6-4.7-1.9-5.9c-1.3-1.2-3.4-1.8-6.4-1.8h-13.6
			v15h13.6c3,0,5.1-0.6,6.4-1.7C-156.6,809.3-155.9,807.4-155.9,804.8z"/>
		<path d="M-52.8,810.4V836h-67.1v-96h65.7v25h-37.4v10.9h31.7v23.3h-31.7v11.3H-52.8z"/>
		<path d="M-15.2,806v30h-28.3v-96h36c15.4,0,26.3,2.6,32.7,7.7c6.4,5.2,9.6,13.8,9.6,26c0,7.3-1.4,13.2-4.2,17.9
			c-2.8,4.7-7.1,8.2-12.8,10.6l21,33.9H6.3l-16.1-30H-15.2z M5.8,774.1c0-3.2-0.9-5.4-2.6-6.7c-1.7-1.3-4.9-2-9.3-2h-9v18.8h9
			c4.5,0,7.6-0.8,9.3-2.3C5,780.4,5.8,777.8,5.8,774.1z"/>
	</g>
</g>



<g id="headerX">
	<mask id="mask">
		<path d="M756.5,384.4c15.1-15.1,26.1-27.2,32.9-36.2c6.8-9,11.8-17.6,15-25.9c3.2-8.2,4.8-16.7,4.8-25.3
			c0-20.6-6.4-36.3-19.3-47.3c-12.9-11-31.2-16.5-55-16.5c-14.8,0-28.2,3.2-40.2,9.7c-12,6.5-21.4,15.4-28.1,26.8
			c-6.8,11.4-10.1,23.9-10.1,37.4h51.1c0-9.9,2.4-18.1,7.3-24.7c4.8-6.6,11.1-9.9,18.9-9.9c7.9,0,13.9,2.5,18,7.4
			c4.1,4.9,6.2,12.2,6.2,21.6c0,11.7-8.7,27.5-26.2,47.3l-70.8,74.4v33.3h153.7v-39.3h-86.7L756.5,384.4z"/>
		<polygon points="981.4,342.6 1040,234.4 968.1,234.4 935.9,295.6 904.6,234.4 831.9,234.4 890.3,342.6 
			828.6,456.6 901.4,456.6 935.6,390.8 970.6,456.6 1042.9,456.6 		"/>
	</mask>
	<svg mask="#mask" width="100%" height="100%">
	<gradientRect width="100%" height="100%" fill="cyan"
	  gradient-type="bilinear"
	  gradient-x1="10%" gradient-y1="10%"
	  gradient-x2="80%" gradient-y2="80%"
	  gradient-color2="yellow"
	  gradient-color3="magenta"
	  gradient-color4="green"/>
	</svg>
</g>




<g id="blackNovText">
	<g>
		<path fill="#FF0000" d="M280.5,451.7c5.8-4.6,8.7-11.8,8.7-21.6c0-6.4-1.3-11.5-3.8-15.2c-2.5-3.7-6.5-6.1-11.9-7.4
			c3.9-1.4,6.6-3.7,8.3-6.8c1.6-3.1,2.5-7.5,2.5-13.1c0-9-2.4-15.4-7.2-19.3c-4.8-3.9-12.8-5.8-23.9-5.8h-41.5v96h41.5
			C265.6,458.6,274.7,456.3,280.5,451.7z M239.6,385.6h13.3c2.2,0,3.9,0.6,4.8,1.7c1,1.1,1.5,2.9,1.5,5.4c0,2.9-0.5,4.9-1.5,6.1
			c-1,1.2-2.6,1.8-4.8,1.8h-13.3V385.6z M239.6,419.7h13.6c3,0,5.1,0.6,6.4,1.8c1.3,1.2,1.9,3.1,1.9,5.9c0,2.7-0.6,4.5-1.9,5.7
			c-1.3,1.1-3.4,1.7-6.4,1.7h-13.6V419.7z"/>
		<polygon fill="#FF0000" points="359.7,432 325.8,432 325.8,362.6 297.5,362.6 297.5,458.6 359.7,458.6 		"/>
		<path fill="#FF0000" d="M393.8,445.3h31.2l4,13.3h29.1l-33.4-96h-29.6l-34.5,96H390L393.8,445.3z M402.7,414.8
			c1-3.4,2.1-7.2,3.3-11.4c1.2-4.2,2.3-8.3,3.3-12.3l6.9,23.7l2.5,8.4h-18.4L402.7,414.8z"/>
		<path fill="#FF0000" d="M529.2,454.3v-25.1c-3.7,1.3-7.9,2.4-12.6,3.2c-4.7,0.8-9.2,1.2-13.2,1.2c-6.7,0-11.2-1.7-13.4-5.1
			c-2.2-3.4-3.3-9.4-3.3-18.1c0-9.2,1.2-15.4,3.5-18.8c2.3-3.3,7.3-5,14.7-5c4.4,0,8.4,0.1,11.9,0.2c3.6,0.1,7,0.3,10.3,0.5v-25
			c-3-0.5-6.3-0.9-10-1.1c-3.7-0.2-7.9-0.3-12.6-0.3c-16.5,0-28.6,4-36.2,11.9c-7.6,8-11.3,20.5-11.3,37.5c0,8.7,0.7,16.1,2,22.2
			c1.3,6.1,3.3,11.1,6,15c3.2,4.4,7.4,7.6,12.8,9.6c5.4,2,12.6,3,21.8,3c5,0,9.8-0.4,14.3-1.3C518.5,458.2,523.6,456.6,529.2,454.3z
			"/>
		<polygon fill="#FF0000" points="628,458.6 595.6,409 627,362.6 593.3,362.6 570.9,398.7 565.8,398.7 565.8,362.6 537.5,362.6 
			537.5,458.6 565.8,458.6 565.8,421.1 570.9,421.1 592.7,458.6 		"/>
		<polygon fill="#FF0000" points="270.4,539.9 238.2,489.7 211.7,489.7 211.7,585.7 238.2,585.7 238.2,538.1 270.1,585.7 
			296.9,585.7 296.9,489.7 270.4,489.7 		"/>
		<path fill="#FF0000" d="M352.2,488.1c-16.1,0-27.9,3.9-35.2,11.7c-7.3,7.8-11,20.4-11,37.8c0,18.3,3.5,31.1,10.4,38.6
			c6.9,7.5,18.8,11.2,35.7,11.2c16.2,0,28-3.9,35.3-11.7c7.3-7.8,11-20.5,11-38.1c0-18.2-3.5-31-10.5-38.4
			C380.9,491.8,369,488.1,352.2,488.1z M366.3,556.1c-2.2,3.1-6.9,4.7-14.2,4.7c-7.1,0-11.8-1.6-14-4.7c-2.2-3.2-3.3-9.3-3.3-18.4
			c0-9.4,1.1-15.7,3.3-18.9c2.2-3.2,6.9-4.8,14-4.8s11.8,1.6,14.1,4.8c2.2,3.2,3.4,9.5,3.4,18.9
			C369.6,546.8,368.5,552.9,366.3,556.1z"/>
		<path fill="#FF0000" d="M452.6,536.4c-0.6,2.1-1.4,5.4-2.3,9.7c-0.9,4.3-2,9.9-3.4,16.6c-1.2-6.1-2.4-11.5-3.4-16.2
			c-1.1-4.6-1.9-8.1-2.5-10.5l-12.7-46.4H397l32.2,96h34.2l31.9-96h-30.2L452.6,536.4z"/>
		<polygon fill="#FF0000" points="528.9,548.8 560.6,548.8 560.6,525.5 528.9,525.5 528.9,514.6 566.3,514.6 566.3,489.7 
			500.6,489.7 500.6,585.7 567.7,585.7 567.7,560.1 528.9,560.1 		"/>
		<polygon fill="#FF0000" points="627.3,532.5 611.5,489.7 577,489.7 577,585.7 603.5,585.7 603.5,534.8 615.6,567.6 637.8,567.6 
			650.4,534.7 650.4,585.7 677.1,585.7 677.1,489.7 643.8,489.7 		"/>
		<path fill="#FF0000" d="M750.7,534.7c3.9-1.4,6.6-3.7,8.3-6.8c1.6-3.1,2.5-7.5,2.5-13.1c0-9-2.4-15.4-7.2-19.3
			c-4.8-3.9-12.8-5.8-23.9-5.8h-41.5v96h41.5c12.4,0,21.4-2.3,27.3-6.9c5.8-4.6,8.7-11.8,8.7-21.6c0-6.4-1.3-11.5-3.8-15.2
			C760.1,538.4,756.1,535.9,750.7,534.7z M716.7,512.6h13.3c2.2,0,3.9,0.6,4.8,1.7c1,1.1,1.5,2.9,1.5,5.4c0,2.9-0.5,4.9-1.5,6.1
			c-1,1.2-2.6,1.8-4.8,1.8h-13.3V512.6z M736.7,560.1c-1.3,1.1-3.4,1.7-6.4,1.7h-13.6v-15h13.6c3,0,5.1,0.6,6.4,1.8
			c1.3,1.2,1.9,3.1,1.9,5.9C738.6,557.1,738,559,736.7,560.1z"/>
		<polygon fill="#FF0000" points="803,548.8 834.7,548.8 834.7,525.5 803,525.5 803,514.6 840.3,514.6 840.3,489.7 774.6,489.7 
			774.6,585.7 841.7,585.7 841.7,560.1 803,560.1 		"/>
		<path fill="#FF0000" d="M912.3,551.8c5.7-2.3,10-5.9,12.8-10.6c2.8-4.7,4.2-10.7,4.2-17.9c0-12.2-3.2-20.8-9.6-26
			c-6.4-5.2-17.3-7.7-32.7-7.7h-36v96h28.3v-30h5.4l16.1,30h32.5L912.3,551.8z M897.8,531.6c-1.7,1.5-4.9,2.3-9.3,2.3h-9v-18.8h9
			c4.5,0,7.6,0.7,9.3,2c1.7,1.3,2.6,3.6,2.6,6.7C900.4,527.5,899.5,530.1,897.8,531.6z"/>
	</g>
</g>
</svg>
