<?xml version="1.0" encoding="utf-8"?>
<!-- Generator: Adobe Illustrator 22.0.1, SVG Export Plug-In . SVG Version: 6.00 Build 0)  -->
<svg version="1.1" baseProfile="tiny" id="Layer_1" xmlns="http://www.w3.org/2000/svg" xmlns:xlink="http://www.w3.org/1999/xlink"
	 x="0px" y="0px" viewBox="0 0 164.3 127.4" xml:space="preserve">
<g>
	<path fill="#FFA400" d="M143.5,42.7H134v-4.9c0-3.9-3.2-7.1-7.1-7.1c-3.9,0-7.1,3.2-7.1,7.1v4.9h-9.5v-4.9
		c0-9.2,7.5-16.6,16.6-16.6s16.6,7.5,16.6,16.6V42.7z"/>
</g>
<path fill="#FFFFFF" d="M147.4,42.7h-41c-1.8,0-3.2,1.4-3.2,3.2v30.3c0,1.8,1.4,3.2,3.2,3.2h41c1.8,0,3.2-1.4,3.2-3.2V45.9
	C150.6,44.1,149.1,42.7,147.4,42.7z M129,62.6v4.1c0,1.1-0.9,2.1-2.1,2.1c-1.1,0-2.1-0.9-2.1-2.1v-4.1c-1.3-0.7-2.1-2.1-2.1-3.7
	c0-2.3,1.9-4.2,4.2-4.2s4.2,1.9,4.2,4.2C131.1,60.5,130.3,61.9,129,62.6z"/>
<path fill="#FFA400" d="M102.2,38.2h-9.9c-1.6,0-2.9-1.3-2.9-2.9c0-1.6,1.3-2.9,2.9-2.9h9.9c1.6,0,2.9,1.3,2.9,2.9
	C105.2,36.9,103.9,38.2,102.2,38.2z"/>
<path fill="#FFA400" d="M109.2,22.6c-0.6,0-1.3-0.2-1.8-0.7l-7.8-6.4c-1.2-1-1.4-2.8-0.4-4.1c1-1.2,2.8-1.4,4.1-0.4l7.8,6.4
	c1.2,1,1.4,2.8,0.4,4.1C110.9,22.3,110.1,22.6,109.2,22.6z"/>
<path fill="#FFA400" d="M126.9,15.8c-1.6,0-2.9-1.3-2.9-2.9v-10c0-1.6,1.3-2.9,2.9-2.9s2.9,1.3,2.9,2.9v10
	C129.8,14.5,128.5,15.8,126.9,15.8z"/>
<g>
	<path fill="#FFA400" d="M144.6,22.6c-0.8,0-1.7-0.4-2.2-1.1c-1-1.2-0.8-3.1,0.4-4.1l7.8-6.4c1.2-1,3.1-0.8,4.1,0.4
		c1,1.2,0.8,3.1-0.4,4.1l-7.8,6.4C145.9,22.4,145.2,22.6,144.6,22.6z"/>
</g>
<path fill="#FFA400" d="M161.4,38.2h-10c-1.6,0-2.9-1.3-2.9-2.9c0-1.6,1.3-2.9,2.9-2.9h10c1.6,0,2.9,1.3,2.9,2.9
	C164.3,36.9,163,38.2,161.4,38.2z"/>
<path fill="#FFFFFF" d="M0,79V46.8h7.8v25.5h12.5V79H0z"/>
<path fill="#FFFFFF" d="M46.2,68c0,0.3,0,0.6,0,0.9c0,0.3,0,0.6,0,0.9H29.6c0.1,0.6,0.3,1.2,0.6,1.7c0.3,0.5,0.7,1,1.2,1.3
	c0.5,0.4,1.1,0.7,1.7,0.9c0.6,0.2,1.3,0.3,1.9,0.3c1.2,0,2.2-0.2,3-0.7c0.8-0.4,1.5-1,2-1.7l5.2,3.3c-1.1,1.6-2.5,2.7-4.2,3.6
	c-1.7,0.8-3.8,1.3-6.1,1.3c-1.7,0-3.3-0.3-4.8-0.8c-1.5-0.5-2.8-1.3-4-2.3c-1.1-1-2-2.3-2.7-3.8c-0.7-1.5-1-3.2-1-5.1
	c0-1.9,0.3-3.5,1-5c0.6-1.5,1.5-2.8,2.6-3.8s2.4-1.9,3.9-2.4c1.5-0.6,3.1-0.9,4.8-0.9c1.7,0,3.2,0.3,4.6,0.8
	c1.4,0.6,2.6,1.4,3.6,2.4c1,1.1,1.8,2.4,2.3,3.9C45.9,64.3,46.2,66,46.2,68z M39.3,65.1c0-1.2-0.4-2.2-1.1-3.1
	c-0.7-0.9-1.9-1.3-3.4-1.3c-0.7,0-1.4,0.1-2,0.3c-0.6,0.2-1.1,0.5-1.6,0.9c-0.5,0.4-0.8,0.9-1.1,1.4c-0.3,0.5-0.4,1.1-0.5,1.7H39.3z
	"/>
<path fill="#FFFFFF" d="M58.1,61.9v8.7c0,1.1,0.2,1.9,0.6,2.4c0.4,0.5,1.1,0.8,2.2,0.8c0.4,0,0.8,0,1.2-0.1c0.4-0.1,0.8-0.2,1-0.3
	l0.1,5.5c-0.5,0.2-1.2,0.3-2,0.5c-0.8,0.1-1.6,0.2-2.4,0.2c-1.5,0-2.8-0.2-3.8-0.6c-1-0.4-1.9-0.9-2.5-1.6c-0.6-0.7-1.1-1.6-1.3-2.6
	s-0.4-2.1-0.4-3.3v-9.6h-3.6v-5.6h3.6v-6h7.3v6h5.3v5.6H58.1z"/>
<path fill="#FFFFFF" d="M87.6,63c-0.6-0.6-1.3-1.1-2.1-1.5c-0.8-0.4-1.7-0.6-2.6-0.6c-0.7,0-1.3,0.1-1.9,0.4
	c-0.6,0.3-0.9,0.7-0.9,1.4c0,0.6,0.3,1.1,1,1.4c0.7,0.3,1.7,0.6,3.2,0.9c0.9,0.2,1.7,0.4,2.6,0.8s1.6,0.8,2.3,1.3
	c0.7,0.5,1.3,1.2,1.7,2c0.4,0.8,0.6,1.7,0.6,2.8c0,1.4-0.3,2.6-0.9,3.6c-0.6,1-1.3,1.8-2.3,2.4c-0.9,0.6-2,1-3.1,1.3
	c-1.2,0.3-2.3,0.4-3.5,0.4c-1.9,0-3.7-0.3-5.4-0.9c-1.8-0.6-3.3-1.5-4.4-2.6l4.2-4.4c0.7,0.7,1.5,1.3,2.5,1.8c1,0.5,2,0.7,3.1,0.7
	c0.6,0,1.2-0.1,1.8-0.4c0.6-0.3,0.9-0.8,0.9-1.5c0-0.7-0.4-1.2-1.1-1.6c-0.7-0.3-1.9-0.7-3.4-1c-0.8-0.2-1.6-0.4-2.4-0.7
	c-0.8-0.3-1.5-0.7-2.1-1.2c-0.6-0.5-1.1-1.2-1.5-1.9c-0.4-0.8-0.6-1.7-0.6-2.7c0-1.4,0.3-2.5,0.9-3.5c0.6-1,1.3-1.7,2.2-2.3
	c0.9-0.6,1.9-1.1,3-1.3c1.1-0.3,2.2-0.4,3.3-0.4c1.7,0,3.4,0.3,5,0.8c1.6,0.5,3,1.3,4.1,2.4L87.6,63z"/>
<path fill="#FFFFFF" d="M0,116.4V84.2h21.7v6.6H7.5v6.1h13.4v6.2H7.5v6.7h15v6.7H0z"/>
<path fill="#FFFFFF" d="M42.2,116.4V104c0-0.6-0.1-1.2-0.2-1.8c-0.1-0.6-0.3-1.1-0.5-1.5c-0.2-0.4-0.6-0.8-1-1
	c-0.4-0.3-1-0.4-1.7-0.4c-0.7,0-1.3,0.1-1.8,0.4c-0.5,0.3-0.9,0.6-1.3,1.1c-0.3,0.5-0.6,1-0.8,1.6s-0.3,1.2-0.3,1.8v12.3h-7.5V93.7
	h7.2v3.1h0.1c0.3-0.5,0.6-1,1.1-1.4c0.4-0.5,1-0.9,1.5-1.2c0.6-0.3,1.2-0.6,1.9-0.8c0.7-0.2,1.4-0.3,2.2-0.3c1.5,0,2.8,0.3,3.9,0.8
	c1.1,0.5,1.9,1.3,2.6,2.1c0.7,0.9,1.1,1.9,1.4,3c0.3,1.1,0.4,2.2,0.4,3.4v14H42.2z"/>
<path fill="#FFFFFF" d="M69,101.1c-0.4-0.5-1-1-1.7-1.3c-0.7-0.3-1.5-0.5-2.2-0.5c-0.8,0-1.5,0.2-2.1,0.5c-0.6,0.3-1.2,0.7-1.6,1.3
	s-0.8,1.1-1.1,1.8c-0.3,0.7-0.4,1.4-0.4,2.2c0,0.8,0.1,1.5,0.4,2.2c0.2,0.7,0.6,1.3,1.1,1.8c0.5,0.5,1,1,1.7,1.3
	c0.7,0.3,1.4,0.5,2.2,0.5c0.8,0,1.5-0.1,2.3-0.4c0.7-0.3,1.3-0.7,1.8-1.3l4.1,5.1c-0.9,0.9-2.2,1.6-3.6,2.1
	c-1.5,0.5-3.1,0.8-4.7,0.8c-1.8,0-3.5-0.3-5-0.8c-1.6-0.5-2.9-1.3-4.1-2.4c-1.1-1-2-2.3-2.7-3.8c-0.7-1.5-1-3.2-1-5.1
	c0-1.9,0.3-3.5,1-5c0.7-1.5,1.6-2.8,2.7-3.8c1.1-1,2.5-1.9,4.1-2.4c1.6-0.6,3.2-0.8,5-0.8c0.8,0,1.6,0.1,2.4,0.2
	c0.8,0.2,1.6,0.4,2.3,0.6c0.7,0.3,1.4,0.6,2.1,1c0.6,0.4,1.2,0.8,1.6,1.3L69,101.1z"/>
<path fill="#FFFFFF" d="M90.9,99.9c-0.3-0.1-0.7-0.2-1-0.2c-0.3,0-0.6,0-0.9,0c-1,0-1.8,0.2-2.5,0.5c-0.7,0.4-1.2,0.8-1.6,1.3
	c-0.4,0.5-0.7,1.1-0.9,1.7c-0.2,0.6-0.3,1.1-0.3,1.6v11.6h-7.5V93.8h7.2V97h0.1c0.6-1.2,1.4-2.1,2.5-2.8c1.1-0.7,2.3-1.1,3.7-1.1
	c0.3,0,0.6,0,0.9,0c0.3,0,0.5,0.1,0.7,0.1L90.9,99.9z"/>
<path fill="#FFFFFF" d="M108.4,119.9c-0.5,1.2-1,2.2-1.5,3.2c-0.6,0.9-1.2,1.7-2,2.4c-0.8,0.7-1.7,1.1-2.7,1.5
	c-1,0.3-2.3,0.5-3.7,0.5c-0.7,0-1.4,0-2.2-0.1c-0.7-0.1-1.4-0.2-1.9-0.4l0.8-6.3c0.4,0.1,0.8,0.2,1.2,0.3c0.4,0.1,0.8,0.1,1.2,0.1
	c1.2,0,2-0.3,2.5-0.8c0.5-0.5,1-1.3,1.3-2.3l0.7-1.9l-9.5-22.3h8.3l5.1,14.6h0.1l4.5-14.6h7.9L108.4,119.9z"/>
<path fill="#FFFFFF" d="M145.8,105c0,1.6-0.2,3.1-0.7,4.6c-0.5,1.5-1.2,2.7-2.1,3.9c-0.9,1.1-2.1,2-3.4,2.7c-1.3,0.7-2.9,1-4.6,1
	c-1.4,0-2.7-0.3-4-0.8c-1.2-0.6-2.2-1.3-2.9-2.3H128v13.5h-7.5V93.7h7.1v2.8h0.1c0.7-0.9,1.7-1.7,2.9-2.4s2.7-1,4.4-1
	c1.6,0,3.1,0.3,4.5,1c1.3,0.6,2.5,1.5,3.4,2.6c0.9,1.1,1.6,2.4,2.1,3.8C145.6,101.9,145.8,103.4,145.8,105z M138.6,105
	c0-0.7-0.1-1.4-0.3-2.1c-0.2-0.7-0.6-1.3-1-1.8c-0.4-0.5-1-1-1.7-1.3c-0.7-0.3-1.4-0.5-2.3-0.5c-0.9,0-1.6,0.2-2.3,0.5
	c-0.7,0.3-1.2,0.8-1.7,1.3c-0.5,0.5-0.8,1.2-1.1,1.9c-0.3,0.7-0.4,1.4-0.4,2.1s0.1,1.4,0.4,2.1c0.3,0.7,0.6,1.3,1.1,1.9
	c0.5,0.5,1,1,1.7,1.3c0.7,0.3,1.4,0.5,2.3,0.5c0.9,0,1.7-0.2,2.3-0.5c0.7-0.3,1.2-0.8,1.7-1.3c0.4-0.5,0.8-1.2,1-1.9
	C138.5,106.4,138.6,105.7,138.6,105z"/>
<path fill="#FFFFFF" d="M157.8,99.3v8.7c0,1.1,0.2,1.9,0.6,2.4c0.4,0.5,1.1,0.8,2.2,0.8c0.4,0,0.8,0,1.2-0.1s0.8-0.2,1-0.3l0.1,5.5
	c-0.5,0.2-1.2,0.3-2,0.5c-0.8,0.1-1.6,0.2-2.4,0.2c-1.5,0-2.8-0.2-3.8-0.6c-1-0.4-1.9-0.9-2.5-1.6c-0.6-0.7-1.1-1.6-1.3-2.6
	s-0.4-2.1-0.4-3.3v-9.6h-3.6v-5.6h3.6v-6h7.3v6h5.3v5.6H157.8z"/>
<path fill="#FFFFFF" d="M70.3,46.1c-2.2,0-4,1.6-4,3.7c0,2.2,1.5,3.6,3.7,3.6c0.2,0,0.4,0,0.5-0.1c-0.4,1.6-1.9,2.8-3.4,3l-0.3,0
	v3.5l0.4,0c1.8-0.2,3.5-1,4.8-2.2c1.7-1.6,2.6-4,2.6-6.8C74.6,48.1,72.8,46.1,70.3,46.1z"/>
</svg>
