<?xml version="1.0" encoding="utf-8"?>
<!-- Generator: Adobe Illustrator 22.0.1, SVG Export Plug-In . SVG Version: 6.00 Build 0)  -->
<svg version="1.1" baseProfile="tiny" id="Camada_1"
	 xmlns="http://www.w3.org/2000/svg" xmlns:xlink="http://www.w3.org/1999/xlink" x="0px" y="0px" viewBox="0 0 1302.4 612.4"
	 xml:space="preserve">
<g>
	<g>
		<polygon fill="#00C29B" points="837.2,73.1 835.5,68.5 779.7,68.5 645.7,447.9 706.3,447.9 		"/>
		<polygon fill="#00C29B" points="844,92.5 813.3,180.5 860.6,316 766,316 745.2,375.7 881.7,375.7 907,447.9 969.5,447.9 		"/>
	</g>
	<g>
		<polygon fill="#00C29B" points="1044.3,447.9 1162.8,247 1162.8,247 1055,68.7 997.8,68.7 1108.1,249.7 987.8,447.9 		"/>
		<polygon fill="#00C29B" points="1181.9,249.7 1292.2,68.7 1222.9,68.7 1147.4,197.6 1177.3,247 1146.1,299.8 1232.6,447.9 
			1302.4,447.9 		"/>
	</g>
</g>
<path fill="#00C29B" d="M0,0v504h613.9V0H0z M108.1,447.9H30.4v-25.8l77.8-147.3V447.9z M108.1,257.2L30.4,404.6v-335h77.8V257.2z
	 M148.4,72.1h57.4l-32.3,61.2h-25.1V72.1z M212.2,133.4l-49.1,39l19.6-39h-0.1l29.6-56V133.4z M312,182.2v265.7h-58.9V68.7h51.4
	l106.8,168.8L379,290.1L312,182.2z M578.5,447.9h-58.9V182.7l-96.3,153h-15.9L385,299.7L520.1,79.4l6.8-10.7h51.6V447.9z"/>
<g>
	<g>
		<path fill="#00C29B" d="M67.9,592.2c-1.1,6.5-4.5,11.4-10.3,14.9c-5.8,3.5-13.5,5.3-23,5.3c-10.4,0-18.7-2.6-25-7.8
			c-6.3-5.2-9.4-12.1-9.4-20.8V578c0-5.7,1.5-10.7,4.4-15c2.9-4.3,7.1-7.6,12.4-9.9c5.4-2.3,11.6-3.5,18.6-3.5
			c9.3,0,16.8,1.8,22.5,5.4c5.6,3.6,8.9,8.6,9.8,15H56.2c-1-4.9-3.2-8.4-6.6-10.6c-3.4-2.2-8.1-3.3-14.1-3.3
			c-7.4,0-13.2,1.9-17.4,5.7c-4.2,3.8-6.3,9.2-6.3,16.2v5.9c0,6.6,2,11.9,6,15.8c4,3.9,9.6,5.9,16.7,5.9c6.4,0,11.4-1,14.8-3
			c3.4-2,5.7-5.6,6.9-10.6H67.9z"/>
		<path fill="#00C29B" d="M155.4,583c0,6-1.4,11.2-4.3,15.7s-7,7.9-12.3,10.2c-5.3,2.3-11.5,3.5-18.6,3.5c-6.9,0-13.1-1.2-18.4-3.5
			c-5.4-2.4-9.5-5.7-12.5-10.1c-3-4.4-4.5-9.4-4.6-15.2v-4.4c0-5.9,1.5-11.1,4.4-15.6c2.9-4.5,7.1-7.9,12.5-10.3
			c5.4-2.4,11.5-3.6,18.4-3.6c7,0,13.3,1.2,18.6,3.5c5.4,2.4,9.5,5.8,12.4,10.3c2.9,4.5,4.3,9.7,4.3,15.7V583z M143.9,579.1
			c0-7.2-2.1-12.8-6.3-16.7c-4.2-3.9-10-5.8-17.6-5.8c-7.3,0-13.1,1.9-17.3,5.8c-4.2,3.9-6.4,9.2-6.5,16.1v4.5
			c0,7,2.1,12.5,6.4,16.5c4.2,4,10.1,6,17.5,6c7.5,0,13.3-1.9,17.4-5.7c4.1-3.8,6.2-9.2,6.3-16.3V579.1z"/>
		<path fill="#00C29B" d="M191.9,550.5l28.7,49.8l28.7-49.8h15v61.1h-11.6v-23.8l1.1-25.7L225,611.6h-8.9l-28.8-49.3l1.1,25.5v23.8
			h-11.6v-61.1H191.9z"/>
		<path fill="#00C29B" d="M303.9,550.5l28.7,49.8l28.7-49.8h15v61.1h-11.6v-23.8l1.1-25.7l-28.9,49.4h-8.9l-28.8-49.3l1.1,25.5v23.8
			h-11.6v-61.1H303.9z"/>
		<path fill="#00C29B" d="M462.9,550.5V592c0,5.8-2.6,10.5-7.8,14.1c-5.2,3.7-12.2,5.7-21,6.2l-3.1,0.1c-9.6,0-17.3-1.8-23-5.4
			c-5.7-3.6-8.6-8.6-8.7-14.9v-41.6h11.5v41.3c0,4.4,1.8,7.8,5.3,10.3c3.5,2.4,8.5,3.7,15,3.7c6.6,0,11.6-1.2,15.1-3.6
			c3.5-2.4,5.2-5.9,5.2-10.3v-41.4H462.9z"/>
		<path fill="#00C29B" d="M552.8,611.6h-11.7l-44.3-47v47h-11.7v-61.1h11.7l44.4,47.3v-47.3h11.5V611.6z"/>
		<path fill="#00C29B" d="M589.9,611.6h-11.6v-61.1h11.6V611.6z"/>
		<path fill="#00C29B" d="M679.9,592.2c-1.1,6.5-4.5,11.4-10.3,14.9c-5.8,3.5-13.5,5.3-23,5.3c-10.4,0-18.7-2.6-25-7.8
			c-6.3-5.2-9.4-12.1-9.4-20.8V578c0-5.7,1.5-10.7,4.4-15c2.9-4.3,7.1-7.6,12.4-9.9c5.4-2.3,11.6-3.5,18.6-3.5
			c9.3,0,16.8,1.8,22.5,5.4c5.6,3.6,8.9,8.6,9.8,15h-11.7c-1-4.9-3.2-8.4-6.6-10.6c-3.4-2.2-8.1-3.3-14.1-3.3
			c-7.4,0-13.2,1.9-17.4,5.7c-4.2,3.8-6.3,9.2-6.3,16.2v5.9c0,6.6,2,11.9,6,15.8c4,3.9,9.6,5.9,16.7,5.9c6.4,0,11.4-1,14.8-3
			c3.4-2,5.7-5.6,6.9-10.6H679.9z"/>
		<path fill="#00C29B" d="M748.3,595.6h-36.8l-8.3,16h-12l33.6-61.1H735l33.6,61.1h-11.9L748.3,595.6z M715,589h29.9l-15-28.6
			L715,589z"/>
		<path fill="#00C29B" d="M837.5,557.1h-28.3v54.5h-11.5v-54.5h-28.2v-6.6h68V557.1z"/>
		<path fill="#00C29B" d="M904.3,583.4h-38.1V605h44.3v6.6h-55.9v-61.1h55.3v6.6h-43.7v19.7h38.1V583.4z"/>
		<path fill="#00C29B" d="M978.6,550.5l28.7,49.8l28.7-49.8h15v61.1h-11.6v-23.8l1.1-25.7l-28.9,49.4h-8.9l-28.8-49.3l1.1,25.5v23.8
			h-11.6v-61.1H978.6z"/>
		<path fill="#00C29B" d="M1143.3,583c0,6-1.4,11.2-4.3,15.7s-7,7.9-12.3,10.2c-5.3,2.3-11.5,3.5-18.6,3.5c-6.9,0-13.1-1.2-18.4-3.5
			c-5.4-2.4-9.5-5.7-12.5-10.1c-3-4.4-4.5-9.4-4.6-15.2v-4.4c0-5.9,1.5-11.1,4.4-15.6s7.1-7.9,12.5-10.3c5.4-2.4,11.5-3.6,18.4-3.6
			c7,0,13.3,1.2,18.6,3.5s9.5,5.8,12.4,10.3c2.9,4.5,4.3,9.7,4.3,15.7V583z M1131.8,579.1c0-7.2-2.1-12.8-6.3-16.7
			c-4.2-3.9-10-5.8-17.6-5.8c-7.3,0-13.1,1.9-17.3,5.8c-4.2,3.9-6.4,9.2-6.5,16.1v4.5c0,7,2.1,12.5,6.4,16.5c4.2,4,10.1,6,17.5,6
			c7.5,0,13.3-1.9,17.4-5.7c4.1-3.8,6.2-9.2,6.3-16.3V579.1z"/>
		<path fill="#00C29B" d="M1197.1,586.9h-20.7v24.7h-11.7v-61.1h29.1c9.9,0,17.5,1.6,22.9,4.7c5.3,3.1,8,7.7,8,13.7
			c0,3.8-1.5,7.1-4.4,9.9c-3,2.8-7.1,4.9-12.3,6.3l20.7,25.9v0.5h-12.4L1197.1,586.9z M1176.4,580.3h17.8c5.8,0,10.3-1,13.7-3.1
			c3.4-2.1,5.1-4.8,5.1-8.3c0-3.8-1.6-6.7-4.9-8.7c-3.2-2-7.9-3-14-3.1h-17.8V580.3z"/>
		<path fill="#00C29B" d="M1294.7,583.4h-38.1V605h44.3v6.6H1245v-61.1h55.3v6.6h-43.7v19.7h38.1V583.4z"/>
	</g>
</g>
</svg>
